{
.appVersion = "1352";
DisplayStrings = (
"&/ampersand.ss01"
);
copyright = "Copyright 2013-2021 The Kings Project Authors (https://github.com/googlefonts/kings)";
customParameters = (
{
name = panose;
value = (
2,
0,
5,
3,
7,
0,
0,
2,
0,
4
);
},
{
name = blueScale;
value = 0.21129;
},
{
name = licenseURL;
value = "https://scripts.sil.org/OFL";
},
{
name = license;
value = "This Font Software is licensed under the SIL Open Font License, Version 1.1. This license is available with a FAQ at: https://scripts.sil.org/OFL";
},
{
name = vendorID;
value = GOOG;
},
{
name = "Disable Subroutines";
value = 1;
},
{
name = glyphOrder;
value = (
.notdef,
CR,
NULL,
space,
nbspace
);
},
{
name = fsType;
value = (
);
},
{
name = "Use Typo Metrics";
value = 1;
},
{
name = Axes;
value = (
{
Name = Weight;
Tag = wght;
}
);
}
);
date = "2021-10-14 18:09:53 +0000";
designer = "Robert E. Leuschke";
designerURL = www.typesetit.com;
disablesNiceNames = 1;
familyName = Kings;
featurePrefixes = (
{
automatic = 1;
code = "languagesystem DFLT dflt;\012\012languagesystem latn dflt;\012languagesystem latn AZE;\012languagesystem latn CRT;\012languagesystem latn KAZ;\012languagesystem latn TAT;\012languagesystem latn TRK;\012languagesystem latn ROM;\012languagesystem latn MOL;\012languagesystem latn CAT;\012";
name = Languagesystems;
}
);
features = (
{
automatic = 1;
code = "feature locl;\012feature sups;\012feature frac;\012feature ordn;\012feature salt;\012feature ss01;\012";
name = aalt;
},
{
automatic = 1;

glyphs = (
{
color = 3;
glyphname = .notdef;
lastChange = "2021-08-31 06:31:05 +0000";
layers = (
{
layerId = "C36B7B90-196F-45C3-8412-B02CF16DA361";
paths = (
{
closed = 1;
nodes = (
"48 0 LINE",
"469 0 LINE",
"478 8 LINE",
"478 621 LINE",
"469 630 LINE",
"48 630 LINE",
"40 620 LINE",
"40 9 LINE"
);
},
{
closed = 1;
nodes = (
"57 613 LINE",
"461 613 LINE",
"461 16 LINE",
"57 16 LINE"
);
},
{
closed = 1;
nodes = (
"92 49 LINE",
"427 49 LINE",
"427 577 LINE",
"92 577 LINE"
);
},
{
closed = 1;
nodes = (
"144 150 LINE",
"234 316 LINE",
"144 479 LINE",
"163 514 LINE",
"253 350 LINE",
"344 514 LINE",
"363 479 LINE",
"273 314 LINE",
"363 150 LINE",
"344 116 LINE",
"253 279 LINE",
"163 116 LINE"
);
}
);
width = 518;
}
);
note = .notdef;
},
{
color = 3;
glyphname = A;
lastChange = "2021-08-31 05:46:19 +0000";
layers = (
{
hints = (
{
horizontal = 1;
place = "{-3, 17}";
type = Stem;
},
{
horizontal = 1;
place = "{237, 41}";
type = Stem;
},
{
horizontal = 1;
place = "{617, 15}";
type = Stem;
}
);
layerId = "C36B7B90-196F-45C3-8412-B02CF16DA361";
paths = (
{
closed = 1;
nodes = (
"783 16 LINE",
"750 14 OFFCURVE",
"687 1 OFFCURVE",
"663 129 CURVE SMOOTH",
"635 279 OFFCURVE",
"622 418 OFFCURVE",
"610 571 CURVE SMOOTH",
"608 599 OFFCURVE",
"614 619 OFFCURVE",
"599 619 CURVE SMOOTH",
"568 618 OFFCURVE",
"543 618 OFFCURVE",
"514 617 CURVE SMOOTH",
"486 616 OFFCURVE",
"433 615 OFFCURVE",
"347 620 CURVE",
"341 603 LINE",
"365 604 OFFCURVE",
"397 606 OFFCURVE",
"421 606 CURVE SMOOTH",
"485 605 OFFCURVE",
"476 557 OFFCURVE",
"457 517 CURVE SMOOTH",
"439 479 OFFCURVE",
"375 369 OFFCURVE",
"313 266 CURVE",
"256 263 OFFCURVE",
"210 261 OFFCURVE",
"174 255 CURVE",
"157 250 OFFCURVE",
"111 228 OFFCURVE",
"161 232 CURVE SMOOTH",
"216 236 OFFCURVE",
"245 236 OFFCURVE",
"293 234 CURVE",
"256 172 OFFCURVE",
"220 115 OFFCURVE",
"198 84 CURVE SMOOTH",
"142 4 OFFCURVE",
"94 13 OFFCURVE",
"11 17 CURVE",
"0 0 LINE",
"67 0 OFFCURVE",
"139 6 OFFCURVE",
"201 3 CURVE SMOOTH",
"230 2 OFFCURVE",
"279 0 OFFCURVE",
"346 -3 CURVE",
"358 14 LINE",
"311 12 OFFCURVE",
"222 1 OFFCURVE",
"290 129 CURVE SMOOTH",
"309 164 OFFCURVE",
"327 198 OFFCURVE",
"347 233 CURVE",
"365 233 OFFCURVE",
"386 232 OFFCURVE",
"411 232 CURVE SMOOTH",
"437 232 OFFCURVE",
"462 229 OFFCURVE",
"486 240 CURVE SMOOTH",
"504 249 OFFCURVE",
"536 268 OFFCURVE",
"546 287 CURVE SMOOTH",
"550 294 OFFCURVE",
"549 298 OFFCURVE",
"543 293 CURVE SMOOTH",
"532 284 OFFCURVE",
"469 274 OFFCURVE",
"423 272 CURVE SMOOTH",
"404 271 OFFCURVE",
"385 270 OFFCURVE",
"367 269 CURVE",
"415 349 OFFCURVE",
"464 429 OFFCURVE",
"516 511 CURVE",
"532 435 OFFCURVE",
"571 141 OFFCURVE",
"572 56 CURVE SMOOTH",
"573 11 OFFCURVE",
"514 15 OFFCURVE",
"487 16 CURVE",
"477 0 LINE",
"542 4 OFFCURVE",
"600 3 OFFCURVE",
"666 0 CURVE SMOOTH",
"696 -1 OFFCURVE",
"705 3 OFFCURVE",
"774 0 CURVE"
);
}
);
width = 771;
}
);
note = A;
unicode = 0041;
},
{
color = 3;
glyphname = AE;
lastChange = "2021-08-31 05:46:19 +0000";
layers = (
{
hints = (
{
horizontal = 1;
place = "{-6, 33}";
type = Stem;
},
{
horizontal = 1;
place = "{254, 41}";
type = Stem;
},
{
horizontal = 1;
place = "{507, 34}";
type = Stem;
},
{
place = "{485, 328}";
type = Stem;
}
);
layerId = "C36B7B90-196F-45C3-8412-B02CF16DA361";
paths = (
{
closed = 1;
nodes = (
"948 180 OFFCURVE",
"939 188 OFFCURVE",
"936 181 CURVE SMOOTH",
"897 93 OFFCURVE",
"825 33 OFFCURVE",
"725 33 CURVE SMOOTH",
"624 33 OFFCURVE",
"612 65 OFFCURVE",
"615 112 CURVE SMOOTH",
"621 190 OFFCURVE",
"625 236 OFFCURVE",
"632 295 CURVE",
"662 294 OFFCURVE",
"700 293 OFFCURVE",
"757 293 CURVE SMOOTH",
"783 293 OFFCURVE",
"809 298 OFFCURVE",
"832 309 CURVE SMOOTH",
"849 317 OFFCURVE",
"880 336 OFFCURVE",
"889 356 CURVE SMOOTH",
"893 363 OFFCURVE",
"892 367 OFFCURVE",
"886 362 CURVE SMOOTH",
"874 353 OFFCURVE",
"813 342 OFFCURVE",
"768 340 CURVE SMOOTH",
"718 338 OFFCURVE",
"677 342 OFFCURVE",
"638 340 CURVE",
"644 387 OFFCURVE",
"650 437 OFFCURVE",
"660 495 CURVE SMOOTH",
"677 596 OFFCURVE",
"747 584 OFFCURVE",
"833 585 CURVE SMOOTH",
"889 585 OFFCURVE",
"928 538 OFFCURVE",
"922 445 CURVE SMOOTH",
"920 429 OFFCURVE",
"935 426 OFFCURVE",
"935 435 CURVE SMOOTH",
"939 489 OFFCURVE",
"938 512 OFFCURVE",
"943 559 CURVE SMOOTH",
"949 609 OFFCURVE",
"939 625 OFFCURVE",
"895 623 CURVE SMOOTH",
"803 618 OFFCURVE",
"729 618 OFFCURVE",
"637 617 CURVE SMOOTH",
"526 615 OFFCURVE",
"412 615 OFFCURVE",
"302 620 CURVE SMOOTH",
"291 621 OFFCURVE",
"290 601 OFFCURVE",
"302 604 CURVE",
"327 604 OFFCURVE",
"352 606 OFFCURVE",
"376 606 CURVE SMOOTH",
"441 606 OFFCURVE",
"435 557 OFFCURVE",
"419 518 CURVE SMOOTH",
"403 479 OFFCURVE",
"380 429 OFFCURVE",
"325 326 CURVE",
"270 323 OFFCURVE",
"223 321 OFFCURVE",
"187 316 CURVE",
"171 310 OFFCURVE",
"126 289 OFFCURVE",
"177 292 CURVE SMOOTH",
"231 295 OFFCURVE",
"259 295 OFFCURVE",
"308 294 CURVE",
"274 232 OFFCURVE",
"210 118 OFFCURVE",
"190 87 CURVE SMOOTH",
"139 6 OFFCURVE",
"80 14 OFFCURVE",
"-2 18 CURVE SMOOTH",
"-15 18 OFFCURVE",
"-15 0 OFFCURVE",
"-5 2 CURVE SMOOTH",
"62 5 OFFCURVE",
"136 7 OFFCURVE",
"200 4 CURVE SMOOTH",
"228 3 OFFCURVE",
"278 2 OFFCURVE",
"344 -1 CURVE",
"353 -3 OFFCURVE",
"369 19 OFFCURVE",
"356 15 CURVE",
"309 13 OFFCURVE",
"219 3 OFFCURVE",
"279 131 CURVE SMOOTH",
"295 166 OFFCURVE",
"344 259 OFFCURVE",
"361 293 CURVE",
"389 292 OFFCURVE",
"500 298 OFFCURVE",
"538 298 CURVE",
"530 243 OFFCURVE",
"520 184 OFFCURVE",
"507 131 CURVE SMOOTH",
"477 3 OFFCURVE",
"454 18 OFFCURVE",
"443 19 CURVE SMOOTH",
"436 19 OFFCURVE",
"423 0 OFFCURVE",
"434 2 CURVE",
"498 0 OFFCURVE",
"470 3 OFFCURVE",
"500 4 CURVE SMOOTH",
"566 6 OFFCURVE",
"609 10 OFFCURVE",
"672 5 CURVE SMOOTH",
"790 -4 OFFCURVE",
"848 -11 OFFCURVE",
"868 2 CURVE SMOOTH",
"914 31 OFFCURVE",
"934 143 OFFCURVE",
"946 173 CURVE SMOOTH"
);
},
{
closed = 1;
nodes = (
"558 470 OFFCURVE",
"552 404 OFFCURVE",
"544 336 CURVE",
"521 336 OFFCURVE",
"435 332 OFFCURVE",
"380 329 CURVE",
"421 409 OFFCURVE",
"418 399 OFFCURVE",
"462 483 CURVE SMOOTH",
"504 559 OFFCURVE",
"563 673 OFFCURVE",
"559 497 CURVE SMOOTH"
);
}
);
width = 931;
}
);
note = AE;
unicode = 00C6;
},
{
color = 3;
glyphname = B;
lastChange = "2021-08-31 05:46:19 +0000";
layers = (
{
hints = (
{
horizontal = 1;
place = "{-7, 30}";
type = Stem;
},
{
horizontal = 1;
place = "{617, 22}";
type = Stem;
},
{
place = "{522, 104}";
type = Stem;
}
);
layerId = "C36B7B90-196F-45C3-8412-B02CF16DA361";
paths = (
{
closed = 1;
nodes = (
"619 626 OFFCURVE",
"511 628 OFFCURVE",
"418 622 CURVE SMOOTH",
"383 619 OFFCURVE",
"344 616 OFFCURVE",
"320 616 CURVE SMOOTH",
"258 615 OFFCURVE",
"191 619 OFFCURVE",
"120 620 CURVE SMOOTH",
"117 620 OFFCURVE",
"102 619 OFFCURVE",
"102 619 CURVE",
"92 603 LINE",
"92 603 OFFCURVE",
"109 603 OFFCURVE",
"115 603 CURVE SMOOTH",
"143 603 OFFCURVE",
"195 602 OFFCURVE",
"211 599 CURVE SMOOTH",
"252 592 OFFCURVE",
"241 529 OFFCURVE",
"238 498 CURVE SMOOTH",
"233 441 OFFCURVE",
"204 269 OFFCURVE",
"161 129 CURVE SMOOTH",
"123 4 OFFCURVE",
"130 14 OFFCURVE",
"-11 16 CURVE",
"-14 17 OFFCURVE",
"-20 17 OFFCURVE",
"-20 17 CURVE",
"-31 0 LINE",
"-31 0 OFFCURVE",
"-24 0 OFFCURVE",
"-21 0 CURVE SMOOTH",
"43 -1 OFFCURVE",
"117 2 OFFCURVE",
"145 3 CURVE SMOOTH",
"222 6 OFFCURVE",
"287 -1 OFFCURVE",
"362 -7 CURVE SMOOTH",
"429 -12 OFFCURVE",
"465 23 OFFCURVE",
"489 39 CURVE SMOOTH",
"566 93 LINE SMOOTH",
"648 150 OFFCURVE",
"640 236 OFFCURVE",
"572 294 CURVE SMOOTH",
"530 330 OFFCURVE",
"463 355 OFFCURVE",
"414 354 CURVE",
"433 364 OFFCURVE",
"456 374 OFFCURVE",
"465 379 CURVE SMOOTH",
"539 418 OFFCURVE",
"608 474 OFFCURVE",
"612 531 CURVE SMOOTH"
);
},
{
closed = 1;
nodes = (
"501 443 OFFCURVE",
"454 370 OFFCURVE",
"359 344 CURVE SMOOTH",
"347 341 OFFCURVE",
"341 331 OFFCURVE",
"355 332 CURVE SMOOTH",
"420 338 OFFCURVE",
"479 282 OFFCURVE",
"507 220 CURVE SMOOTH",
"535 159 OFFCURVE",
"522 78 OFFCURVE",
"458 41 CURVE SMOOTH",
"394 5 OFFCURVE",
"265 16 OFFCURVE",
"263 104 CURVE SMOOTH",
"260 213 OFFCURVE",
"323 457 OFFCURVE",
"340 517 CURVE SMOOTH",
"375 644 OFFCURVE",
"520 623 OFFCURVE",
"508 504 CURVE SMOOTH"
);
}
);
width = 631;
}
);
note = B;
unicode = 0042;
},
{
color = 3;
glyphname = C;
lastChange = "2021-08-31 05:46:19 +0000";
layers = (
{
hints = (
{
horizontal = 1;
place = "{-16, 89}";
type = Stem;
},
{
place = "{2, 83}";
type = Stem;
},
{
place = "{530, 46}";
type = Stem;
}
);
layerId = "C36B7B90-196F-45C3-8412-B02CF16DA361";
paths = (
{
closed = 1;
nodes = (
"615 192 LINE",
"602 177 OFFCURVE",
"590 162 OFFCURVE",
"575 149 CURVE SMOOTH",
"517 97 OFFCURVE",
"425 65 OFFCURVE",
"351 65 CURVE SMOOTH",
"182 65 OFFCURVE",
"109 154 OFFCURVE",
"119 302 CURVE SMOOTH",
"131 466 OFFCURVE",
"291 571 OFFCURVE",
"444 571 CURVE SMOOTH",
"497 571 OFFCURVE",
"574 570 OFFCURVE",
"569 498 CURVE SMOOTH",
"567 474 OFFCURVE",
"546 419 OFFCURVE",
"546 419 CURVE",
"558 410 LINE",
"558 410 OFFCURVE",
"579 466 OFFCURVE",
"588 489 CURVE SMOOTH",
"596 510 OFFCURVE",
"604 531 OFFCURVE",
"613 551 CURVE SMOOTH",
"616 559 OFFCURVE",
"619 566 OFFCURVE",
"619 574 CURVE SMOOTH",
"623 624 OFFCURVE",
"560 635 OFFCURVE",
"522 635 CURVE SMOOTH",
"518 635 OFFCURVE",
"514 636 OFFCURVE",
"510 635 CURVE",
"310 625 OFFCURVE",
"50 468 OFFCURVE",
"34 241 CURVE SMOOTH",
"31 204 OFFCURVE",
"37 166 OFFCURVE",
"51 133 CURVE SMOOTH",
"94 27 OFFCURVE",
"200 -16 OFFCURVE",
"311 -16 CURVE SMOOTH",
"354 -16 OFFCURVE",
"400 -11 OFFCURVE",
"442 0 CURVE SMOOTH",
"484 11 OFFCURVE",
"506 39 OFFCURVE",
"530 73 CURVE SMOOTH",
"552 106 OFFCURVE",
"623 179 OFFCURVE",
"623 179 CURVE"
);
}
);
width = 583;
}
);
note = C;
unicode = 0043;
},
{
color = 3;
glyphname = D;
lastChange = "2021-08-31 05:46:19 +0000";
layers = (
{
hints = (
{
horizontal = 1;
place = "{0, 16}";
type = Stem;
},
{
horizontal = 1;
place = "{617, 13}";
type = Stem;
},
{
place = "{648, 106}";
type = Stem;
}
);
layerId = "C36B7B90-196F-45C3-8412-B02CF16DA361";
paths = (
{
closed = 1;
nodes = (
"608 672 OFFCURVE",
"469 616 OFFCURVE",
"341 616 CURVE SMOOTH",
"335 616 OFFCURVE",
"328 616 OFFCURVE",
"320 616 CURVE SMOOTH",
"258 615 OFFCURVE",
"191 619 OFFCURVE",
"118 620 CURVE SMOOTH",
"116 620 OFFCURVE",
"100 619 OFFCURVE",
"100 619 CURVE",
"90 603 LINE",
"90 603 OFFCURVE",
"108 603 OFFCURVE",
"113 603 CURVE SMOOTH",
"140 603 OFFCURVE",
"194 602 OFFCURVE",
"211 599 CURVE SMOOTH",
"252 592 OFFCURVE",
"241 529 OFFCURVE",
"238 498 CURVE SMOOTH",
"233 441 OFFCURVE",
"204 269 OFFCURVE",
"161 129 CURVE SMOOTH",
"123 4 OFFCURVE",
"130 14 OFFCURVE",
"-11 16 CURVE",
"-14 17 OFFCURVE",
"-24 17 OFFCURVE",
"-24 17 CURVE",
"-35 0 LINE",
"-35 0 OFFCURVE",
"-21 0 OFFCURVE",
"-16 0 CURVE SMOOTH",
"47 0 OFFCURVE",
"117 2 OFFCURVE",
"145 3 CURVE SMOOTH",
"166 3 OFFCURVE",
"182 3 OFFCURVE",
"190 2 CURVE",
"370 -2 OFFCURVE",
"444 -48 OFFCURVE",
"587 83 CURVE SMOOTH",
"663 153 LINE SMOOTH",
"744 228 OFFCURVE",
"819 384 OFFCURVE",
"705 540 CURVE SMOOTH"
);
},
{
closed = 1;
nodes = (
"474 34 OFFCURVE",
"233 -43 OFFCURVE",
"278 203 CURVE SMOOTH",
"287 258 OFFCURVE",
"313 442 OFFCURVE",
"355 536 CURVE SMOOTH",
"389 614 OFFCURVE",
"463 611 OFFCURVE",
"524 575 CURVE SMOOTH",
"694 475 OFFCURVE",
"704 220 OFFCURVE",
"537 85 CURVE SMOOTH"
);
}
);
width = 755;
}
);
note = D;
unicode = 0044;
},
{
color = 3;
glyphname = Eth;
lastChange = "2021-08-31 05:46:19 +0000";
layers = (
{
hints = (
{
horizontal = 1;
place = "{0, 16}";
type = Stem;
},
{
horizontal = 1;
place = "{617, 13}";
type = Stem;
},
{
place = "{648, 106}";
type = Stem;
},
{
horizontal = 1;
place = "{96.558, 30.726}";
type = Stem;
},
{
place = "{205.919, 136.562}";
type = Stem;
}
);
layerId = "C36B7B90-196F-45C3-8412-B02CF16DA361";
paths = (
{
closed = 1;
nodes = (
"608 672 OFFCURVE",
"469 616 OFFCURVE",
"341 616 CURVE SMOOTH",
"335 616 OFFCURVE",
"328 616 OFFCURVE",
"320 616 CURVE SMOOTH",
"258 615 OFFCURVE",
"191 619 OFFCURVE",
"118 620 CURVE SMOOTH",
"116 620 OFFCURVE",
"100 619 OFFCURVE",
"100 619 CURVE",
"90 603 LINE",
"90 603 OFFCURVE",
"108 603 OFFCURVE",
"113 603 CURVE SMOOTH",
"140 603 OFFCURVE",
"194 602 OFFCURVE",
"211 599 CURVE SMOOTH",
"252 592 OFFCURVE",
"241 529 OFFCURVE",
"238 498 CURVE SMOOTH",
"233 441 OFFCURVE",
"204 269 OFFCURVE",
"161 129 CURVE SMOOTH",
"123 4 OFFCURVE",
"130 14 OFFCURVE",
"-11 16 CURVE",
"-14 17 OFFCURVE",
"-24 17 OFFCURVE",
"-24 17 CURVE",
"-35 0 LINE",
"-35 0 OFFCURVE",
"-21 0 OFFCURVE",
"-16 0 CURVE SMOOTH",
"47 0 OFFCURVE",
"117 2 OFFCURVE",
"145 3 CURVE SMOOTH",
"166 3 OFFCURVE",
"182 3 OFFCURVE",
"190 2 CURVE",
"370 -2 OFFCURVE",
"444 -48 OFFCURVE",
"587 83 CURVE SMOOTH",
"663 153 LINE SMOOTH",
"744 228 OFFCURVE",
"819 384 OFFCURVE",
"705 540 CURVE SMOOTH"
);
},
{
closed = 1;
nodes = (
"493 49 OFFCURVE",
"327 4 OFFCURVE",
"268 50 CURVE",
"262 75 OFFCURVE",
"265 130 OFFCURVE",
"278 203 CURVE SMOOTH",
"287 258 OFFCURVE",
"313 442 OFFCURVE",
"355 536 CURVE SMOOTH",
"389 614 OFFCURVE",
"463 611 OFFCURVE",
"524 575 CURVE SMOOTH",
"694 475 OFFCURVE",
"704 220 OFFCURVE",
"537 85 CURVE SMOOTH"
);
},
{
closed = 1;
nodes = (
"114 238 LINE SMOOTH",
"109 238 OFFCURVE",
"92 204 OFFCURVE",
"97 204 CURVE SMOOTH",
"341 204 LINE SMOOTH",
"347 204 OFFCURVE",
"367 238 OFFCURVE",
"357 238 CURVE SMOOTH"
);
}
);
width = 755;
}
);
unicode = 00D0;
},
{
color = 3;
glyphname = E;
lastChange = "2021-08-31 05:46:19 +0000";
layers = (
{
hints = (
{
horizontal = 1;
place = "{3, 29}";
type = Stem;
},
{
horizontal = 1;
place = "{315, 25}";
type = Stem;
},
{
horizontal = 1;
place = "{617, 13}";
type = Stem;
},
{
place = "{574, 15}";
type = Stem;
}
);
layerId = "C36B7B90-196F-45C3-8412-B02CF16DA361";
paths = (
{
closed = 1;
nodes = (
"632 608 OFFCURVE",
"623 625 OFFCURVE",
"579 623 CURVE SMOOTH",
"486 618 OFFCURVE",
"412 617 OFFCURVE",
"320 616 CURVE SMOOTH",
"258 615 OFFCURVE",
"192 619 OFFCURVE",
"120 620 CURVE SMOOTH",
"117 620 OFFCURVE",
"101 619 OFFCURVE",
"101 619 CURVE",
"91 603 LINE",
"91 603 OFFCURVE",
"107 603 OFFCURVE",
"113 603 CURVE SMOOTH",
"140 603 OFFCURVE",
"194 602 OFFCURVE",
"210 599 CURVE SMOOTH",
"252 592 OFFCURVE",
"241 529 OFFCURVE",
"237 498 CURVE SMOOTH",
"234 467 OFFCURVE",
"225 405 OFFCURVE",
"210 332 CURVE",
"201 331 OFFCURVE",
"191 331 OFFCURVE",
"187 329 CURVE",
"170 325 OFFCURVE",
"124 302 OFFCURVE",
"174 306 CURVE SMOOTH",
"183 307 OFFCURVE",
"196 307 OFFCURVE",
"206 308 CURVE",
"194 250 OFFCURVE",
"178 187 OFFCURVE",
"161 129 CURVE SMOOTH",
"122 2 OFFCURVE",
"129 14 OFFCURVE",
"-20 17 CURVE SMOOTH",
"-27 17 OFFCURVE",
"-41 -2 OFFCURVE",
"-31 0 CURVE",
"34 -1 OFFCURVE",
"115 2 OFFCURVE",
"144 3 CURVE SMOOTH",
"210 6 OFFCURVE",
"250 8 OFFCURVE",
"312 3 CURVE SMOOTH",
"430 -6 OFFCURVE",
"488 -12 OFFCURVE",
"507 0 CURVE SMOOTH",
"556 31 OFFCURVE",
"587 146 OFFCURVE",
"601 176 CURVE",
"591 183 LINE",
"547 96 OFFCURVE",
"467 31 OFFCURVE",
"367 31 CURVE SMOOTH",
"266 31 OFFCURVE",
"256 63 OFFCURVE",
"263 110 CURVE SMOOTH",
"274 189 OFFCURVE",
"283 248 OFFCURVE",
"294 308 CURVE",
"325 308 OFFCURVE",
"362 307 OFFCURVE",
"419 306 CURVE SMOOTH",
"446 306 OFFCURVE",
"471 303 OFFCURVE",
"495 315 CURVE SMOOTH",
"513 323 OFFCURVE",
"544 342 OFFCURVE",
"555 362 CURVE SMOOTH",
"559 368 OFFCURVE",
"558 372 OFFCURVE",
"552 368 CURVE SMOOTH",
"540 359 OFFCURVE",
"478 348 OFFCURVE",
"432 346 CURVE SMOOTH",
"383 344 OFFCURVE",
"339 341 OFFCURVE",
"300 339 CURVE",
"309 386 OFFCURVE",
"320 435 OFFCURVE",
"335 495 CURVE SMOOTH",
"360 596 OFFCURVE",
"428 582 OFFCURVE",
"515 584 CURVE SMOOTH",
"569 584 OFFCURVE",
"604 541 OFFCURVE",
"594 453 CURVE SMOOTH",
"594 450 OFFCURVE",
"592 435 OFFCURVE",
"592 435 CURVE",
"606 426 LINE",
"606 426 OFFCURVE",
"608 442 OFFCURVE",
"609 446 CURVE SMOOTH",
"614 491 OFFCURVE",
"615 515 OFFCURVE",
"623 559 CURVE SMOOTH"
);
}
);
width = 611;
}
);
note = E;
unicode = 0045;
},
{
color = 3;
glyphname = F;
lastChange = "2021-08-31 05:46:19 +0000";
layers = (
{
hints = (
{
horizontal = 1;
place = "{3, 13}";
type = Stem;
},
{
horizontal = 1;
place = "{315, 25}";
type = Stem;
},
{
horizontal = 1;
place = "{617, 13}";
type = Stem;
},
{
place = "{574, 15}";
type = Stem;
}
);
layerId = "C36B7B90-196F-45C3-8412-B02CF16DA361";
paths = (
{
closed = 1;
nodes = (
"632 608 OFFCURVE",
"624 625 OFFCURVE",
"579 623 CURVE SMOOTH",
"486 618 OFFCURVE",
"412 617 OFFCURVE",
"320 616 CURVE SMOOTH",
"257 615 OFFCURVE",
"189 620 OFFCURVE",
"116 620 CURVE SMOOTH",
"114 620 OFFCURVE",
"100 619 OFFCURVE",
"100 619 CURVE",
"90 603 LINE",
"90 603 OFFCURVE",
"108 603 OFFCURVE",
"114 603 CURVE SMOOTH",
"141 603 OFFCURVE",
"194 602 OFFCURVE",
"211 599 CURVE SMOOTH",
"252 592 OFFCURVE",
"241 529 OFFCURVE",
"238 498 CURVE SMOOTH",
"235 467 OFFCURVE",
"225 405 OFFCURVE",
"211 332 CURVE",
"202 331 OFFCURVE",
"192 331 OFFCURVE",
"187 329 CURVE",
"170 325 OFFCURVE",
"124 302 OFFCURVE",
"175 306 CURVE SMOOTH",
"183 307 OFFCURVE",
"196 307 OFFCURVE",
"206 308 CURVE",
"194 250 OFFCURVE",
"179 187 OFFCURVE",
"161 129 CURVE SMOOTH",
"123 3 OFFCURVE",
"130 14 OFFCURVE",
"-14 17 CURVE SMOOTH",
"-16 17 OFFCURVE",
"-25 17 OFFCURVE",
"-25 17 CURVE",
"-36 0 LINE",
"-36 0 OFFCURVE",
"-22 0 OFFCURVE",
"-17 0 CURVE SMOOTH",
"46 -1 OFFCURVE",
"117 2 OFFCURVE",
"145 3 CURVE SMOOTH",
"208 6 OFFCURVE",
"323 4 OFFCURVE",
"388 0 CURVE SMOOTH",
"390 0 OFFCURVE",
"402 0 OFFCURVE",
"402 0 CURVE",
"412 16 LINE",
"412 16 OFFCURVE",
"397 15 OFFCURVE",
"392 15 CURVE SMOOTH",
"367 14 OFFCURVE",
"318 14 OFFCURVE",
"302 17 CURVE SMOOTH",
"290 19 OFFCURVE",
"267 29 OFFCURVE",
"262 62 CURVE SMOOTH",
"255 105 OFFCURVE",
"272 209 OFFCURVE",
"292 309 CURVE",
"322 308 OFFCURVE",
"360 307 OFFCURVE",
"420 306 CURVE SMOOTH",
"446 306 OFFCURVE",
"470 304 OFFCURVE",
"495 315 CURVE SMOOTH",
"512 324 OFFCURVE",
"545 342 OFFCURVE",
"555 362 CURVE",
"559 368 OFFCURVE",
"558 372 OFFCURVE",
"552 368 CURVE SMOOTH",
"541 359 OFFCURVE",
"477 348 OFFCURVE",
"432 346 CURVE SMOOTH",
"382 343 OFFCURVE",
"337 341 OFFCURVE",
"298 339 CURVE",
"315 418 OFFCURVE",
"331 489 OFFCURVE",
"340 517 CURVE SMOOTH",
"359 584 OFFCURVE",
"417 582 OFFCURVE",
"514 584 CURVE SMOOTH",
"568 584 OFFCURVE",
"604 540 OFFCURVE",
"594 452 CURVE",
"593 449 OFFCURVE",
"591 433 OFFCURVE",
"591 433 CURVE",
"605 424 LINE",
"605 424 OFFCURVE",
"608 443 OFFCURVE",
"608 447 CURVE",
"615 492 OFFCURVE",
"615 516 OFFCURVE",
"623 559 CURVE SMOOTH"
);
}
);
width = 602;
}
);
note = F;
unicode = 0046;
},
{
color = 3;
glyphname = G;
lastChange = "2021-08-31 05:46:19 +0000";
layers = (
{
hints = (
{
horizontal = 1;
place = "{-9, 16}";
type = Stem;
},
{
horizontal = 1;
place = "{262, 11}";
type = Stem;
},
{
horizontal = 1;
place = "{583, 61}";
type = Stem;
},
{
place = "{7, 104}";
type = Stem;
},
{
place = "{575, 49}";
type = Stem;
}
);
layerId = "C36B7B90-196F-45C3-8412-B02CF16DA361";
paths = (
{
closed = 1;
nodes = (
"770 274 LINE",
"676 269 OFFCURVE",
"589 268 OFFCURVE",
"564 268 CURVE SMOOTH",
"502 268 OFFCURVE",
"440 271 OFFCURVE",
"378 273 CURVE",
"368 256 LINE",
"368 256 OFFCURVE",
"385 256 OFFCURVE",
"391 257 CURVE",
"418 257 OFFCURVE",
"472 255 OFFCURVE",
"489 253 CURVE SMOOTH",
"501 251 OFFCURVE",
"520 241 OFFCURVE",
"515 216 CURVE SMOOTH",
"507 179 OFFCURVE",
"501 126 OFFCURVE",
"490 89 CURVE SMOOTH",
"446 -58 OFFCURVE",
"108 25 OFFCURVE",
"126 296 CURVE SMOOTH",
"140 492 OFFCURVE",
"295 574 OFFCURVE",
"456 574 CURVE SMOOTH",
"512 574 OFFCURVE",
"602 565 OFFCURVE",
"597 494 CURVE SMOOTH",
"595 471 OFFCURVE",
"571 411 OFFCURVE",
"571 411 CURVE",
"584 402 LINE",
"594 433 OFFCURVE",
"608 462 OFFCURVE",
"617 485 CURVE SMOOTH",
"626 505 OFFCURVE",
"637 525 OFFCURVE",
"643 547 CURVE",
"646 554 OFFCURVE",
"649 561 OFFCURVE",
"650 569 CURVE SMOOTH",
"653 618 OFFCURVE",
"586 630 OFFCURVE",
"545 630 CURVE SMOOTH",
"254 630 OFFCURVE",
"42 452 OFFCURVE",
"28 247 CURVE SMOOTH",
"17 86 OFFCURVE",
"144 -9 OFFCURVE",
"297 -9 CURVE SMOOTH",
"372 -9 OFFCURVE",
"531 25 OFFCURVE",
"560 0 CURVE SMOOTH",
"574 -12 OFFCURVE",
"581 -8 OFFCURVE",
"581 6 CURVE SMOOTH",
"583 56 OFFCURVE",
"597 145 OFFCURVE",
"605 168 CURVE SMOOTH",
"630 237 OFFCURVE",
"639 258 OFFCURVE",
"688 258 CURVE SMOOTH",
"706 258 OFFCURVE",
"730 259 OFFCURVE",
"759 257 CURVE"
);
}
);
width = 644;
}
);
note = G;
unicode = 0047;
},
{
color = 3;
glyphname = H;
lastChange = "2021-08-31 05:46:19 +0000";
layers = (
{
hints = (
{
horizontal = 1;
place = "{3, 12}";
type = Stem;
},
{
horizontal = 1;
place = "{321, 41}";
type = Stem;
},
{
horizontal = 1;
place = "{618, 17}";
type = Stem;
}
);
layerId = "C36B7B90-196F-45C3-8412-B02CF16DA361";
paths = (
{
closed = 1;
nodes = (
"997 619 LINE",
"997 619 OFFCURVE",
"975 619 OFFCURVE",
"970 619 CURVE SMOOTH",
"909 620 OFFCURVE",
"838 618 OFFCURVE",
"809 617 CURVE SMOOTH",
"786 616 OFFCURVE",
"769 615 OFFCURVE",
"760 615 CURVE SMOOTH",
"696 615 OFFCURVE",
"606 620 OFFCURVE",
"606 620 CURVE",
"596 604 LINE",
"596 604 OFFCURVE",
"663 607 OFFCURVE",
"683 603 CURVE SMOOTH",
"695 601 OFFCURVE",
"714 589 OFFCURVE",
"709 564 CURVE SMOOTH",
"698 500 OFFCURVE",
"687 439 OFFCURVE",
"676 379 CURVE SMOOTH",
"672 359 OFFCURVE",
"663 354 OFFCURVE",
"644 354 CURVE SMOOTH",
"379 354 LINE SMOOTH",
"355 354 OFFCURVE",
"355 366 OFFCURVE",
"357 373 CURVE SMOOTH",
"370 438 OFFCURVE",
"385 497 OFFCURVE",
"392 520 CURVE SMOOTH",
"413 586 OFFCURVE",
"429 600 OFFCURVE",
"470 604 CURVE SMOOTH",
"488 606 OFFCURVE",
"543 605 OFFCURVE",
"543 605 CURVE",
"544 621 LINE",
"544 621 OFFCURVE",
"427 618 OFFCURVE",
"400 617 CURVE SMOOTH",
"336 614 OFFCURVE",
"237 620 OFFCURVE",
"171 620 CURVE SMOOTH",
"170 620 OFFCURVE",
"157 619 OFFCURVE",
"157 619 CURVE",
"147 602 LINE",
"147 602 OFFCURVE",
"165 603 OFFCURVE",
"170 603 CURVE SMOOTH",
"197 603 OFFCURVE",
"251 602 OFFCURVE",
"268 599 CURVE SMOOTH",
"285 596 OFFCURVE",
"303 574 OFFCURVE",
"299 548 CURVE SMOOTH",
"275 403 OFFCURVE",
"251 274 OFFCURVE",
"209 129 CURVE SMOOTH",
"172 3 OFFCURVE",
"177 14 OFFCURVE",
"35 17 CURVE SMOOTH",
"32 17 OFFCURVE",
"20 17 OFFCURVE",
"20 17 CURVE",
"10 0 LINE",
"10 0 OFFCURVE",
"28 0 OFFCURVE",
"33 0 CURVE SMOOTH",
"94 -1 OFFCURVE",
"165 2 OFFCURVE",
"192 3 CURVE SMOOTH",
"256 6 OFFCURVE",
"325 4 OFFCURVE",
"388 0 CURVE SMOOTH",
"390 0 OFFCURVE",
"406 0 OFFCURVE",
"406 0 CURVE",
"416 16 LINE",
"416 16 OFFCURVE",
"395 15 OFFCURVE",
"390 15 CURVE SMOOTH",
"370 16 OFFCURVE",
"341 17 OFFCURVE",
"325 20 CURVE SMOOTH",
"313 22 OFFCURVE",
"295 34 OFFCURVE",
"297 60 CURVE SMOOTH",
"302 102 OFFCURVE",
"325 217 OFFCURVE",
"338 286 CURVE SMOOTH",
"341 302 OFFCURVE",
"347 314 OFFCURVE",
"361 314 CURVE SMOOTH",
"634 314 LINE SMOOTH",
"654 314 OFFCURVE",
"663 314 OFFCURVE",
"658 292 CURVE SMOOTH",
"647 239 OFFCURVE",
"640 186 OFFCURVE",
"624 129 CURVE SMOOTH",
"589 5 OFFCURVE",
"570 12 OFFCURVE",
"503 16 CURVE SMOOTH",
"501 16 OFFCURVE",
"492 16 OFFCURVE",
"492 16 CURVE",
"486 0 LINE",
"486 0 OFFCURVE",
"499 0 OFFCURVE",
"502 0 CURVE SMOOTH",
"565 2 OFFCURVE",
"573 2 OFFCURVE",
"602 3 CURVE SMOOTH",
"667 6 OFFCURVE",
"769 0 OFFCURVE",
"835 0 CURVE SMOOTH",
"845 0 OFFCURVE",
"857 17 OFFCURVE",
"845 16 CURVE SMOOTH",
"830 15 OFFCURVE",
"755 17 OFFCURVE",
"734 20 CURVE SMOOTH",
"723 22 OFFCURVE",
"705 34 OFFCURVE",
"708 60 CURVE SMOOTH",
"717 136 OFFCURVE",
"765 386 OFFCURVE",
"794 490 CURVE SMOOTH",
"829 617 OFFCURVE",
"825 601 OFFCURVE",
"968 602 CURVE SMOOTH",
"970 602 OFFCURVE",
"986 602 OFFCURVE",
"986 602 CURVE"
);
}
);
width = 857;
}
);
note = H;
unicode = 0048;
},
{
color = 3;
glyphname = I;
lastChange = "2021-08-31 05:46:19 +0000";
layers = (
{
hints = (
{
horizontal = 1;
place = "{3, 11}";
type = Stem;
},
{
horizontal = 1;
place = "{525, 11}";
type = Stem;
}
);
layerId = "C36B7B90-196F-45C3-8412-B02CF16DA361";
paths = (
{
closed = 1;
nodes = (
"510 621 OFFCURVE",
"425 618 OFFCURVE",
"395 617 CURVE SMOOTH",
"330 614 OFFCURVE",
"228 620 OFFCURVE",
"163 620 CURVE SMOOTH",
"153 620 OFFCURVE",
"140 603 OFFCURVE",
"153 603 CURVE SMOOTH",
"167 604 OFFCURVE",
"243 602 OFFCURVE",
"263 599 CURVE SMOOTH",
"280 596 OFFCURVE",
"298 574 OFFCURVE",
"293 548 CURVE SMOOTH",
"269 403 OFFCURVE",
"245 274 OFFCURVE",
"204 129 CURVE SMOOTH",
"167 1 OFFCURVE",
"172 15 OFFCURVE",
"24 17 CURVE",
"16 18 OFFCURVE",
"2 -2 OFFCURVE",
"13 0 CURVE",
"77 -1 OFFCURVE",
"157 2 OFFCURVE",
"188 3 CURVE SMOOTH",
"253 6 OFFCURVE",
"354 0 OFFCURVE",
"420 0 CURVE SMOOTH",
"431 0 OFFCURVE",
"443 17 OFFCURVE",
"430 16 CURVE SMOOTH",
"415 15 OFFCURVE",
"340 17 OFFCURVE",
"320 20 CURVE SMOOTH",
"308 22 OFFCURVE",
"290 34 OFFCURVE",
"293 60 CURVE SMOOTH",
"301 136 OFFCURVE",
"351 386 OFFCURVE",
"379 490 CURVE SMOOTH",
"414 619 OFFCURVE",
"415 604 OFFCURVE",
"564 602 CURVE",
"571 601 OFFCURVE",
"585 621 OFFCURVE",
"574 619 CURVE"
);
}
);
width = 416;
}
);
note = I;
unicode = 0049;
},
{
color = 3;
glyphname = J;
lastChange = "2021-08-31 05:46:19 +0000";
layers = (
{
hints = (
{
horizontal = 1;
place = "{-17, 35}";
type = Stem;
},
{
horizontal = 1;
place = "{616, 17}";
type = Stem;
}
);
layerId = "C36B7B90-196F-45C3-8412-B02CF16DA361";
paths = (
{
closed = 1;
nodes = (
"549 621 OFFCURVE",
"485 618 OFFCURVE",
"448 617 CURVE SMOOTH",
"423 616 OFFCURVE",
"399 616 OFFCURVE",
"374 617 CURVE SMOOTH",
"322 617 OFFCURVE",
"285 616 OFFCURVE",
"230 620 CURVE SMOOTH",
"220 620 OFFCURVE",
"204 600 OFFCURVE",
"217 602 CURVE SMOOTH",
"233 605 OFFCURVE",
"310 604 OFFCURVE",
"330 601 CURVE",
"341 598 OFFCURVE",
"361 587 OFFCURVE",
"356 561 CURVE SMOOTH",
"331 413 OFFCURVE",
"309 292 OFFCURVE",
"268 148 CURVE SMOOTH",
"254 98 OFFCURVE",
"234 20 OFFCURVE",
"170 18 CURVE SMOOTH",
"136 17 OFFCURVE",
"122 44 OFFCURVE",
"117 74 CURVE SMOOTH",
"114 92 OFFCURVE",
"113 118 OFFCURVE",
"120 136 CURVE SMOOTH",
"126 148 OFFCURVE",
"116 154 OFFCURVE",
"108 141 CURVE SMOOTH",
"104 133 OFFCURVE",
"100 121 OFFCURVE",
"97 115 CURVE SMOOTH",
"80 69 OFFCURVE",
"65 69 OFFCURVE",
"47 47 CURVE SMOOTH",
"39 38 OFFCURVE",
"42 27 OFFCURVE",
"49 19 CURVE",
"80 -24 OFFCURVE",
"164 -20 OFFCURVE",
"213 -12 CURVE SMOOTH",
"267 -3 OFFCURVE",
"298 19 OFFCURVE",
"324 48 CURVE SMOOTH",
"357 85 OFFCURVE",
"357 119 OFFCURVE",
"366 163 CURVE SMOOTH",
"381 239 OFFCURVE",
"402 340 OFFCURVE",
"418 419 CURVE SMOOTH",
"427 463 OFFCURVE",
"436 502 OFFCURVE",
"442 520 CURVE SMOOTH",
"459 567 OFFCURVE",
"484 605 OFFCURVE",
"527 604 CURVE SMOOTH",
"544 604 OFFCURVE",
"566 603 OFFCURVE",
"591 602 CURVE SMOOTH",
"598 601 OFFCURVE",
"612 621 OFFCURVE",
"602 619 CURVE"
);
}
);
width = 493;
}
);
note = J;
unicode = 004A;
},
{
color = 3;
glyphname = K;
lastChange = "2021-08-31 05:46:19 +0000";
layers = (
{
hints = (
{
horizontal = 1;
place = "{0, 16}";
type = Stem;
},
{
horizontal = 1;
place = "{621, 13}";
type = Stem;
}
);
layerId = "C36B7B90-196F-45C3-8412-B02CF16DA361";
paths = (
{
closed = 1;
nodes = (
"756 621 OFFCURVE",
"711 615 OFFCURVE",
"671 615 CURVE SMOOTH",
"642 615 OFFCURVE",
"578 620 OFFCURVE",
"560 620 CURVE SMOOTH",
"539 622 OFFCURVE",
"533 600 OFFCURVE",
"550 604 CURVE",
"565 605 OFFCURVE",
"635 598 OFFCURVE",
"532 489 CURVE SMOOTH",
"462 413 OFFCURVE",
"389 334 OFFCURVE",
"319 261 CURVE",
"340 368 OFFCURVE",
"364 480 OFFCURVE",
"377 517 CURVE SMOOTH",
"400 585 OFFCURVE",
"414 607 OFFCURVE",
"462 606 CURVE SMOOTH",
"480 606 OFFCURVE",
"489 605 OFFCURVE",
"498 604 CURVE SMOOTH",
"506 603 OFFCURVE",
"516 620 OFFCURVE",
"505 620 CURVE SMOOTH",
"455 617 OFFCURVE",
"412 618 OFFCURVE",
"386 617 CURVE SMOOTH",
"321 614 OFFCURVE",
"219 620 OFFCURVE",
"154 620 CURVE SMOOTH",
"143 620 OFFCURVE",
"131 603 OFFCURVE",
"144 603 CURVE SMOOTH",
"159 604 OFFCURVE",
"234 602 OFFCURVE",
"254 599 CURVE SMOOTH",
"272 596 OFFCURVE",
"289 574 OFFCURVE",
"285 548 CURVE SMOOTH",
"261 403 OFFCURVE",
"237 274 OFFCURVE",
"195 129 CURVE SMOOTH",
"158 1 OFFCURVE",
"163 15 OFFCURVE",
"14 17 CURVE",
"7 18 OFFCURVE",
"-7 -2 OFFCURVE",
"4 0 CURVE",
"68 -1 OFFCURVE",
"149 2 OFFCURVE",
"179 3 CURVE SMOOTH",
"244 6 OFFCURVE",
"346 4 OFFCURVE",
"411 0 CURVE SMOOTH",
"421 -1 OFFCURVE",
"434 17 OFFCURVE",
"421 16 CURVE SMOOTH",
"406 15 OFFCURVE",
"331 17 OFFCURVE",
"311 20 CURVE SMOOTH",
"299 22 OFFCURVE",
"280 34 OFFCURVE",
"283 60 CURVE SMOOTH",
"287 88 OFFCURVE",
"298 150 OFFCURVE",
"309 208 CURVE",
"330 231 OFFCURVE",
"364 254 OFFCURVE",
"387 279 CURVE",
"411 198 OFFCURVE",
"489 25 OFFCURVE",
"591 -40 CURVE SMOOTH",
"630 -64 OFFCURVE",
"678 -54 OFFCURVE",
"707 -34 CURVE SMOOTH",
"715 -28 OFFCURVE",
"722 -16 OFFCURVE",
"744 -26 CURVE SMOOTH",
"762 -35 OFFCURVE",
"767 -19 OFFCURVE",
"756 -14 CURVE SMOOTH",
"747 -11 OFFCURVE",
"718 0 OFFCURVE",
"700 12 CURVE SMOOTH",
"653 40 OFFCURVE",
"439 235 OFFCURVE",
"402 293 CURVE",
"417 319 OFFCURVE",
"591 486 OFFCURVE",
"647 534 CURVE SMOOTH",
"706 583 OFFCURVE",
"734 605 OFFCURVE",
"810 602 CURVE SMOOTH",
"817 601 OFFCURVE",
"831 621 OFFCURVE",
"820 619 CURVE"
);
}
);
width = 768;
}
);
note = K;
unicode = 004B;
},
{
color = 3;
glyphname = L;
lastChange = "2021-08-31 05:46:19 +0000";
layers = (
{
hints = (
{
horizontal = 1;
place = "{0, 17}";
type = Stem;
},
{
horizontal = 1;
place = "{626, 15}";
type = Stem;
}
);
layerId = "C36B7B90-196F-45C3-8412-B02CF16DA361";
paths = (
{
closed = 1;
nodes = (
"601 178 OFFCURVE",
"593 186 OFFCURVE",
"589 179 CURVE SMOOTH",
"545 92 OFFCURVE",
"467 31 OFFCURVE",
"367 31 CURVE SMOOTH",
"265 31 OFFCURVE",
"255 63 OFFCURVE",
"262 110 CURVE SMOOTH",
"284 262 OFFCURVE",
"297 345 OFFCURVE",
"334 495 CURVE SMOOTH",
"365 623 OFFCURVE",
"387 614 OFFCURVE",
"534 610 CURVE",
"547 607 OFFCURVE",
"546 629 OFFCURVE",
"536 627 CURVE",
"467 625 OFFCURVE",
"371 620 OFFCURVE",
"340 620 CURVE SMOOTH",
"276 620 OFFCURVE",
"181 621 OFFCURVE",
"116 625 CURVE SMOOTH",
"106 625 OFFCURVE",
"95 608 OFFCURVE",
"107 608 CURVE SMOOTH",
"122 609 OFFCURVE",
"195 610 OFFCURVE",
"217 604 CURVE SMOOTH",
"229 601 OFFCURVE",
"248 590 OFFCURVE",
"246 565 CURVE SMOOTH",
"237 428 OFFCURVE",
"179 180 OFFCURVE",
"160 114 CURVE SMOOTH",
"135 30 OFFCURVE",
"100 16 OFFCURVE",
"52 16 CURVE SMOOTH",
"35 16 OFFCURVE",
"16 15 OFFCURVE",
"-13 17 CURVE",
"-26 20 OFFCURVE",
"-24 -2 OFFCURVE",
"-14 0 CURVE",
"146 0 LINE SMOOTH",
"209 0 OFFCURVE",
"275 10 OFFCURVE",
"319 5 CURVE SMOOTH",
"428 -8 OFFCURVE",
"487 -13 OFFCURVE",
"507 0 CURVE SMOOTH",
"555 30 OFFCURVE",
"584 142 OFFCURVE",
"597 171 CURVE SMOOTH"
);
}
);
width = 588;
}
);
note = L;
unicode = 004C;
},
{
color = 3;
glyphname = M;
lastChange = "2021-08-31 05:46:19 +0000";
layers = (
{
hints = (
{
horizontal = 1;
place = "{-3, 15}";
type = Stem;
},
{
horizontal = 1;
place = "{618, 16}";
type = Stem;
}
);
layerId = "C36B7B90-196F-45C3-8412-B02CF16DA361";
paths = (
{
closed = 1;
nodes = (
"983 617 OFFCURVE",
"955 615 OFFCURVE",
"929 616 CURVE SMOOTH",
"917 616 OFFCURVE",
"845 621 OFFCURVE",
"836 618 CURVE SMOOTH",
"813 610 OFFCURVE",
"800 574 OFFCURVE",
"755 497 CURVE SMOOTH",
"685 378 OFFCURVE",
"598 231 OFFCURVE",
"532 128 CURVE SMOOTH",
"525 117 OFFCURVE",
"517 117 OFFCURVE",
"514 127 CURVE SMOOTH",
"478 251 OFFCURVE",
"438 513 OFFCURVE",
"434 587 CURVE SMOOTH",
"431 632 OFFCURVE",
"435 620 OFFCURVE",
"333 616 CURVE SMOOTH",
"278 614 OFFCURVE",
"224 616 OFFCURVE",
"169 620 CURVE SMOOTH",
"159 620 OFFCURVE",
"147 604 OFFCURVE",
"159 604 CURVE SMOOTH",
"174 605 OFFCURVE",
"249 607 OFFCURVE",
"270 604 CURVE",
"281 601 OFFCURVE",
"301 589 OFFCURVE",
"296 564 CURVE SMOOTH",
"270 411 OFFCURVE",
"247 279 OFFCURVE",
"203 129 CURVE SMOOTH",
"166 1 OFFCURVE",
"137 16 OFFCURVE",
"13 17 CURVE",
"1 20 OFFCURVE",
"6 0 OFFCURVE",
"17 2 CURVE",
"84 -2 OFFCURVE",
"157 4 OFFCURVE",
"188 5 CURVE SMOOTH",
"253 8 OFFCURVE",
"316 0 OFFCURVE",
"336 0 CURVE SMOOTH",
"347 0 OFFCURVE",
"359 17 OFFCURVE",
"346 16 CURVE SMOOTH",
"331 15 OFFCURVE",
"306 16 OFFCURVE",
"287 20 CURVE SMOOTH",
"274 22 OFFCURVE",
"256 34 OFFCURVE",
"259 60 CURVE SMOOTH",
"268 136 OFFCURVE",
"317 379 OFFCURVE",
"343 483 CURVE",
"380 333 OFFCURVE",
"421 123 OFFCURVE",
"432 44 CURVE SMOOTH",
"436 16 OFFCURVE",
"428 -4 OFFCURVE",
"447 -4 CURVE SMOOTH",
"462 -3 OFFCURVE",
"483 15 OFFCURVE",
"506 30 CURVE SMOOTH",
"523 42 OFFCURVE",
"539 49 OFFCURVE",
"544 53 CURVE",
"558 61 OFFCURVE",
"561 64 OFFCURVE",
"558 74 CURVE SMOOTH",
"557 80 OFFCURVE",
"559 92 OFFCURVE",
"565 104 CURVE SMOOTH",
"594 160 OFFCURVE",
"732 370 OFFCURVE",
"813 481 CURVE",
"793 363 OFFCURVE",
"770 249 OFFCURVE",
"739 129 CURVE SMOOTH",
"706 1 OFFCURVE",
"683 11 OFFCURVE",
"597 14 CURVE",
"585 18 OFFCURVE",
"585 -3 OFFCURVE",
"597 -3 CURVE SMOOTH",
"671 0 OFFCURVE",
"697 -1 OFFCURVE",
"729 0 CURVE SMOOTH",
"799 3 OFFCURVE",
"896 0 OFFCURVE",
"959 0 CURVE SMOOTH",
"970 0 OFFCURVE",
"982 17 OFFCURVE",
"969 16 CURVE SMOOTH",
"955 15 OFFCURVE",
"881 16 OFFCURVE",
"861 20 CURVE SMOOTH",
"849 22 OFFCURVE",
"829 30 OFFCURVE",
"830 56 CURVE SMOOTH",
"836 143 OFFCURVE",
"899 452 OFFCURVE",
"919 517 CURVE SMOOTH",
"940 584 OFFCURVE",
"949 609 OFFCURVE",
"997 608 CURVE SMOOTH",
"1015 608 OFFCURVE",
"1037 606 OFFCURVE",
"1067 605 CURVE",
"1079 602 OFFCURVE",
"1078 624 OFFCURVE",
"1067 622 CURVE"
);
}
);
width = 972;
}
);
note = M;
unicode = 004D;
},
{
color = 3;
glyphname = N;
lastChange = "2021-08-31 05:46:19 +0000";
layers = (
{
hints = (
{
horizontal = 1;
place = "{-23, 16}";
type = Stem;
},
{
horizontal = 1;
place = "{2, 15}";
type = Stem;
},
{
horizontal = 1;
place = "{619, 16}";
type = Stem;
}
);
layerId = "C36B7B90-196F-45C3-8412-B02CF16DA361";
paths = (
{
closed = 1;
nodes = (
"877 620 OFFCURVE",
"798 619 OFFCURVE",
"768 618 CURVE SMOOTH",
"702 615 OFFCURVE",
"621 621 OFFCURVE",
"601 621 CURVE SMOOTH",
"591 621 OFFCURVE",
"578 604 OFFCURVE",
"591 605 CURVE SMOOTH",
"621 606 OFFCURVE",
"703 601 OFFCURVE",
"698 555 CURVE SMOOTH",
"690 484 OFFCURVE",
"646 239 OFFCURVE",
"627 162 CURVE",
"590 217 OFFCURVE",
"424 519 OFFCURVE",
"395 592 CURVE SMOOTH",
"384 622 OFFCURVE",
"381 621 OFFCURVE",
"360 620 CURVE SMOOTH",
"342 618 OFFCURVE",
"327 615 OFFCURVE",
"297 616 CURVE SMOOTH",
"243 616 OFFCURVE",
"183 620 OFFCURVE",
"140 620 CURVE SMOOTH",
"131 620 OFFCURVE",
"118 603 OFFCURVE",
"130 603 CURVE SMOOTH",
"145 604 OFFCURVE",
"220 602 OFFCURVE",
"241 599 CURVE SMOOTH",
"259 596 OFFCURVE",
"275 574 OFFCURVE",
"271 548 CURVE SMOOTH",
"247 403 OFFCURVE",
"223 274 OFFCURVE",
"181 129 CURVE SMOOTH",
"145 5 OFFCURVE",
"115 16 OFFCURVE",
"-9 17 CURVE",
"-21 20 OFFCURVE",
"-16 0 OFFCURVE",
"-6 2 CURVE",
"62 -2 OFFCURVE",
"135 4 OFFCURVE",
"166 5 CURVE SMOOTH",
"230 8 OFFCURVE",
"352 0 OFFCURVE",
"373 0 CURVE SMOOTH",
"383 0 OFFCURVE",
"396 16 OFFCURVE",
"383 16 CURVE SMOOTH",
"341 16 OFFCURVE",
"305 17 OFFCURVE",
"283 19 CURVE SMOOTH",
"271 20 OFFCURVE",
"234 34 OFFCURVE",
"237 60 CURVE SMOOTH",
"246 136 OFFCURVE",
"312 455 OFFCURVE",
"325 507 CURVE",
"373 408 OFFCURVE",
"527 144 OFFCURVE",
"600 -15 CURVE SMOOTH",
"606 -29 OFFCURVE",
"642 18 OFFCURVE",
"660 33 CURVE SMOOTH",
"679 49 OFFCURVE",
"691 81 OFFCURVE",
"675 110 CURVE",
"685 172 OFFCURVE",
"730 406 OFFCURVE",
"752 490 CURVE SMOOTH",
"778 591 OFFCURVE",
"782 604 OFFCURVE",
"932 602 CURVE",
"940 601 OFFCURVE",
"954 621 OFFCURVE",
"943 620 CURVE"
);
}
);
width = 768;
}
);
note = N;
unicode = 004E;
},
{
color = 3;
glyphname = Eng;
lastChange = "2021-08-31 05:46:19 +0000";
layers = (
{
hints = (
{
horizontal = 1;
place = "{-23, 16}";
type = Stem;
},
{
horizontal = 1;
place = "{2, 15}";
type = Stem;
},
{
horizontal = 1;
place = "{619, 16}";
type = Stem;
},
{
horizontal = 1;
place = "{-233, 14}";
type = Stem;
},
{
horizontal = 1;
place = "{456, 13}";
type = Stem;
},
{
place = "{462, 66}";
type = Stem;
},
{
place = "{612, 22}";
type = Stem;
},
{
horizontal = 1;
place = "{456, 65}";
type = Stem;
},
{
horizontal = 1;
place = "{-211, 13}";
type = Stem;
},
{
place = "{543, 9}";
type = Stem;
},
{
horizontal = 1;
place = "{-230, 11}";
type = Stem;
}
);
layerId = "C36B7B90-196F-45C3-8412-B02CF16DA361";
paths = (
{
closed = 1;
nodes = (
"877 620 OFFCURVE",
"798 619 OFFCURVE",
"768 618 CURVE SMOOTH",
"702 615 OFFCURVE",
"621 621 OFFCURVE",
"601 621 CURVE SMOOTH",
"591 621 OFFCURVE",
"578 604 OFFCURVE",
"591 605 CURVE SMOOTH",
"621 606 OFFCURVE",
"703 601 OFFCURVE",
"698 555 CURVE SMOOTH",
"690 484 OFFCURVE",
"646 239 OFFCURVE",
"627 162 CURVE",
"590 217 OFFCURVE",
"424 519 OFFCURVE",
"395 592 CURVE SMOOTH",
"384 622 OFFCURVE",
"381 621 OFFCURVE",
"360 620 CURVE SMOOTH",
"342 618 OFFCURVE",
"327 615 OFFCURVE",
"297 616 CURVE SMOOTH",
"243 616 OFFCURVE",
"183 620 OFFCURVE",
"140 620 CURVE SMOOTH",
"131 620 OFFCURVE",
"118 603 OFFCURVE",
"130 603 CURVE SMOOTH",
"145 604 OFFCURVE",
"220 602 OFFCURVE",
"241 599 CURVE SMOOTH",
"259 596 OFFCURVE",
"275 574 OFFCURVE",
"271 548 CURVE SMOOTH",
"247 403 OFFCURVE",
"223 274 OFFCURVE",
"181 129 CURVE SMOOTH",
"145 5 OFFCURVE",
"115 16 OFFCURVE",
"-9 17 CURVE",
"-21 20 OFFCURVE",
"-16 0 OFFCURVE",
"-6 2 CURVE",
"62 -2 OFFCURVE",
"135 4 OFFCURVE",
"166 5 CURVE SMOOTH",
"230 8 OFFCURVE",
"352 0 OFFCURVE",
"373 0 CURVE SMOOTH",
"383 0 OFFCURVE",
"396 16 OFFCURVE",
"383 16 CURVE SMOOTH",
"341 16 OFFCURVE",
"305 17 OFFCURVE",
"283 19 CURVE SMOOTH",
"271 20 OFFCURVE",
"234 34 OFFCURVE",
"237 60 CURVE SMOOTH",
"246 136 OFFCURVE",
"312 455 OFFCURVE",
"325 507 CURVE",
"370 415 OFFCURVE",
"505 181 OFFCURVE",
"583 21 CURVE",
"566 -82 OFFCURVE",
"548 -200 OFFCURVE",
"535 -249 CURVE SMOOTH",
"517 -315 OFFCURVE",
"462 -328 OFFCURVE",
"434 -331 CURVE SMOOTH",
"402 -334 LINE",
"403 -346 LINE",
"419 -348 OFFCURVE",
"471 -345 OFFCURVE",
"489 -339 CURVE SMOOTH",
"569 -312 OFFCURVE",
"610 -271 OFFCURVE",
"627 -172 CURVE SMOOTH",
"678 131 OFFCURVE",
"709 325 OFFCURVE",
"752 490 CURVE SMOOTH",
"778 591 OFFCURVE",
"782 604 OFFCURVE",
"932 602 CURVE",
"940 601 OFFCURVE",
"954 621 OFFCURVE",
"943 620 CURVE"
);
},
{
closed = 1;
nodes = (
"330 -211 OFFCURVE",
"325 -221 OFFCURVE",
"317 -232 CURVE SMOOTH",
"309 -243 OFFCURVE",
"299 -255 OFFCURVE",
"290 -267 CURVE SMOOTH",
"276 -284 OFFCURVE",
"263 -302 OFFCURVE",
"255 -317 CURVE SMOOTH",
"247 -335 OFFCURVE",
"254 -341 OFFCURVE",
"271 -347 CURVE SMOOTH",
"317 -364 OFFCURVE",
"353 -372 OFFCURVE",
"425 -365 CURVE",
"424 -354 LINE",
"323 -356 OFFCURVE",
"290 -291 OFFCURVE",
"342 -215 CURVE",
"333 -199 LINE"
);
}
);
width = 771;
}
);
unicode = 014A;
},
{
color = 3;
glyphname = O;
lastChange = "2021-08-31 05:46:19 +0000";
layers = (
{
hints = (
{
horizontal = 1;
place = "{-20, 77}";
type = Stem;
},
{
horizontal = 1;
place = "{577, 77}";
type = Stem;
},
{
place = "{4, 87}";
type = Stem;
},
{
place = "{588, 86}";
type = Stem;
}
);
layerId = "C36B7B90-196F-45C3-8412-B02CF16DA361";
paths = (
{
closed = 1;
nodes = (
"615 596 OFFCURVE",
"511 639 OFFCURVE",
"406 639 CURVE SMOOTH",
"320 639 OFFCURVE",
"236 600 OFFCURVE",
"168 540 CURVE SMOOTH",
"47 431 OFFCURVE",
"-14 253 OFFCURVE",
"42 130 CURVE SMOOTH",
"91 24 OFFCURVE",
"194 -20 OFFCURVE",
"300 -20 CURVE SMOOTH",
"386 -20 OFFCURVE",
"470 20 OFFCURVE",
"537 80 CURVE SMOOTH",
"659 188 OFFCURVE",
"720 368 OFFCURVE",
"664 490 CURVE SMOOTH"
);
},
{
closed = 1;
nodes = (
"656 383 OFFCURVE",
"601 187 OFFCURVE",
"515 114 CURVE SMOOTH",
"430 41 OFFCURVE",
"290 32 OFFCURVE",
"188 127 CURVE SMOOTH",
"55 249 OFFCURVE",
"110 445 OFFCURVE",
"196 518 CURVE SMOOTH",
"282 592 OFFCURVE",
"421 600 OFFCURVE",
"523 506 CURVE SMOOTH"
);
}
);
width = 675;
}
);
note = O;
unicode = 004F;
},
{
color = 3;
glyphname = Oslash;
lastChange = "2021-08-31 05:46:19 +0000";
layers = (
{
hints = (
{
horizontal = 1;
place = "{-20, 77}";
type = Stem;
},
{
horizontal = 1;
place = "{575, 64}";
type = Stem;
},
{
place = "{21, 87}";
type = Stem;
},
{
place = "{603, 82}";
type = Stem;
},
{
horizontal = 1;
place = "{-46, 20}";
type = Stem;
}
);
layerId = "C36B7B90-196F-45C3-8412-B02CF16DA361";
paths = (
{
closed = 1;
nodes = (
"615 596 OFFCURVE",
"511 639 OFFCURVE",
"406 639 CURVE SMOOTH",
"319 639 OFFCURVE",
"236 600 OFFCURVE",
"168 540 CURVE SMOOTH",
"47 431 OFFCURVE",
"-14 252 OFFCURVE",
"42 130 CURVE SMOOTH",
"91 24 OFFCURVE",
"194 -20 OFFCURVE",
"300 -20 CURVE SMOOTH",
"386 -20 OFFCURVE",
"470 20 OFFCURVE",
"537 80 CURVE SMOOTH",
"659 188 OFFCURVE",
"720 368 OFFCURVE",
"664 490 CURVE SMOOTH"
);
},
{
closed = 1;
nodes = (
"656 383 OFFCURVE",
"601 187 OFFCURVE",
"515 114 CURVE SMOOTH",
"430 41 OFFCURVE",
"290 32 OFFCURVE",
"188 127 CURVE SMOOTH",
"55 249 OFFCURVE",
"110 445 OFFCURVE",
"196 518 CURVE SMOOTH",
"282 592 OFFCURVE",
"421 600 OFFCURVE",
"523 505 CURVE SMOOTH"
);
},
{
closed = 1;
nodes = (
"633 681 OFFCURVE",
"566 667 OFFCURVE",
"559 654 CURVE",
"82 -37 LINE SMOOTH",
"70 -55 OFFCURVE",
"137 -41 OFFCURVE",
"144 -28 CURVE",
"284 179 OFFCURVE",
"588 618 OFFCURVE",
"621 663 CURVE SMOOTH"
);
}
);
width = 675;
}
);
note = Oslash;
unicode = 00D8;
},
{
color = 3;
glyphname = OE;
lastChange = "2021-08-31 07:19:28 +0000";
layers = (
{
background = {
hints = (
{
horizontal = 1;
place = "{-20, 77}";
type = Stem;
},
{
horizontal = 1;
place = "{577, 77}";
type = Stem;
},
{
place = "{4, 87}";
type = Stem;
},
{
place = "{588, 86}";
type = Stem;
},
{
horizontal = 1;
place = "{3, 29}";
type = Stem;
},
{
horizontal = 1;
place = "{315, 25}";
type = Stem;
},
{
horizontal = 1;
place = "{617, 13}";
type = Stem;
},
{
place = "{1249, 15}";
type = Stem;
}
);
paths = (
{
closed = 1;
nodes = (
"585 596 OFFCURVE",
"481 639 OFFCURVE",
"376 639 CURVE SMOOTH",
"290 639 OFFCURVE",
"206 600 OFFCURVE",
"138 540 CURVE SMOOTH",
"17 431 OFFCURVE",
"-44 253 OFFCURVE",
"12 130 CURVE SMOOTH",
"61 24 OFFCURVE",
"164 -20 OFFCURVE",
"270 -20 CURVE SMOOTH",
"356 -20 OFFCURVE",
"440 20 OFFCURVE",
"507 80 CURVE SMOOTH",
"629 188 OFFCURVE",
"690 368 OFFCURVE",
"634 490 CURVE SMOOTH"
);
},
{
closed = 1;
nodes = (
"626 383 OFFCURVE",
"571 187 OFFCURVE",
"485 114 CURVE SMOOTH",
"400 41 OFFCURVE",
"260 32 OFFCURVE",
"158 127 CURVE SMOOTH",
"25 249 OFFCURVE",
"80 445 OFFCURVE",
"166 518 CURVE SMOOTH",
"252 592 OFFCURVE",
"391 600 OFFCURVE",
"493 506 CURVE SMOOTH"
);
},
{
closed = 1;
nodes = (
"943 608 OFFCURVE",
"934 625 OFFCURVE",
"890 623 CURVE SMOOTH",
"797 618 OFFCURVE",
"723 617 OFFCURVE",
"631 616 CURVE SMOOTH",
"569 615 OFFCURVE",
"503 619 OFFCURVE",
"431 620 CURVE SMOOTH",
"428 620 OFFCURVE",
"412 619 OFFCURVE",
"412 619 CURVE",
"402 603 LINE",
"402 603 OFFCURVE",
"418 603 OFFCURVE",
"424 603 CURVE SMOOTH",
"451 603 OFFCURVE",
"505 602 OFFCURVE",
"521 599 CURVE SMOOTH",
"563 592 OFFCURVE",
"552 529 OFFCURVE",
"548 498 CURVE SMOOTH",
"545 467 OFFCURVE",
"536 405 OFFCURVE",
"521 332 CURVE",
"512 331 OFFCURVE",
"502 331 OFFCURVE",
"498 329 CURVE",
"481 325 OFFCURVE",
"435 302 OFFCURVE",
"485 306 CURVE SMOOTH",
"494 307 OFFCURVE",
"507 307 OFFCURVE",
"517 308 CURVE",
"505 250 OFFCURVE",
"489 187 OFFCURVE",
"472 129 CURVE SMOOTH",
"433 2 OFFCURVE",
"440 14 OFFCURVE",
"291 17 CURVE SMOOTH",
"284 17 OFFCURVE",
"270 -2 OFFCURVE",
"280 0 CURVE",
"345 -1 OFFCURVE",
"426 2 OFFCURVE",
"455 3 CURVE SMOOTH",
"521 6 OFFCURVE",
"561 8 OFFCURVE",
"623 3 CURVE SMOOTH",
"741 -6 OFFCURVE",
"799 -12 OFFCURVE",
"818 0 CURVE SMOOTH",
"867 31 OFFCURVE",
"898 146 OFFCURVE",
"912 176 CURVE",
"902 183 LINE",
"858 96 OFFCURVE",
"778 31 OFFCURVE",
"678 31 CURVE SMOOTH",
"577 31 OFFCURVE",
"567 63 OFFCURVE",
"574 110 CURVE SMOOTH",
"585 189 OFFCURVE",
"594 248 OFFCURVE",
"605 308 CURVE",
"636 308 OFFCURVE",
"673 307 OFFCURVE",
"730 306 CURVE SMOOTH",
"757 306 OFFCURVE",
"782 303 OFFCURVE",
"806 315 CURVE SMOOTH",
"824 323 OFFCURVE",
"855 342 OFFCURVE",
"866 362 CURVE SMOOTH",
"870 368 OFFCURVE",
"869 372 OFFCURVE",
"863 368 CURVE SMOOTH",
"851 359 OFFCURVE",
"789 348 OFFCURVE",
"743 346 CURVE SMOOTH",
"694 344 OFFCURVE",
"650 341 OFFCURVE",
"611 339 CURVE",
"620 386 OFFCURVE",
"631 435 OFFCURVE",
"646 495 CURVE SMOOTH",
"671 596 OFFCURVE",
"739 582 OFFCURVE",
"826 584 CURVE SMOOTH",
"880 584 OFFCURVE",
"915 541 OFFCURVE",
"905 453 CURVE SMOOTH",
"905 450 OFFCURVE",
"903 435 OFFCURVE",
"903 435 CURVE",
"917 426 LINE",
"917 426 OFFCURVE",
"919 442 OFFCURVE",
"920 446 CURVE SMOOTH",
"925 491 OFFCURVE",
"926 515 OFFCURVE",
"934 559 CURVE SMOOTH"
);
}
);
};
hints = (
{
horizontal = 1;
place = "{-14, 65}";
type = Stem;
},
{
horizontal = 1;
place = "{266, 35}";
type = Stem;
},
{
horizontal = 1;
place = "{507, 34}";
type = Stem;
},
{
place = "{-1, 73}";
type = Stem;
},
{
place = "{766, 13}";
type = Stem;
}
);
layerId = "C36B7B90-196F-45C3-8412-B02CF16DA361";
paths = (
{
closed = 1;
nodes = (
"936 185 OFFCURVE",
"927 193 OFFCURVE",
"925 186 CURVE SMOOTH",
"885 97 OFFCURVE",
"809 34 OFFCURVE",
"707 34 CURVE SMOOTH",
"603 34 OFFCURVE",
"579 67 OFFCURVE",
"584 116 CURVE SMOOTH",
"590 196 OFFCURVE",
"605 257 OFFCURVE",
"612 318 CURVE",
"643 317 OFFCURVE",
"682 316 OFFCURVE",
"741 316 CURVE SMOOTH",
"768 316 OFFCURVE",
"794 314 OFFCURVE",
"817 325 CURVE SMOOTH",
"835 334 OFFCURVE",
"867 352 OFFCURVE",
"876 374 CURVE SMOOTH",
"879 381 OFFCURVE",
"879 384 OFFCURVE",
"872 380 CURVE SMOOTH",
"861 370 OFFCURVE",
"797 359 OFFCURVE",
"750 357 CURVE SMOOTH",
"701 355 OFFCURVE",
"656 352 OFFCURVE",
"616 350 CURVE",
"622 398 OFFCURVE",
"630 449 OFFCURVE",
"641 509 CURVE SMOOTH",
"658 613 OFFCURVE",
"729 600 OFFCURVE",
"819 601 CURVE SMOOTH",
"876 601 OFFCURVE",
"915 553 OFFCURVE",
"909 457 CURVE SMOOTH",
"908 441 OFFCURVE",
"923 438 OFFCURVE",
"923 448 CURVE SMOOTH",
"927 503 OFFCURVE",
"926 527 OFFCURVE",
"932 575 CURVE SMOOTH",
"936 626 OFFCURVE",
"927 642 OFFCURVE",
"882 640 CURVE SMOOTH",
"787 635 OFFCURVE",
"711 635 OFFCURVE",
"617 634 CURVE SMOOTH",
"575 633 OFFCURVE",
"529 634 OFFCURVE",
"482 635 CURVE",
"445 648 OFFCURVE",
"406 654 OFFCURVE",
"366 654 CURVE SMOOTH",
"280 654 OFFCURVE",
"198 614 OFFCURVE",
"133 553 CURVE SMOOTH",
"17 443 OFFCURVE",
"-32 262 OFFCURVE",
"34 138 CURVE SMOOTH",
"92 30 OFFCURVE",
"199 -14 OFFCURVE",
"306 -14 CURVE SMOOTH",
"340 -14 OFFCURVE",
"373 -8 OFFCURVE",
"404 2 CURVE",
"436 4 OFFCURVE",
"462 5 OFFCURVE",
"477 5 CURVE SMOOTH",
"544 7 OFFCURVE",
"589 11 OFFCURVE",
"653 6 CURVE SMOOTH",
"774 -3 OFFCURVE",
"834 -10 OFFCURVE",
"853 2 CURVE SMOOTH",
"901 34 OFFCURVE",
"922 147 OFFCURVE",
"934 178 CURVE SMOOTH"
);
},
{
closed = 1;
nodes = (
"542 475 OFFCURVE",
"526 382 OFFCURVE",
"521 343 CURVE",
"512 342 OFFCURVE",
"502 341 OFFCURVE",
"497 341 CURVE",
"479 335 OFFCURVE",
"435 312 OFFCURVE",
"486 316 CURVE SMOOTH",
"495 317 OFFCURVE",
"508 317 OFFCURVE",
"517 318 CURVE",
"511 275 OFFCURVE",
"474 67 OFFCURVE",
"471 58 CURVE",
"391 11 OFFCURVE",
"277 51 OFFCURVE",
"184 132 CURVE SMOOTH",
"42 253 OFFCURVE",
"77 454 OFFCURVE",
"158 527 CURVE SMOOTH",
"238 600 OFFCURVE",
"385 580 OFFCURVE",
"428 568 CURVE SMOOTH",
"494 550 OFFCURVE",
"537 526 OFFCURVE",
"544 506 CURVE"
);
}
);
width = 919;
}
);
note = OE;
unicode = 0152;
},
{
color = 3;
glyphname = P;
lastChange = "2021-08-31 05:46:19 +0000";
layers = (
{
hints = (
{
horizontal = 1;
place = "{0, 16}";
type = Stem;
},
{
horizontal = 1;
place = "{225, 16}";
type = Stem;
},
{
horizontal = 1;
place = "{617, 13}";
type = Stem;
},
{
place = "{555, 127}";
type = Stem;
}
);
layerId = "C36B7B90-196F-45C3-8412-B02CF16DA361";
paths = (
{
closed = 1;
nodes = (
"715 575 OFFCURVE",
"642 631 OFFCURVE",
"559 634 CURVE SMOOTH",
"496 637 OFFCURVE",
"425 617 OFFCURVE",
"383 616 CURVE SMOOTH",
"372 616 OFFCURVE",
"377 616 OFFCURVE",
"365 616 CURVE SMOOTH",
"302 616 OFFCURVE",
"222 620 OFFCURVE",
"167 620 CURVE SMOOTH",
"157 620 OFFCURVE",
"144 603 OFFCURVE",
"157 603 CURVE SMOOTH",
"171 604 OFFCURVE",
"247 602 OFFCURVE",
"267 599 CURVE SMOOTH",
"284 596 OFFCURVE",
"302 574 OFFCURVE",
"298 548 CURVE SMOOTH",
"273 403 OFFCURVE",
"249 274 OFFCURVE",
"208 129 CURVE SMOOTH",
"171 1 OFFCURVE",
"176 15 OFFCURVE",
"28 17 CURVE",
"20 18 OFFCURVE",
"6 -2 OFFCURVE",
"17 0 CURVE",
"81 -1 OFFCURVE",
"162 3 OFFCURVE",
"192 3 CURVE SMOOTH",
"235 4 OFFCURVE",
"293 1 OFFCURVE",
"445 -2 CURVE",
"455 -4 OFFCURVE",
"468 18 OFFCURVE",
"459 17 CURVE SMOOTH",
"430 14 OFFCURVE",
"387 14 OFFCURVE",
"363 18 CURVE SMOOTH",
"335 21 OFFCURVE",
"314 43 OFFCURVE",
"312 73 CURVE SMOOTH",
"308 119 OFFCURVE",
"322 203 OFFCURVE",
"325 220 CURVE SMOOTH",
"358 398 OFFCURVE",
"380 471 OFFCURVE",
"389 496 CURVE SMOOTH",
"414 561 OFFCURVE",
"438 609 OFFCURVE",
"499 609 CURVE SMOOTH",
"558 609 OFFCURVE",
"591 553 OFFCURVE",
"586 479 CURVE SMOOTH",
"578 356 OFFCURVE",
"501 243 OFFCURVE",
"415 236 CURVE SMOOTH",
"402 234 OFFCURVE",
"389 236 OFFCURVE",
"377 245 CURVE SMOOTH",
"369 252 OFFCURVE",
"363 263 OFFCURVE",
"354 273 CURVE SMOOTH",
"346 282 OFFCURVE",
"332 255 OFFCURVE",
"346 239 CURVE SMOOTH",
"357 226 OFFCURVE",
"403 205 OFFCURVE",
"494 239 CURVE SMOOTH",
"581 273 OFFCURVE",
"674 365 OFFCURVE",
"692 458 CURVE SMOOTH"
);
}
);
width = 673;
}
);
note = P;
unicode = 0050;
},
{
color = 3;
glyphname = Thorn;
lastChange = "2021-08-31 05:46:19 +0000";
layers = (
{
hints = (
{
horizontal = 1;
place = "{0, 16}";
type = Stem;
},
{
horizontal = 1;
place = "{225, 16}";
type = Stem;
},
{
horizontal = 1;
place = "{617, 13}";
type = Stem;
},
{
place = "{555, 127}";
type = Stem;
}
);
layerId = "C36B7B90-196F-45C3-8412-B02CF16DA361";
paths = (
{
closed = 1;
nodes = (
"708 544 OFFCURVE",
"635 600 OFFCURVE",
"552 603 CURVE SMOOTH",
"511 605 OFFCURVE",
"467 609 OFFCURVE",
"410 582 CURVE",
"425 642 OFFCURVE",
"459 747 OFFCURVE",
"445 757 CURVE SMOOTH",
"440 761 OFFCURVE",
"404 755 OFFCURVE",
"351 755 CURVE SMOOTH",
"328 755 OFFCURVE",
"248 759 OFFCURVE",
"193 759 CURVE SMOOTH",
"183 759 OFFCURVE",
"170 742 OFFCURVE",
"183 742 CURVE SMOOTH",
"197 743 OFFCURVE",
"273 741 OFFCURVE",
"293 738 CURVE SMOOTH",
"310 735 OFFCURVE",
"329 713 OFFCURVE",
"324 687 CURVE SMOOTH",
"292 511 OFFCURVE",
"242 243 OFFCURVE",
"208 129 CURVE SMOOTH",
"169 -1 OFFCURVE",
"176 15 OFFCURVE",
"28 17 CURVE",
"20 18 OFFCURVE",
"6 -2 OFFCURVE",
"17 0 CURVE",
"81 -1 OFFCURVE",
"162 3 OFFCURVE",
"192 3 CURVE SMOOTH",
"235 4 OFFCURVE",
"293 1 OFFCURVE",
"445 -2 CURVE",
"455 -4 OFFCURVE",
"468 18 OFFCURVE",
"459 17 CURVE SMOOTH",
"430 14 OFFCURVE",
"387 14 OFFCURVE",
"363 18 CURVE SMOOTH",
"335 21 OFFCURVE",
"314 43 OFFCURVE",
"312 73 CURVE SMOOTH",
"308 119 OFFCURVE",
"315 172 OFFCURVE",
"318 189 CURVE SMOOTH",
"351 367 OFFCURVE",
"373 440 OFFCURVE",
"382 465 CURVE SMOOTH",
"407 530 OFFCURVE",
"431 578 OFFCURVE",
"492 578 CURVE SMOOTH",
"551 578 OFFCURVE",
"584 522 OFFCURVE",
"579 448 CURVE SMOOTH",
"571 325 OFFCURVE",
"494 212 OFFCURVE",
"408 205 CURVE SMOOTH",
"395 203 OFFCURVE",
"382 205 OFFCURVE",
"370 214 CURVE SMOOTH",
"362 221 OFFCURVE",
"356 232 OFFCURVE",
"347 242 CURVE SMOOTH",
"339 251 OFFCURVE",
"325 224 OFFCURVE",
"339 208 CURVE SMOOTH",
"350 195 OFFCURVE",
"396 174 OFFCURVE",
"487 208 CURVE SMOOTH",
"574 242 OFFCURVE",
"667 334 OFFCURVE",
"685 427 CURVE SMOOTH"
);
}
);
width = 673;
}
);
unicode = 00DE;
},
{
color = 3;
glyphname = Q;
lastChange = "2021-08-31 05:46:19 +0000";
layers = (
{
hints = (
{
horizontal = 1;
place = "{-208, 16}";
type = Stem;
},
{
horizontal = 1;
place = "{575, 76}";
type = Stem;
},
{
place = "{-1, 86}";
type = Stem;
},
{
place = "{578, 87}";
type = Stem;
}
);
layerId = "C36B7B90-196F-45C3-8412-B02CF16DA361";
paths = (
{
closed = 1;
nodes = (
"604 593 OFFCURVE",
"502 636 OFFCURVE",
"397 636 CURVE SMOOTH",
"312 636 OFFCURVE",
"229 598 OFFCURVE",
"162 538 CURVE SMOOTH",
"41 430 OFFCURVE",
"-18 253 OFFCURVE",
"37 132 CURVE SMOOTH",
"71 60 OFFCURVE",
"130 17 OFFCURVE",
"197 -3 CURVE SMOOTH",
"227 -12 OFFCURVE",
"254 16 OFFCURVE",
"303 38 CURVE SMOOTH",
"337 52 OFFCURVE",
"329 56 OFFCURVE",
"310 59 CURVE SMOOTH",
"262 66 OFFCURVE",
"215 86 OFFCURVE",
"174 124 CURVE SMOOTH",
"110 183 OFFCURVE",
"90 259 OFFCURVE",
"95 330 CURVE SMOOTH",
"104 461 OFFCURVE",
"210 578 OFFCURVE",
"347 578 CURVE SMOOTH",
"493 578 OFFCURVE",
"609 458 OFFCURVE",
"599 316 CURVE SMOOTH",
"590 194 OFFCURVE",
"474 63 OFFCURVE",
"351 2 CURVE SMOOTH",
"322 -13 OFFCURVE",
"160 -72 OFFCURVE",
"132 -57 CURVE SMOOTH",
"120 -51 OFFCURVE",
"121 -61 OFFCURVE",
"130 -71 CURVE SMOOTH",
"174 -124 OFFCURVE",
"335 -265 OFFCURVE",
"469 -280 CURVE SMOOTH",
"516 -285 OFFCURVE",
"556 -255 OFFCURVE",
"574 -226 CURVE SMOOTH",
"580 -217 OFFCURVE",
"582 -203 OFFCURVE",
"606 -203 CURVE SMOOTH",
"627 -203 OFFCURVE",
"624 -187 OFFCURVE",
"613 -188 CURVE SMOOTH",
"603 -189 OFFCURVE",
"568 -197 OFFCURVE",
"520 -196 CURVE SMOOTH",
"441 -193 OFFCURVE",
"246 -127 OFFCURVE",
"164 -75 CURVE",
"239 -60 OFFCURVE",
"306 -44 OFFCURVE",
"368 -18 CURVE SMOOTH",
"555 60 OFFCURVE",
"744 289 OFFCURVE",
"653 488 CURVE SMOOTH"
);
}
);
width = 651;
}
);
note = Q;
unicode = 0051;
},
{
color = 3;
glyphname = R;
lastChange = "2021-08-31 05:46:19 +0000";
layers = (
{
hints = (
{
horizontal = 1;
place = "{0, 16}";
type = Stem;
},
{
horizontal = 1;
place = "{617, 13}";
type = Stem;
},
{
place = "{560, 127}";
type = Stem;
}
);
layerId = "C36B7B90-196F-45C3-8412-B02CF16DA361";
paths = (
{
closed = 1;
nodes = (
"747 -20 OFFCURVE",
"719 -9 OFFCURVE",
"700 3 CURVE SMOOTH",
"655 30 OFFCURVE",
"453 214 OFFCURVE",
"406 279 CURVE",
"426 276 OFFCURVE",
"455 279 OFFCURVE",
"503 294 CURVE SMOOTH",
"590 323 OFFCURVE",
"677 401 OFFCURVE",
"694 481 CURVE SMOOTH",
"716 580 OFFCURVE",
"648 631 OFFCURVE",
"564 634 CURVE SMOOTH",
"501 637 OFFCURVE",
"425 616 OFFCURVE",
"383 616 CURVE SMOOTH",
"365 616 LINE SMOOTH",
"302 616 OFFCURVE",
"222 620 OFFCURVE",
"167 620 CURVE SMOOTH",
"157 620 OFFCURVE",
"144 603 OFFCURVE",
"157 603 CURVE SMOOTH",
"171 604 OFFCURVE",
"247 602 OFFCURVE",
"267 599 CURVE SMOOTH",
"284 596 OFFCURVE",
"302 574 OFFCURVE",
"298 548 CURVE SMOOTH",
"273 403 OFFCURVE",
"249 274 OFFCURVE",
"208 129 CURVE SMOOTH",
"171 1 OFFCURVE",
"176 15 OFFCURVE",
"28 17 CURVE",
"20 18 OFFCURVE",
"6 -2 OFFCURVE",
"17 0 CURVE",
"81 -1 OFFCURVE",
"162 3 OFFCURVE",
"192 3 CURVE SMOOTH",
"236 3 OFFCURVE",
"290 1 OFFCURVE",
"450 -2 CURVE",
"460 -4 OFFCURVE",
"473 18 OFFCURVE",
"464 17 CURVE SMOOTH",
"436 14 OFFCURVE",
"392 14 OFFCURVE",
"368 18 CURVE SMOOTH",
"339 21 OFFCURVE",
"320 43 OFFCURVE",
"317 73 CURVE SMOOTH",
"312 119 OFFCURVE",
"327 203 OFFCURVE",
"330 220 CURVE SMOOTH",
"363 398 OFFCURVE",
"385 471 OFFCURVE",
"394 496 CURVE SMOOTH",
"419 561 OFFCURVE",
"444 609 OFFCURVE",
"504 609 CURVE SMOOTH",
"563 609 OFFCURVE",
"586 561 OFFCURVE",
"582 502 CURVE SMOOTH",
"577 432 OFFCURVE",
"504 283 OFFCURVE",
"423 292 CURVE SMOOTH",
"384 297 OFFCURVE",
"391 320 OFFCURVE",
"382 323 CURVE SMOOTH",
"372 326 OFFCURVE",
"357 303 OFFCURVE",
"374 293 CURVE SMOOTH",
"384 287 OFFCURVE",
"410 231 OFFCURVE",
"424 187 CURVE SMOOTH",
"452 104 OFFCURVE",
"535 -61 OFFCURVE",
"642 -63 CURVE SMOOTH",
"666 -63 OFFCURVE",
"691 -54 OFFCURVE",
"707 -43 CURVE SMOOTH",
"716 -37 OFFCURVE",
"723 -25 OFFCURVE",
"745 -35 CURVE SMOOTH",
"763 -44 OFFCURVE",
"768 -27 OFFCURVE",
"758 -23 CURVE SMOOTH"
);
}
);
width = 680;
}
);
note = R;
unicode = 0052;
},
{
color = 3;
glyphname = S;
lastChange = "2021-08-31 05:46:19 +0000";
layers = (
{
hints = (
{
horizontal = 1;
place = "{-17, 59}";
type = Stem;
},
{
horizontal = 1;
place = "{603, 51}";
type = Stem;
},
{
place = "{57, 133}";
type = Stem;
},
{
place = "{423, 117}";
type = Stem;
}
);
layerId = "C36B7B90-196F-45C3-8412-B02CF16DA361";
paths = (
{
closed = 1;
nodes = (
"490 706 OFFCURVE",
"120 598 OFFCURVE",
"107 420 CURVE SMOOTH",
"103 363 OFFCURVE",
"155 306 OFFCURVE",
"254 299 CURVE SMOOTH",
"336 294 OFFCURVE",
"434 291 OFFCURVE",
"428 202 CURVE SMOOTH",
"413 0 OFFCURVE",
"88 -26 OFFCURVE",
"108 209 CURVE SMOOTH",
"110 227 OFFCURVE",
"119 257 OFFCURVE",
"114 260 CURVE SMOOTH",
"102 267 OFFCURVE",
"100 243 OFFCURVE",
"94 228 CURVE SMOOTH",
"68 156 OFFCURVE",
"59 136 OFFCURVE",
"32 101 CURVE SMOOTH",
"11 75 OFFCURVE",
"47 35 OFFCURVE",
"60 18 CURVE SMOOTH",
"77 -5 OFFCURVE",
"109 -12 OFFCURVE",
"143 -12 CURVE SMOOTH",
"346 -12 OFFCURVE",
"524 134 OFFCURVE",
"534 273 CURVE SMOOTH",
"537 322 OFFCURVE",
"504 362 OFFCURVE",
"396 366 CURVE SMOOTH",
"361 368 OFFCURVE",
"211 364 OFFCURVE",
"218 456 CURVE SMOOTH",
"232 660 OFFCURVE",
"547 623 OFFCURVE",
"481 427 CURVE",
"472 411 OFFCURVE",
"480 395 OFFCURVE",
"492 418 CURVE SMOOTH",
"517 472 OFFCURVE",
"526 483 OFFCURVE",
"551 514 CURVE SMOOTH",
"575 543 OFFCURVE",
"579 558 OFFCURVE",
"557 595 CURVE SMOOTH"
);
}
);
width = 539;
}
);
note = S;
unicode = 0053;
},
{
color = 3;
glyphname = Germandbls;
lastChange = "2021-08-31 05:46:19 +0000";
layers = (
{
background = {
hints = (
{
horizontal = 1;
place = "{-5, 62}";
type = Stem;
},
{
place = "{138, 67}";
type = Stem;
},
{
place = "{830, 85}";
type = Stem;
}
);
paths = (
{
closed = 1;
nodes = (
"912 899 OFFCURVE",
"904 902 OFFCURVE",
"888 902 CURVE SMOOTH",
"844 904 OFFCURVE",
"810 901 OFFCURVE",
"750 874 CURVE",
"753 866 LINE",
"841 896 OFFCURVE",
"887 849 OFFCURVE",
"864 768 CURVE",
"876 757 LINE",
"875 768 OFFCURVE",
"877 778 OFFCURVE",
"881 790 CURVE SMOOTH",
"884 801 OFFCURVE",
"889 815 OFFCURVE",
"894 828 CURVE SMOOTH",
"901 847 OFFCURVE",
"908 866 OFFCURVE",
"910 881 CURVE SMOOTH"
);
},
{
closed = 1;
nodes = (
"872 305 OFFCURVE",
"825 347 OFFCURVE",
"786 374 CURVE SMOOTH",
"759 391 OFFCURVE",
"731 409 OFFCURVE",
"701 422 CURVE",
"767 450 OFFCURVE",
"780 461 OFFCURVE",
"831 512 CURVE SMOOTH",
"943 623 OFFCURVE",
"801 757 OFFCURVE",
"651 784 CURVE",
"690 868 OFFCURVE",
"721 886 OFFCURVE",
"811 906 CURVE",
"808 914 LINE",
"787 910 OFFCURVE",
"721 894 OFFCURVE",
"685 869 CURVE SMOOTH",
"645 841 OFFCURVE",
"613 818 OFFCURVE",
"586 790 CURVE",
"561 791 OFFCURVE",
"535 789 OFFCURVE",
"509 786 CURVE",
"540 889 OFFCURVE",
"556 966 OFFCURVE",
"552 995 CURVE SMOOTH",
"550 1005 OFFCURVE",
"535 1003 OFFCURVE",
"536 993 CURVE SMOOTH",
"540 972 OFFCURVE",
"519 893 OFFCURVE",
"484 783 CURVE",
"400 769 OFFCURVE",
"320 739 OFFCURVE",
"264 697 CURVE SMOOTH",
"165 623 OFFCURVE",
"99 517 OFFCURVE",
"165 404 CURVE SMOOTH",
"170 394 OFFCURVE",
"183 386 OFFCURVE",
"198 390 CURVE",
"198 390 OFFCURVE",
"280 424 OFFCURVE",
"309 435 CURVE",
"306 443 LINE",
"283 436 OFFCURVE",
"264 428 OFFCURVE",
"242 446 CURVE SMOOTH",
"231 456 OFFCURVE",
"217 481 OFFCURVE",
"210 509 CURVE SMOOTH",
"192 582 OFFCURVE",
"223 641 OFFCURVE",
"274 682 CURVE SMOOTH",
"325 723 OFFCURVE",
"398 745 OFFCURVE",
"473 748 CURVE",
"453 687 OFFCURVE",
"429 619 OFFCURVE",
"403 548 CURVE",
"340 511 LINE",
"355 495 OFFCURVE",
"365 482 OFFCURVE",
"374 468 CURVE",
"364 442 OFFCURVE",
"354 415 OFFCURVE",
"343 388 CURVE",
"286 355 LINE",
"299 341 OFFCURVE",
"308 329 OFFCURVE",
"316 317 CURVE",
"281 230 OFFCURVE",
"245 144 OFFCURVE",
"210 66 CURVE",
"168 69 OFFCURVE",
"136 70 OFFCURVE",
"122 67 CURVE SMOOTH",
"61 54 OFFCURVE",
"-9 -28 OFFCURVE",
"-38 -50 CURVE",
"-33 -59 LINE",
"44 -1 OFFCURVE",
"104 5 OFFCURVE",
"180 2 CURVE",
"144 -73 OFFCURVE",
"110 -137 OFFCURVE",
"80 -182 CURVE SMOOTH",
"74 -191 OFFCURVE",
"87 -199 OFFCURVE",
"93 -191 CURVE SMOOTH",
"126 -141 OFFCURVE",
"162 -75 OFFCURVE",
"199 1 CURVE",
"229 -1 OFFCURVE",
"260 -4 OFFCURVE",
"296 -5 CURVE SMOOTH",
"372 -8 OFFCURVE",
"489 -13 OFFCURVE",
"561 -12 CURVE SMOOTH",
"703 -9 OFFCURVE",
"991 81 OFFCURVE",
"896 261 CURVE SMOOTH"
);
},
{
closed = 1;
nodes = (
"540 727 OFFCURVE",
"530 707 OFFCURVE",
"522 684 CURVE SMOOTH",
"499 621 OFFCURVE",
"480 557 OFFCURVE",
"459 491 CURVE",
"457 495 OFFCURVE",
"454 499 OFFCURVE",
"452 504 CURVE",
"444 517 OFFCURVE",
"436 529 OFFCURVE",
"426 541 CURVE",
"453 615 OFFCURVE",
"477 685 OFFCURVE",
"497 748 CURVE",
"515 748 OFFCURVE",
"533 747 OFFCURVE",
"551 744 CURVE"
);
},
{
closed = 1;
nodes = (
"889 62 OFFCURVE",
"737 60 OFFCURVE",
"633 51 CURVE SMOOTH",
"581 47 OFFCURVE",
"468 53 OFFCURVE",
"360 57 CURVE SMOOTH",
"326 59 OFFCURVE",
"293 61 OFFCURVE",
"261 63 CURVE",
"290 85 OFFCURVE",
"336 118 OFFCURVE",
"349 119 CURVE SMOOTH",
"394 123 OFFCURVE",
"437 170 OFFCURVE",
"451 213 CURVE SMOOTH",
"515 410 OFFCURVE",
"550 535 OFFCURVE",
"627 727 CURVE",
"775 675 OFFCURVE",
"887 510 OFFCURVE",
"691 428 CURVE",
"695 424 LINE",
"680 429 OFFCURVE",
"664 434 OFFCURVE",
"648 435 CURVE",
"554 389 LINE",
"639 381 OFFCURVE",
"767 292 OFFCURVE",
"807 217 CURVE SMOOTH"
);
},
{
closed = 1;
nodes = (
"452 467 LINE",
"438 423 OFFCURVE",
"423 377 OFFCURVE",
"406 331 CURVE",
"404 336 OFFCURVE",
"401 342 OFFCURVE",
"397 347 CURVE",
"389 362 OFFCURVE",
"380 375 OFFCURVE",
"368 388 CURVE",
"375 406 OFFCURVE",
"382 423 OFFCURVE",
"389 441 CURVE",
"393 433 LINE"
);
},
{
closed = 1;
nodes = (
"399 312 LINE",
"385 273 OFFCURVE",
"369 234 OFFCURVE",
"352 193 CURVE SMOOTH",
"323 129 OFFCURVE",
"300 101 OFFCURVE",
"244 64 CURVE",
"230 65 LINE",
"264 137 OFFCURVE",
"298 214 OFFCURVE",
"330 293 CURVE",
"333 288 OFFCURVE",
"335 283 OFFCURVE",
"338 277 CURVE"
);
}
);
};
hints = (
{
horizontal = 1;
place = "{-6, 25}";
type = Stem;
},
{
horizontal = 1;
place = "{525, 18}";
type = Stem;
},
{
place = "{314, 89}";
type = Stem;
},
{
horizontal = 1;
place = "{-10, 46}";
type = Stem;
},
{
horizontal = 1;
place = "{210, 58}";
type = Stem;
},
{
horizontal = 1;
place = "{457, -20}";
target = down;
type = TopGhost;
},
{
place = "{193, 89}";
type = Stem;
}
);
layerId = "C36B7B90-196F-45C3-8412-B02CF16DA361";
paths = (
{
closed = 1;
nodes = (
"320 334 OFFCURVE",
"360 390 OFFCURVE",
"497 542 CURVE SMOOTH",
"585 639 OFFCURVE",
"474 678 OFFCURVE",
"362 678 CURVE SMOOTH",
"245 678 OFFCURVE",
"180 666 OFFCURVE",
"167 617 CURVE SMOOTH",
"149 550 OFFCURVE",
"140 510 OFFCURVE",
"131 466 CURVE SMOOTH",
"113 383 OFFCURVE",
"3 -118 OFFCURVE",
"-52 -155 CURVE SMOOTH",
"-65 -165 OFFCURVE",
"-62 -172 OFFCURVE",
"-49 -167 CURVE",
"-40 -165 OFFCURVE",
"-20 -157 OFFCURVE",
"-15 -155 CURVE SMOOTH",
"45 -137 OFFCURVE",
"59 -116 OFFCURVE",
"68 -78 CURVE SMOOTH",
"122 146 OFFCURVE",
"171 388 OFFCURVE",
"228 604 CURVE SMOOTH",
"235 628 OFFCURVE",
"289 648 OFFCURVE",
"341 650 CURVE SMOOTH",
"414 652 OFFCURVE",
"506 655 OFFCURVE",
"439 547 CURVE SMOOTH",
"395 476 OFFCURVE",
"354 439 OFFCURVE",
"327 416 CURVE SMOOTH",
"235 335 OFFCURVE",
"289 298 OFFCURVE",
"349 267 CURVE SMOOTH",
"439 221 OFFCURVE",
"484 171 OFFCURVE",
"455 108 CURVE SMOOTH",
"437 71 OFFCURVE",
"395 40 OFFCURVE",
"344 37 CURVE SMOOTH",
"265 32 OFFCURVE",
"228 106 OFFCURVE",
"246 180 CURVE",
"235 192 LINE",
"235 179 OFFCURVE",
"232 169 OFFCURVE",
"228 156 CURVE SMOOTH",
"223 143 OFFCURVE",
"205 91 OFFCURVE",
"199 76 CURVE SMOOTH",
"188 47 OFFCURVE",
"177 17 OFFCURVE",
"180 0 CURVE",
"183 -4 LINE",
"294 -17 OFFCURVE",
"389 -12 OFFCURVE",
"461 73 CURVE SMOOTH",
"518 140 OFFCURVE",
"536 219 OFFCURVE",
"499 246 CURVE SMOOTH",
"464 272 OFFCURVE",
"419 289 OFFCURVE",
"362 315 CURVE SMOOTH"
);
},
{
closed = 1;
nodes = (
"116 684 OFFCURVE",
"120 777 OFFCURVE",
"111 799 CURVE SMOOTH",
"107 807 OFFCURVE",
"93 803 OFFCURVE",
"95 795 CURVE SMOOTH",
"104 779 OFFCURVE",
"95 687 OFFCURVE",
"82 596 CURVE SMOOTH",
"75 545 OFFCURVE",
"65 489 OFFCURVE",
"53 430 CURVE",
"-1 391 LINE",
"17 381 OFFCURVE",
"29 373 OFFCURVE",
"41 364 CURVE",
"36 341 OFFCURVE",
"31 319 OFFCURVE",
"29 303 CURVE",
"-24 273 LINE",
"-19 267 OFFCURVE",
"7 245 OFFCURVE",
"14 237 CURVE",
"-4 165 OFFCURVE",
"-38 39 OFFCURVE",
"-57 -28 CURVE",
"-78 -91 OFFCURVE",
"-99 -147 OFFCURVE",
"-119 -186 CURVE SMOOTH",
"-123 -194 OFFCURVE",
"-109 -198 OFFCURVE",
"-105 -191 CURVE SMOOTH",
"-82 -147 OFFCURVE",
"-60 -91 OFFCURVE",
"-39 -26 CURVE SMOOTH",
"-20 34 OFFCURVE",
"16 155 OFFCURVE",
"32 221 CURVE",
"92 264 LINE",
"91 264 OFFCURVE",
"51 300 OFFCURVE",
"50 300 CURVE",
"54 315 OFFCURVE",
"60 344 OFFCURVE",
"64 359 CURVE",
"116 388 LINE",
"77 428 LINE",
"89 489 OFFCURVE",
"99 548 OFFCURVE",
"106 599 CURVE SMOOTH"
);
}
);
width = 551;
}
);
unicode = 1E9E;
},
{
color = 3;
glyphname = Schwa;
lastChange = "2021-08-31 06:00:24 +0000";
layers = (
{
hints = (
{
horizontal = 1;
place = "{-16, 89}";
type = Stem;
},
{
place = "{2, 83}";
type = Stem;
},
{
place = "{530, 46}";
type = Stem;
},
{
horizontal = 1;
place = "{651.58, -92.225}";
type = Stem;
},
{
place = "{626.108, -86.007}";
type = Stem;
},
{
place = "{126.526, -47.667}";
type = Stem;
}
);
layerId = "C36B7B90-196F-45C3-8412-B02CF16DA361";
paths = (
{
closed = 1;
nodes = (
"45 436 LINE",
"57 452 OFFCURVE",
"69 467 OFFCURVE",
"83 481 CURVE SMOOTH",
"138 534 OFFCURVE",
"225 568 OFFCURVE",
"295 568 CURVE SMOOTH",
"455 568 OFFCURVE",
"524 475 OFFCURVE",
"514 322 CURVE SMOOTH",
"503 152 OFFCURVE",
"352 43 OFFCURVE",
"207 43 CURVE SMOOTH",
"132 43 OFFCURVE",
"113 78 OFFCURVE",
"113 139 CURVE SMOOTH",
"113 170 OFFCURVE",
"122 238 OFFCURVE",
"170 278 CURVE SMOOTH",
"260 354 OFFCURVE",
"432 383 OFFCURVE",
"519 383 CURVE SMOOTH",
"578 383 OFFCURVE",
"548 411 OFFCURVE",
"530 424 CURVE",
"530 424 OFFCURVE",
"292 398 OFFCURVE",
"152 331 CURVE SMOOTH",
"33 274 OFFCURVE",
"30 188 OFFCURVE",
"30 129 CURVE SMOOTH",
"30 11 OFFCURVE",
"97 -23 OFFCURVE",
"180 -23 CURVE SMOOTH",
"367 -23 OFFCURVE",
"580 162 OFFCURVE",
"595 385 CURVE SMOOTH",
"598 424 OFFCURVE",
"592 463 OFFCURVE",
"579 497 CURVE SMOOTH",
"538 607 OFFCURVE",
"438 652 OFFCURVE",
"333 652 CURVE SMOOTH",
"292 652 OFFCURVE",
"249 646 OFFCURVE",
"209 635 CURVE SMOOTH",
"169 624 OFFCURVE",
"148 595 OFFCURVE",
"126 559 CURVE SMOOTH",
"105 525 OFFCURVE",
"38 450 OFFCURVE",
"38 450 CURVE"
);
}
);
width = 626;
}
);
unicode = 018F;
},
{
color = 3;
glyphname = T;
lastChange = "2021-08-31 06:54:25 +0000";
layers = (
{
hints = (
{
horizontal = 1;
place = "{3, 14}";
type = Stem;
},
{
horizontal = 1;
place = "{589, 40}";
type = Stem;
},
{
place = "{596, 15}";
type = Stem;
}
);
layerId = "C36B7B90-196F-45C3-8412-B02CF16DA361";
paths = (
{
closed = 1;
nodes = (
"650 608 OFFCURVE",
"642 625 OFFCURVE",
"598 623 CURVE SMOOTH",
"504 618 OFFCURVE",
"467 614 OFFCURVE",
"376 615 CURVE SMOOTH",
"301 616 OFFCURVE",
"229 621 OFFCURVE",
"184 625 CURVE SMOOTH",
"130 628 OFFCURVE",
"122 577 OFFCURVE",
"101 519 CURVE SMOOTH",
"89 487 OFFCURVE",
"81 458 OFFCURVE",
"75 442 CURVE SMOOTH",
"72 435 OFFCURVE",
"82 427 OFFCURVE",
"85 434 CURVE SMOOTH",
"121 522 OFFCURVE",
"170 577 OFFCURVE",
"250 577 CURVE SMOOTH",
"321 577 OFFCURVE",
"332 564 OFFCURVE",
"319 497 CURVE SMOOTH",
"297 374 OFFCURVE",
"272 250 OFFCURVE",
"239 130 CURVE SMOOTH",
"206 12 OFFCURVE",
"209 15 OFFCURVE",
"60 17 CURVE",
"53 18 OFFCURVE",
"39 -2 OFFCURVE",
"50 0 CURVE",
"114 -1 OFFCURVE",
"195 2 OFFCURVE",
"224 3 CURVE SMOOTH",
"290 6 OFFCURVE",
"437 0 OFFCURVE",
"502 0 CURVE SMOOTH",
"512 0 OFFCURVE",
"525 18 OFFCURVE",
"512 18 CURVE SMOOTH",
"482 16 OFFCURVE",
"381 19 OFFCURVE",
"361 22 CURVE SMOOTH",
"324 28 OFFCURVE",
"335 87 OFFCURVE",
"336 108 CURVE SMOOTH",
"337 147 OFFCURVE",
"402 499 OFFCURVE",
"415 514 CURVE SMOOTH",
"426 527 OFFCURVE",
"434 567 OFFCURVE",
"531 568 CURVE SMOOTH",
"588 568 OFFCURVE",
"624 538 OFFCURVE",
"611 444 CURVE SMOOTH",
"608 427 OFFCURVE",
"623 426 OFFCURVE",
"625 435 CURVE SMOOTH",
"632 488 OFFCURVE",
"632 512 OFFCURVE",
"641 559 CURVE SMOOTH"
);
}
);
width = 602;
}
);
note = T;
unicode = 0054;
},
{
color = 3;
glyphname = U;
lastChange = "2021-08-31 05:46:19 +0000";
layers = (
{
hints = (
{
horizontal = 1;
place = "{-16, 33}";
type = Stem;
},
{
horizontal = 1;
place = "{618, 17}";
type = Stem;
},
{
place = "{74, 97}";
type = Stem;
}
);
layerId = "C36B7B90-196F-45C3-8412-B02CF16DA361";
paths = (
{
closed = 1;
nodes = (
"725 620 OFFCURVE",
"645 618 OFFCURVE",
"615 618 CURVE SMOOTH",
"551 617 OFFCURVE",
"552 617 OFFCURVE",
"487 621 CURVE SMOOTH",
"478 621 OFFCURVE",
"465 605 OFFCURVE",
"477 605 CURVE SMOOTH",
"492 606 OFFCURVE",
"502 607 OFFCURVE",
"522 604 CURVE SMOOTH",
"534 601 OFFCURVE",
"553 589 OFFCURVE",
"549 564 CURVE SMOOTH",
"527 438 OFFCURVE",
"493 255 OFFCURVE",
"461 127 CURVE SMOOTH",
"443 55 OFFCURVE",
"382 19 OFFCURVE",
"325 17 CURVE",
"321 16 OFFCURVE",
"286 16 OFFCURVE",
"281 17 CURVE",
"219 19 OFFCURVE",
"164 64 OFFCURVE",
"178 145 CURVE SMOOTH",
"194 234 OFFCURVE",
"225 408 OFFCURVE",
"258 517 CURVE SMOOTH",
"283 599 OFFCURVE",
"300 607 OFFCURVE",
"379 604 CURVE",
"390 600 OFFCURVE",
"391 621 OFFCURVE",
"380 621 CURVE SMOOTH",
"337 618 OFFCURVE",
"289 618 OFFCURVE",
"267 617 CURVE SMOOTH",
"201 614 OFFCURVE",
"96 620 OFFCURVE",
"30 620 CURVE SMOOTH",
"20 620 OFFCURVE",
"7 603 OFFCURVE",
"20 603 CURVE SMOOTH",
"35 604 OFFCURVE",
"110 602 OFFCURVE",
"130 599 CURVE SMOOTH",
"148 596 OFFCURVE",
"165 574 OFFCURVE",
"161 548 CURVE SMOOTH",
"141 430 OFFCURVE",
"116 312 OFFCURVE",
"90 194 CURVE SMOOTH",
"55 37 OFFCURVE",
"163 -14 OFFCURVE",
"277 -16 CURVE SMOOTH",
"281 -16 OFFCURVE",
"315 -16 OFFCURVE",
"319 -16 CURVE SMOOTH",
"446 -14 OFFCURVE",
"534 16 OFFCURVE",
"566 145 CURVE SMOOTH",
"578 190 OFFCURVE",
"582 237 OFFCURVE",
"589 278 CURVE SMOOTH",
"605 356 OFFCURVE",
"624 442 OFFCURVE",
"637 490 CURVE SMOOTH",
"663 591 OFFCURVE",
"689 604 OFFCURVE",
"779 602 CURVE",
"786 601 OFFCURVE",
"800 621 OFFCURVE",
"790 620 CURVE"
);
}
);
width = 687;
}
);
note = U;
unicode = 0055;
},
{
color = 11;
glyphname = Uhorn;
lastChange = "2021-08-31 07:24:35 +0000";
layers = (
{
hints = (
{
horizontal = 1;
place = "{-16, 33}";
type = Stem;
},
{
horizontal = 1;
place = "{618, 17}";
type = Stem;
},
{
place = "{74, 97}";
type = Stem;
}
);
layerId = "C36B7B90-196F-45C3-8412-B02CF16DA361";
paths = (
{
closed = 1;
nodes = (
"752 728 OFFCURVE",
"757 708 OFFCURVE",
"759 703 CURVE SMOOTH",
"763 694 OFFCURVE",
"767 683 OFFCURVE",
"767 664 CURVE SMOOTH",
"767 646 OFFCURVE",
"759 630 OFFCURVE",
"739 625 CURVE SMOOTH",
"721 621 OFFCURVE",
"691 621 OFFCURVE",
"676 621 CURVE SMOOTH",
"650 621 OFFCURVE",
"517 619 OFFCURVE",
"487 621 CURVE SMOOTH",
"478 621 OFFCURVE",
"465 605 OFFCURVE",
"477 605 CURVE SMOOTH",
"492 606 OFFCURVE",
"502 607 OFFCURVE",
"522 604 CURVE SMOOTH",
"534 601 OFFCURVE",
"553 589 OFFCURVE",
"549 564 CURVE SMOOTH",
"527 438 OFFCURVE",
"493 255 OFFCURVE",
"461 127 CURVE SMOOTH",
"443 55 OFFCURVE",
"382 19 OFFCURVE",
"325 17 CURVE",
"321 16 OFFCURVE",
"286 16 OFFCURVE",
"281 17 CURVE",
"219 19 OFFCURVE",
"164 64 OFFCURVE",
"178 145 CURVE SMOOTH",
"194 234 OFFCURVE",
"225 408 OFFCURVE",
"258 517 CURVE SMOOTH",
"283 599 OFFCURVE",
"300 607 OFFCURVE",
"379 604 CURVE",
"390 600 OFFCURVE",
"391 621 OFFCURVE",
"380 621 CURVE SMOOTH",
"337 618 OFFCURVE",
"289 618 OFFCURVE",
"267 617 CURVE SMOOTH",
"201 614 OFFCURVE",
"96 620 OFFCURVE",
"30 620 CURVE SMOOTH",
"20 620 OFFCURVE",
"7 603 OFFCURVE",
"20 603 CURVE SMOOTH",
"35 604 OFFCURVE",
"110 602 OFFCURVE",
"130 599 CURVE SMOOTH",
"148 596 OFFCURVE",
"165 574 OFFCURVE",
"161 548 CURVE SMOOTH",
"141 430 OFFCURVE",
"116 312 OFFCURVE",
"90 194 CURVE SMOOTH",
"55 37 OFFCURVE",
"163 -16 OFFCURVE",
"277 -16 CURVE SMOOTH",
"319 -16 LINE SMOOTH",
"446 -16 OFFCURVE",
"534 16 OFFCURVE",
"566 145 CURVE SMOOTH",
"578 190 OFFCURVE",
"582 237 OFFCURVE",
"589 278 CURVE SMOOTH",
"605 356 OFFCURVE",
"624 442 OFFCURVE",
"635 485 CURVE SMOOTH",
"659 576 OFFCURVE",
"681 589 OFFCURVE",
"694 597 CURVE",
"739 589 OFFCURVE",
"800 604 OFFCURVE",
"800 660 CURVE SMOOTH",
"800 686 OFFCURVE",
"785 728 OFFCURVE",
"766 728 CURVE SMOOTH"
);
}
);
width = 725;
}
);
unicode = 01AF;
},
{
color = 3;
glyphname = V;
lastChange = "2021-08-31 05:46:19 +0000";
layers = (
{
hints = (
{
horizontal = 1;
place = "{-20, 16}";
type = Stem;
},
{
horizontal = 1;
place = "{619, 16}";
type = Stem;
}
);
layerId = "C36B7B90-196F-45C3-8412-B02CF16DA361";
paths = (
{
closed = 1;
nodes = (
"727 620 OFFCURVE",
"665 616 OFFCURVE",
"628 617 CURVE SMOOTH",
"598 617 OFFCURVE",
"562 619 OFFCURVE",
"495 621 CURVE",
"485 623 OFFCURVE",
"467 601 OFFCURVE",
"482 605 CURVE",
"530 607 OFFCURVE",
"610 611 OFFCURVE",
"548 489 CURVE SMOOTH",
"490 372 OFFCURVE",
"408 213 OFFCURVE",
"345 110 CURVE SMOOTH",
"329 84 OFFCURVE",
"320 87 OFFCURVE",
"316 110 CURVE SMOOTH",
"298 219 OFFCURVE",
"265 488 OFFCURVE",
"264 562 CURVE SMOOTH",
"264 607 OFFCURVE",
"340 604 OFFCURVE",
"368 603 CURVE SMOOTH",
"380 602 OFFCURVE",
"385 619 OFFCURVE",
"376 619 CURVE SMOOTH",
"310 615 OFFCURVE",
"235 614 OFFCURVE",
"170 617 CURVE SMOOTH",
"140 618 OFFCURVE",
"124 617 OFFCURVE",
"56 620 CURVE SMOOTH",
"45 620 OFFCURVE",
"31 603 OFFCURVE",
"45 603 CURVE SMOOTH",
"78 604 OFFCURVE",
"145 618 OFFCURVE",
"169 489 CURVE SMOOTH",
"197 339 OFFCURVE",
"211 177 OFFCURVE",
"224 25 CURVE SMOOTH",
"226 -3 OFFCURVE",
"219 -24 OFFCURVE",
"234 -24 CURVE SMOOTH",
"259 -23 OFFCURVE",
"289 14 OFFCURVE",
"323 27 CURVE SMOOTH",
"386 52 OFFCURVE",
"354 49 OFFCURVE",
"371 80 CURVE SMOOTH",
"412 149 OFFCURVE",
"578 447 OFFCURVE",
"641 534 CURVE SMOOTH",
"700 614 OFFCURVE",
"756 601 OFFCURVE",
"770 602 CURVE",
"778 601 OFFCURVE",
"792 621 OFFCURVE",
"781 620 CURVE SMOOTH"
);
}
);
width = 559;
}
);
note = V;
unicode = 0056;
},
{
color = 3;
glyphname = W;
lastChange = "2021-08-31 05:46:19 +0000";
layers = (
{
hints = (
{
horizontal = 1;
place = "{-20, 16}";
type = Stem;
},
{
horizontal = 1;
place = "{614, 15}";
type = Stem;
},
{
place = "{515, 96}";
type = Stem;
}
);
layerId = "C36B7B90-196F-45C3-8412-B02CF16DA361";
paths = (
{
closed = 1;
nodes = (
"1098 620 OFFCURVE",
"1036 616 OFFCURVE",
"999 617 CURVE SMOOTH",
"970 617 OFFCURVE",
"913 620 OFFCURVE",
"845 615 CURVE",
"835 617 OFFCURVE",
"817 595 OFFCURVE",
"832 599 CURVE",
"880 601 OFFCURVE",
"992 618 OFFCURVE",
"920 489 CURVE SMOOTH",
"854 371 OFFCURVE",
"781 216 OFFCURVE",
"718 113 CURVE SMOOTH",
"701 87 OFFCURVE",
"692 90 OFFCURVE",
"688 114 CURVE SMOOTH",
"670 222 OFFCURVE",
"637 465 OFFCURVE",
"636 540 CURVE SMOOTH",
"635 585 OFFCURVE",
"732 597 OFFCURVE",
"765 602 CURVE SMOOTH",
"773 603 OFFCURVE",
"781 617 OFFCURVE",
"773 617 CURVE SMOOTH",
"708 613 OFFCURVE",
"602 611 OFFCURVE",
"537 614 CURVE SMOOTH",
"507 615 OFFCURVE",
"504 617 OFFCURVE",
"435 619 CURVE",
"425 621 OFFCURVE",
"422 599 OFFCURVE",
"434 602 CURVE",
"508 600 OFFCURVE",
"524 571 OFFCURVE",
"534 514 CURVE SMOOTH",
"539 491 OFFCURVE",
"543 478 OFFCURVE",
"520 437 CURVE SMOOTH",
"462 329 OFFCURVE",
"401 202 OFFCURVE",
"346 113 CURVE SMOOTH",
"330 87 OFFCURVE",
"321 90 OFFCURVE",
"317 114 CURVE SMOOTH",
"299 222 OFFCURVE",
"265 488 OFFCURVE",
"264 562 CURVE SMOOTH",
"264 607 OFFCURVE",
"340 604 OFFCURVE",
"368 603 CURVE SMOOTH",
"380 602 OFFCURVE",
"385 619 OFFCURVE",
"376 619 CURVE SMOOTH",
"310 615 OFFCURVE",
"235 614 OFFCURVE",
"170 617 CURVE SMOOTH",
"140 618 OFFCURVE",
"124 617 OFFCURVE",
"56 620 CURVE SMOOTH",
"45 620 OFFCURVE",
"31 603 OFFCURVE",
"45 603 CURVE SMOOTH",
"78 604 OFFCURVE",
"145 618 OFFCURVE",
"169 489 CURVE SMOOTH",
"197 339 OFFCURVE",
"212 181 OFFCURVE",
"224 29 CURVE SMOOTH",
"226 0 OFFCURVE",
"220 -20 OFFCURVE",
"235 -20 CURVE SMOOTH",
"259 -19 OFFCURVE",
"290 17 OFFCURVE",
"323 30 CURVE SMOOTH",
"387 55 OFFCURVE",
"357 53 OFFCURVE",
"372 84 CURVE SMOOTH",
"396 133 OFFCURVE",
"485 287 OFFCURVE",
"556 399 CURVE",
"575 277 OFFCURVE",
"587 151 OFFCURVE",
"596 29 CURVE SMOOTH",
"599 0 OFFCURVE",
"591 -20 OFFCURVE",
"607 -20 CURVE SMOOTH",
"631 -19 OFFCURVE",
"661 17 OFFCURVE",
"694 30 CURVE SMOOTH",
"759 55 OFFCURVE",
"729 53 OFFCURVE",
"744 84 CURVE SMOOTH",
"776 150 OFFCURVE",
"949 447 OFFCURVE",
"1013 534 CURVE SMOOTH",
"1071 614 OFFCURVE",
"1127 601 OFFCURVE",
"1142 602 CURVE",
"1149 601 OFFCURVE",
"1163 621 OFFCURVE",
"1153 620 CURVE"
);
}
);
width = 991;
}
);
note = W;
unicode = 0057;
},
{
color = 3;
glyphname = X;
lastChange = "2021-08-31 05:46:19 +0000";
layers = (
{
hints = (
{
horizontal = 1;
place = "{2, 15}";
type = Stem;
},
{
horizontal = 1;
place = "{619, 12}";
type = Stem;
},
{
place = "{359, 85}";
type = Stem;
}
);
layerId = "C36B7B90-196F-45C3-8412-B02CF16DA361";
paths = (
{
closed = 1;
nodes = (
"757 620 OFFCURVE",
"695 616 OFFCURVE",
"658 617 CURVE SMOOTH",
"629 617 OFFCURVE",
"593 619 OFFCURVE",
"525 621 CURVE",
"517 623 OFFCURVE",
"498 604 OFFCURVE",
"513 605 CURVE SMOOTH",
"550 607 OFFCURVE",
"672 618 OFFCURVE",
"554 489 CURVE SMOOTH",
"517 448 OFFCURVE",
"480 408 OFFCURVE",
"443 368 CURVE",
"423 409 OFFCURVE",
"402 450 OFFCURVE",
"384 489 CURVE SMOOTH",
"325 618 OFFCURVE",
"418 607 OFFCURVE",
"461 605 CURVE",
"475 601 OFFCURVE",
"487 623 OFFCURVE",
"479 621 CURVE",
"417 619 OFFCURVE",
"295 615 OFFCURVE",
"269 616 CURVE SMOOTH",
"256 616 OFFCURVE",
"144 618 OFFCURVE",
"125 620 CURVE SMOOTH",
"115 620 OFFCURVE",
"104 601 OFFCURVE",
"114 602 CURVE SMOOTH",
"157 607 OFFCURVE",
"200 600 OFFCURVE",
"232 566 CURVE SMOOTH",
"257 538 OFFCURVE",
"321 411 OFFCURVE",
"376 293 CURVE",
"308 222 OFFCURVE",
"235 152 OFFCURVE",
"162 85 CURVE SMOOTH",
"77 5 OFFCURVE",
"31 18 OFFCURVE",
"17 17 CURVE SMOOTH",
"7 16 OFFCURVE",
"-7 2 OFFCURVE",
"3 2 CURVE SMOOTH",
"24 2 OFFCURVE",
"77 -2 OFFCURVE",
"128 0 CURVE SMOOTH",
"183 2 OFFCURVE",
"248 0 OFFCURVE",
"309 -2 CURVE",
"316 -4 OFFCURVE",
"334 19 OFFCURVE",
"319 15 CURVE",
"275 13 OFFCURVE",
"148 2 OFFCURVE",
"265 130 CURVE SMOOTH",
"306 175 OFFCURVE",
"351 219 OFFCURVE",
"390 261 CURVE",
"425 185 OFFCURVE",
"453 117 OFFCURVE",
"463 88 CURVE SMOOTH",
"484 25 OFFCURVE",
"444 18 OFFCURVE",
"393 13 CURVE",
"379 13 OFFCURVE",
"375 -6 OFFCURVE",
"383 -4 CURVE",
"445 0 OFFCURVE",
"533 -3 OFFCURVE",
"560 -2 CURVE SMOOTH",
"618 1 OFFCURVE",
"682 0 OFFCURVE",
"725 0 CURVE SMOOTH",
"735 0 OFFCURVE",
"747 17 OFFCURVE",
"736 17 CURVE SMOOTH",
"720 16 OFFCURVE",
"639 12 OFFCURVE",
"578 105 CURVE SMOOTH",
"532 175 OFFCURVE",
"496 255 OFFCURVE",
"457 335 CURVE",
"517 397 OFFCURVE",
"577 459 OFFCURVE",
"642 525 CURVE SMOOTH",
"691 575 OFFCURVE",
"748 598 OFFCURVE",
"772 602 CURVE SMOOTH",
"785 604 OFFCURVE",
"796 602 OFFCURVE",
"801 602 CURVE SMOOTH",
"808 601 OFFCURVE",
"822 621 OFFCURVE",
"812 620 CURVE"
);
}
);
width = 740;
}
);
note = X;
unicode = 0058;
},
{
color = 3;
glyphname = Y;
lastChange = "2021-08-31 05:46:19 +0000";
layers = (
{
hints = (
{
horizontal = 1;
place = "{3, 13}";
type = Stem;
},
{
horizontal = 1;
place = "{612, 12}";
type = Stem;
},
{
horizontal = 1;
place = "{626, 16}";
type = Stem;
}
);
layerId = "C36B7B90-196F-45C3-8412-B02CF16DA361";
paths = (
{
closed = 1;
nodes = (
"681 620 OFFCURVE",
"620 616 OFFCURVE",
"582 617 CURVE SMOOTH",
"553 617 OFFCURVE",
"516 619 OFFCURVE",
"449 621 CURVE",
"440 623 OFFCURVE",
"422 601 OFFCURVE",
"437 605 CURVE",
"484 607 OFFCURVE",
"575 617 OFFCURVE",
"503 489 CURVE SMOOTH",
"474 436 OFFCURVE",
"432 371 OFFCURVE",
"402 336 CURVE SMOOTH",
"392 325 OFFCURVE",
"374 304 OFFCURVE",
"369 349 CURVE SMOOTH",
"339 653 OFFCURVE",
"279 629 OFFCURVE",
"255 627 CURVE SMOOTH",
"190 621 OFFCURVE",
"125 613 OFFCURVE",
"59 610 CURVE SMOOTH",
"49 610 OFFCURVE",
"36 591 OFFCURVE",
"50 593 CURVE SMOOTH",
"137 605 OFFCURVE",
"186 600 OFFCURVE",
"229 522 CURVE SMOOTH",
"242 498 OFFCURVE",
"256 466 OFFCURVE",
"267 425 CURVE SMOOTH",
"277 390 OFFCURVE",
"293 332 OFFCURVE",
"297 270 CURVE SMOOTH",
"298 261 OFFCURVE",
"295 233 OFFCURVE",
"293 225 CURVE SMOOTH",
"287 193 OFFCURVE",
"277 161 OFFCURVE",
"268 129 CURVE SMOOTH",
"231 1 OFFCURVE",
"236 15 OFFCURVE",
"88 17 CURVE",
"80 18 OFFCURVE",
"66 -2 OFFCURVE",
"77 0 CURVE",
"141 -1 OFFCURVE",
"222 2 OFFCURVE",
"252 3 CURVE SMOOTH",
"318 6 OFFCURVE",
"422 0 OFFCURVE",
"487 0 CURVE SMOOTH",
"498 0 OFFCURVE",
"510 17 OFFCURVE",
"498 16 CURVE SMOOTH",
"483 15 OFFCURVE",
"408 17 OFFCURVE",
"387 20 CURVE SMOOTH",
"376 22 OFFCURVE",
"351 34 OFFCURVE",
"355 66 CURVE SMOOTH",
"358 101 OFFCURVE",
"363 152 OFFCURVE",
"381 224 CURVE SMOOTH",
"385 240 OFFCURVE",
"391 253 OFFCURVE",
"399 267 CURVE SMOOTH",
"452 354 OFFCURVE",
"539 466 OFFCURVE",
"586 526 CURVE SMOOTH",
"648 605 OFFCURVE",
"711 601 OFFCURVE",
"724 602 CURVE",
"732 601 OFFCURVE",
"746 621 OFFCURVE",
"735 620 CURVE SMOOTH"
);
}
);
width = 668;
}
);
note = Y;
unicode = 0059;
},
{
color = 3;
glyphname = Z;
lastChange = "2021-08-31 05:46:19 +0000";
layers = (
{
hints = (
{
horizontal = 1;
place = "{-10, 20}";
type = Stem;
},
{
horizontal = 1;
place = "{637, -20}";
target = down;
type = TopGhost;
},
{
place = "{121, 12}";
type = Stem;
}
);
layerId = "C36B7B90-196F-45C3-8412-B02CF16DA361";
paths = (
{
closed = 1;
nodes = (
"659 624 OFFCURVE",
"598 619 OFFCURVE",
"583 619 CURVE SMOOTH",
"477 617 OFFCURVE",
"312 619 OFFCURVE",
"222 623 CURVE SMOOTH",
"173 625 OFFCURVE",
"160 608 OFFCURVE",
"158 559 CURVE SMOOTH",
"155 512 OFFCURVE",
"149 488 OFFCURVE",
"144 435 CURVE",
"142 426 OFFCURVE",
"159 427 OFFCURVE",
"161 444 CURVE SMOOTH",
"171 538 OFFCURVE",
"221 584 OFFCURVE",
"283 584 CURVE SMOOTH",
"379 582 OFFCURVE",
"490 602 OFFCURVE",
"429 522 CURVE SMOOTH",
"161 170 LINE SMOOTH",
"88 74 OFFCURVE",
"58 52 OFFCURVE",
"29 29 CURVE SMOOTH",
"17 21 OFFCURVE",
"-12 -19 OFFCURVE",
"51 -8 CURVE SMOOTH",
"125 5 OFFCURVE",
"242 0 OFFCURVE",
"303 0 CURVE SMOOTH",
"422 0 OFFCURVE",
"489 -13 OFFCURVE",
"508 0 CURVE SMOOTH",
"555 30 OFFCURVE",
"576 142 OFFCURVE",
"588 171 CURVE SMOOTH",
"591 178 OFFCURVE",
"582 186 OFFCURVE",
"579 179 CURVE SMOOTH",
"540 92 OFFCURVE",
"468 31 OFFCURVE",
"367 31 CURVE SMOOTH",
"266 31 OFFCURVE",
"187 47 OFFCURVE",
"227 98 CURVE",
"227 98 OFFCURVE",
"407 373 OFFCURVE",
"563 533 CURVE SMOOTH",
"605 575 OFFCURVE",
"617 590 OFFCURVE",
"632 602 CURVE SMOOTH"
);
}
);
width = 588;
}
);
note = Z;
unicode = 005A;
},
{
color = 5;
glyphname = A.ss01;
lastChange = "2021-08-31 06:50:47 +0000";
layers = (
{
hints = (
{
horizontal = 1;
place = "{347, 17}";
type = Stem;
},
{
horizontal = 1;
place = "{762, 56}";
type = Stem;
},
{
place = "{58, 93}";
type = Stem;
},
{
place = "{206, 65}";
type = Stem;
},
{
place = "{954, 85}";
type = Stem;
}
);
layerId = "C36B7B90-196F-45C3-8412-B02CF16DA361";
paths = (
{
closed = 1;
nodes = (
"1234 273 LINE",
"1184 236 OFFCURVE",
"1114 148 OFFCURVE",
"1075 89 CURVE",
"990 231 OFFCURVE",
"1070 612 OFFCURVE",
"1151 786 CURVE",
"1074 736 LINE",
"1034 650 OFFCURVE",
"988 508 OFFCURVE",
"966 364 CURVE",
"948 365 OFFCURVE",
"929 366 OFFCURVE",
"911 367 CURVE",
"895 387 OFFCURVE",
"879 401 OFFCURVE",
"854 418 CURVE",
"784 373 LINE",
"772 373 OFFCURVE",
"761 373 OFFCURVE",
"749 374 CURVE",
"798 454 OFFCURVE",
"843 530 OFFCURVE",
"885 586 CURVE SMOOTH",
"933 650 OFFCURVE",
"967 701 OFFCURVE",
"1017 743 CURVE",
"1130 810 LINE",
"1124 820 LINE",
"1106 808 OFFCURVE",
"1073 795 OFFCURVE",
"1073 795 CURVE",
"1036 786 OFFCURVE",
"816 807 OFFCURVE",
"701 818 CURVE SMOOTH",
"575 829 OFFCURVE",
"431 809 OFFCURVE",
"340 751 CURVE SMOOTH",
"236 684 OFFCURVE",
"169 582 OFFCURVE",
"227 464 CURVE SMOOTH",
"232 454 OFFCURVE",
"237 447 OFFCURVE",
"252 450 CURVE",
"252 450 OFFCURVE",
"337 477 OFFCURVE",
"366 487 CURVE",
"364 495 LINE",
"341 489 OFFCURVE",
"321 483 OFFCURVE",
"301 502 CURVE SMOOTH",
"290 513 OFFCURVE",
"278 539 OFFCURVE",
"273 567 CURVE SMOOTH",
"260 642 OFFCURVE",
"295 698 OFFCURVE",
"349 735 CURVE SMOOTH",
"434 794 OFFCURVE",
"560 770 OFFCURVE",
"669 762 CURVE SMOOTH",
"722 758 OFFCURVE",
"893 723 OFFCURVE",
"970 727 CURVE",
"912 679 OFFCURVE",
"860 608 OFFCURVE",
"810 541 CURVE SMOOTH",
"762 476 OFFCURVE",
"728 425 OFFCURVE",
"695 374 CURVE",
"554 373 OFFCURVE",
"414 360 OFFCURVE",
"294 312 CURVE SMOOTH",
"33 210 OFFCURVE",
"-30 -65 OFFCURVE",
"196 -171 CURVE SMOOTH",
"244 -193 OFFCURVE",
"332 -212 OFFCURVE",
"366 -199 CURVE",
"366 -199 OFFCURVE",
"436 -163 OFFCURVE",
"477 -141 CURVE",
"471 -132 LINE",
"438 -147 OFFCURVE",
"409 -186 OFFCURVE",
"308 -149 CURVE SMOOTH",
"71 -64 OFFCURVE",
"120 194 OFFCURVE",
"337 299 CURVE SMOOTH",
"422 340 OFFCURVE",
"553 352 OFFCURVE",
"682 354 CURVE",
"652 307 OFFCURVE",
"622 259 OFFCURVE",
"582 200 CURVE SMOOTH",
"503 85 OFFCURVE",
"486 14 OFFCURVE",
"336 -10 CURVE",
"333 -19 LINE",
"492 -15 OFFCURVE",
"625 175 OFFCURVE",
"737 354 CURVE",
"759 354 OFFCURVE",
"781 353 OFFCURVE",
"803 353 CURVE",
"825 336 OFFCURVE",
"838 320 OFFCURVE",
"853 296 CURVE",
"927 343 LINE",
"923 349 LINE",
"938 348 OFFCURVE",
"951 348 OFFCURVE",
"964 347 CURVE",
"945 209 OFFCURVE",
"949 72 OFFCURVE",
"1005 -14 CURVE",
"1089 35 LINE",
"1097 96 OFFCURVE",
"1199 234 OFFCURVE",
"1241 264 CURVE"
);
},
{
closed = 1;
nodes = (
"352 9 LINE",
"259 0 OFFCURVE",
"230 57 OFFCURVE",
"277 130 CURVE",
"269 144 LINE",
"267 133 OFFCURVE",
"261 124 OFFCURVE",
"254 113 CURVE SMOOTH",
"247 103 OFFCURVE",
"238 91 OFFCURVE",
"229 79 CURVE SMOOTH",
"217 63 OFFCURVE",
"205 46 OFFCURVE",
"198 31 CURVE SMOOTH",
"191 15 OFFCURVE",
"197 10 OFFCURVE",
"212 5 CURVE SMOOTH",
"254 -7 OFFCURVE",
"287 -12 OFFCURVE",
"352 -1 CURVE"
);
}
);
width = 1195;
}
);
note = A;
},
{
color = 11;
glyphname = Aacute.ss01;
lastChange = "2021-08-31 06:50:47 +0000";
layers = (
{
hints = (
{
horizontal = 1;
place = "{-200, 39}";
type = Stem;
},
{
horizontal = 1;
place = "{-4, 15}";
type = Stem;
},
{
horizontal = 1;
place = "{356, 21}";
type = Stem;
},
{
horizontal = 1;
place = "{498, -20}";
target = down;
type = TopGhost;
},
{
horizontal = 1;
place = "{776, 47}";
type = Stem;
},
{
place = "{58, 93}";
type = Stem;
},
{
place = "{206, 64}";
type = Stem;
},
{
place = "{954, 85}";
type = Stem;
},
{
horizontal = 1;
place = "{351, 16}";
type = Stem;
},
{
horizontal = 1;
place = "{-196, 35}";
type = Stem;
},
{
horizontal = 1;
place = "{452, 40}";
type = Stem;
},
{
horizontal = 1;
place = "{-17, 9}";
type = Stem;
},
{
place = "{334, 17}";
type = Stem;
},
{
place = "{195, 60}";
type = Stem;
},
{
place = "{269, 8}";
type = Stem;
}
);
layerId = "C36B7B90-196F-45C3-8412-B02CF16DA361";
paths = (
{
closed = 1;
nodes = (
"1234 275 LINE",
"1184 239 OFFCURVE",
"1114 151 OFFCURVE",
"1075 91 CURVE",
"990 234 OFFCURVE",
"1070 614 OFFCURVE",
"1151 789 CURVE",
"1074 738 LINE",
"1034 653 OFFCURVE",
"988 510 OFFCURVE",
"966 367 CURVE",
"948 368 OFFCURVE",
"929 369 OFFCURVE",
"911 370 CURVE",
"895 390 OFFCURVE",
"879 404 OFFCURVE",
"854 421 CURVE",
"784 375 LINE",
"772 376 OFFCURVE",
"761 376 OFFCURVE",
"749 376 CURVE",
"798 456 OFFCURVE",
"843 533 OFFCURVE",
"885 588 CURVE SMOOTH",
"933 652 OFFCURVE",
"967 704 OFFCURVE",
"1017 745 CURVE",
"1130 813 LINE",
"1124 823 LINE",
"1106 810 OFFCURVE",
"1072 797 OFFCURVE",
"1072 797 CURVE",
"1036 788 OFFCURVE",
"816 810 OFFCURVE",
"701 820 CURVE SMOOTH",
"575 832 OFFCURVE",
"431 812 OFFCURVE",
"340 754 CURVE SMOOTH",
"236 687 OFFCURVE",
"169 585 OFFCURVE",
"227 467 CURVE SMOOTH",
"232 457 OFFCURVE",
"237 450 OFFCURVE",
"252 452 CURVE",
"252 452 OFFCURVE",
"337 480 OFFCURVE",
"366 489 CURVE",
"364 498 LINE",
"341 492 OFFCURVE",
"321 486 OFFCURVE",
"301 505 CURVE SMOOTH",
"290 516 OFFCURVE",
"278 542 OFFCURVE",
"273 570 CURVE SMOOTH",
"260 645 OFFCURVE",
"295 701 OFFCURVE",
"349 738 CURVE SMOOTH",
"434 797 OFFCURVE",
"560 773 OFFCURVE",
"669 764 CURVE SMOOTH",
"722 760 OFFCURVE",
"893 725 OFFCURVE",
"970 729 CURVE",
"912 681 OFFCURVE",
"860 611 OFFCURVE",
"810 543 CURVE SMOOTH",
"762 479 OFFCURVE",
"728 428 OFFCURVE",
"695 377 CURVE",
"554 376 OFFCURVE",
"414 362 OFFCURVE",
"294 315 CURVE SMOOTH",
"33 212 OFFCURVE",
"-30 -62 OFFCURVE",
"196 -168 CURVE SMOOTH",
"244 -191 OFFCURVE",
"332 -209 OFFCURVE",
"366 -196 CURVE",
"366 -196 OFFCURVE",
"436 -161 OFFCURVE",
"477 -139 CURVE",
"471 -129 LINE",
"438 -144 OFFCURVE",
"409 -183 OFFCURVE",
"308 -146 CURVE SMOOTH",
"71 -61 OFFCURVE",
"120 196 OFFCURVE",
"337 301 CURVE SMOOTH",
"422 343 OFFCURVE",
"553 355 OFFCURVE",
"682 356 CURVE",
"652 310 OFFCURVE",
"622 262 OFFCURVE",
"582 203 CURVE SMOOTH",
"503 87 OFFCURVE",
"486 17 OFFCURVE",
"336 -8 CURVE",
"333 -17 LINE",
"492 -12 OFFCURVE",
"625 177 OFFCURVE",
"737 357 CURVE",
"759 356 OFFCURVE",
"781 356 OFFCURVE",
"803 355 CURVE",
"825 338 OFFCURVE",
"838 322 OFFCURVE",
"853 298 CURVE",
"927 346 LINE",
"923 351 LINE",
"938 351 OFFCURVE",
"951 350 OFFCURVE",
"964 350 CURVE",
"945 212 OFFCURVE",
"949 74 OFFCURVE",
"1005 -11 CURVE",
"1089 38 LINE",
"1097 99 OFFCURVE",
"1199 236 OFFCURVE",
"1241 267 CURVE"
);
},
{
closed = 1;
nodes = (
"352 11 LINE",
"259 3 OFFCURVE",
"230 60 OFFCURVE",
"277 133 CURVE",
"269 146 LINE",
"267 135 OFFCURVE",
"261 126 OFFCURVE",
"254 116 CURVE SMOOTH",
"247 105 OFFCURVE",
"238 94 OFFCURVE",
"229 82 CURVE SMOOTH",
"217 65 OFFCURVE",
"205 48 OFFCURVE",
"198 34 CURVE SMOOTH",
"191 18 OFFCURVE",
"197 12 OFFCURVE",
"212 8 CURVE SMOOTH",
"254 -4 OFFCURVE",
"287 -9 OFFCURVE",
"352 2 CURVE"
);
},
{
closed = 1;
nodes = (
"1218 958 OFFCURVE",
"1179 977 OFFCURVE",
"1148 969 CURVE SMOOTH",
"1129 964 OFFCURVE",
"1086 919 OFFCURVE",
"1036 904 CURVE SMOOTH",
"1016 897 OFFCURVE",
"1034 890 OFFCURVE",
"1047 890 CURVE SMOOTH",
"1090 891 OFFCURVE",
"1171 921 OFFCURVE",
"1210 953 CURVE"
);
}
);
width = 771;
}
);
note = Aacute;
},
{
color = 11;
glyphname = Acircumflex.ss01;
lastChange = "2021-08-31 06:50:47 +0000";
layers = (
{
hints = (
{
horizontal = 1;
place = "{-200, 39}";
type = Stem;
},
{
horizontal = 1;
place = "{-4, 15}";
type = Stem;
},
{
horizontal = 1;
place = "{356, 21}";
type = Stem;
},
{
horizontal = 1;
place = "{498, -20}";
target = down;
type = TopGhost;
},
{
horizontal = 1;
place = "{776, 47}";
type = Stem;
},
{
place = "{58, 93}";
type = Stem;
},
{
place = "{206, 64}";
type = Stem;
},
{
place = "{954, 85}";
type = Stem;
},
{
horizontal = 1;
place = "{351, 16}";
type = Stem;
},
{
horizontal = 1;
place = "{-196, 35}";
type = Stem;
},
{
horizontal = 1;
place = "{452, 40}";
type = Stem;
},
{
horizontal = 1;
place = "{-17, 9}";
type = Stem;
},
{
place = "{334, 17}";
type = Stem;
},
{
place = "{195, 60}";
type = Stem;
},
{
place = "{269, 8}";
type = Stem;
}
);
layerId = "C36B7B90-196F-45C3-8412-B02CF16DA361";
paths = (
{
closed = 1;
nodes = (
"1234 275 LINE",
"1184 239 OFFCURVE",
"1114 151 OFFCURVE",
"1075 91 CURVE",
"990 234 OFFCURVE",
"1070 614 OFFCURVE",
"1151 789 CURVE",
"1074 738 LINE",
"1034 653 OFFCURVE",
"988 510 OFFCURVE",
"966 367 CURVE",
"948 368 OFFCURVE",
"929 369 OFFCURVE",
"911 370 CURVE",
"895 390 OFFCURVE",
"879 404 OFFCURVE",
"854 421 CURVE",
"784 375 LINE",
"772 376 OFFCURVE",
"761 376 OFFCURVE",
"749 376 CURVE",
"798 456 OFFCURVE",
"843 533 OFFCURVE",
"885 588 CURVE SMOOTH",
"933 652 OFFCURVE",
"967 704 OFFCURVE",
"1017 745 CURVE",
"1130 813 LINE",
"1124 823 LINE",
"1106 810 OFFCURVE",
"1072 797 OFFCURVE",
"1072 797 CURVE",
"1036 788 OFFCURVE",
"816 810 OFFCURVE",
"701 820 CURVE SMOOTH",
"575 832 OFFCURVE",
"431 812 OFFCURVE",
"340 754 CURVE SMOOTH",
"236 687 OFFCURVE",
"169 585 OFFCURVE",
"227 467 CURVE SMOOTH",
"232 457 OFFCURVE",
"237 450 OFFCURVE",
"252 452 CURVE",
"252 452 OFFCURVE",
"337 480 OFFCURVE",
"366 489 CURVE",
"364 498 LINE",
"341 492 OFFCURVE",
"321 486 OFFCURVE",
"301 505 CURVE SMOOTH",
"290 516 OFFCURVE",
"278 542 OFFCURVE",
"273 570 CURVE SMOOTH",
"260 645 OFFCURVE",
"295 701 OFFCURVE",
"349 738 CURVE SMOOTH",
"434 797 OFFCURVE",
"560 773 OFFCURVE",
"669 764 CURVE SMOOTH",
"722 760 OFFCURVE",
"893 725 OFFCURVE",
"970 729 CURVE",
"912 681 OFFCURVE",
"860 611 OFFCURVE",
"810 543 CURVE SMOOTH",
"762 479 OFFCURVE",
"728 428 OFFCURVE",
"695 377 CURVE",
"554 376 OFFCURVE",
"414 362 OFFCURVE",
"294 315 CURVE SMOOTH",
"33 212 OFFCURVE",
"-30 -62 OFFCURVE",
"196 -168 CURVE SMOOTH",
"244 -191 OFFCURVE",
"332 -209 OFFCURVE",
"366 -196 CURVE",
"366 -196 OFFCURVE",
"436 -161 OFFCURVE",
"477 -139 CURVE",
"471 -129 LINE",
"438 -144 OFFCURVE",
"409 -183 OFFCURVE",
"308 -146 CURVE SMOOTH",
"71 -61 OFFCURVE",
"120 196 OFFCURVE",
"337 301 CURVE SMOOTH",
"422 343 OFFCURVE",
"553 355 OFFCURVE",
"682 356 CURVE",
"652 310 OFFCURVE",
"622 262 OFFCURVE",
"582 203 CURVE SMOOTH",
"503 87 OFFCURVE",
"486 17 OFFCURVE",
"336 -8 CURVE",
"333 -17 LINE",
"492 -12 OFFCURVE",
"625 177 OFFCURVE",
"737 357 CURVE",
"759 356 OFFCURVE",
"781 356 OFFCURVE",
"803 355 CURVE",
"825 338 OFFCURVE",
"838 322 OFFCURVE",
"853 298 CURVE",
"927 346 LINE",
"923 351 LINE",
"938 351 OFFCURVE",
"951 350 OFFCURVE",
"964 350 CURVE",
"945 212 OFFCURVE",
"949 74 OFFCURVE",
"1005 -11 CURVE",
"1089 38 LINE",
"1097 99 OFFCURVE",
"1199 236 OFFCURVE",
"1241 267 CURVE"
);
},
{
closed = 1;
nodes = (
"352 11 LINE",
"259 3 OFFCURVE",
"230 60 OFFCURVE",
"277 133 CURVE",
"269 146 LINE",
"267 135 OFFCURVE",
"261 126 OFFCURVE",
"254 116 CURVE SMOOTH",
"247 105 OFFCURVE",
"238 94 OFFCURVE",
"229 82 CURVE SMOOTH",
"217 65 OFFCURVE",
"205 48 OFFCURVE",
"198 34 CURVE SMOOTH",
"191 18 OFFCURVE",
"197 12 OFFCURVE",
"212 8 CURVE SMOOTH",
"254 -4 OFFCURVE",
"287 -9 OFFCURVE",
"352 2 CURVE"
);
},
{
closed = 1;
nodes = (
"1192 930 OFFCURVE",
"1156 968 OFFCURVE",
"1138 1001 CURVE SMOOTH",
"1134 1008 OFFCURVE",
"1128 1005 OFFCURVE",
"1123 1000 CURVE SMOOTH",
"1090 969 OFFCURVE",
"1021 909 OFFCURVE",
"979 881 CURVE SMOOTH",
"947 860 OFFCURVE",
"990 874 OFFCURVE",
"1001 880 CURVE SMOOTH",
"1015 887 OFFCURVE",
"1074 928 OFFCURVE",
"1106 957 CURVE SMOOTH",
"1108 959 OFFCURVE",
"1111 959 OFFCURVE",
"1113 957 CURVE SMOOTH",
"1131 933 OFFCURVE",
"1161 896 OFFCURVE",
"1190 882 CURVE SMOOTH",
"1199 878 OFFCURVE",
"1247 894 OFFCURVE",
"1231 904 CURVE SMOOTH"
);
}
);
width = 1195;
}
);
note = Acircumflex;
},
{
color = 11;
glyphname = Adieresis.ss01;
lastChange = "2021-08-31 06:50:47 +0000";
layers = (
{
hints = (
{
horizontal = 1;
place = "{-200, 39}";
type = Stem;
},
{
horizontal = 1;
place = "{-4, 15}";
type = Stem;
},
{
horizontal = 1;
place = "{356, 21}";
type = Stem;
},
{
horizontal = 1;
place = "{498, -20}";
target = down;
type = TopGhost;
},
{
horizontal = 1;
place = "{776, 47}";
type = Stem;
},
{
horizontal = 1;
place = "{894, 65}";
type = Stem;
},
{
place = "{58, 93}";
type = Stem;
},
{
place = "{206, 64}";
type = Stem;
},
{
place = "{954, 85}";
type = Stem;
},
{
horizontal = 1;
place = "{351, 16}";
type = Stem;
},
{
horizontal = 1;
place = "{-196, 35}";
type = Stem;
},
{
horizontal = 1;
place = "{452, 40}";
type = Stem;
},
{
horizontal = 1;
place = "{-17, 9}";
type = Stem;
},
{
place = "{334, 17}";
type = Stem;
},
{
place = "{195, 60}";
type = Stem;
},
{
place = "{269, 8}";
type = Stem;
}
);
layerId = "C36B7B90-196F-45C3-8412-B02CF16DA361";
paths = (
{
closed = 1;
nodes = (
"1234 275 LINE",
"1184 239 OFFCURVE",
"1114 151 OFFCURVE",
"1075 91 CURVE",
"990 234 OFFCURVE",
"1070 614 OFFCURVE",
"1151 789 CURVE",
"1074 738 LINE",
"1034 653 OFFCURVE",
"988 510 OFFCURVE",
"966 367 CURVE",
"948 368 OFFCURVE",
"929 369 OFFCURVE",
"911 370 CURVE",
"895 390 OFFCURVE",
"879 404 OFFCURVE",
"854 421 CURVE",
"784 375 LINE",
"772 376 OFFCURVE",
"761 376 OFFCURVE",
"749 376 CURVE",
"798 456 OFFCURVE",
"843 533 OFFCURVE",
"885 588 CURVE SMOOTH",
"933 652 OFFCURVE",
"967 704 OFFCURVE",
"1017 745 CURVE",
"1130 813 LINE",
"1124 823 LINE",
"1106 810 OFFCURVE",
"1072 797 OFFCURVE",
"1072 797 CURVE",
"1036 788 OFFCURVE",
"816 810 OFFCURVE",
"701 820 CURVE SMOOTH",
"575 832 OFFCURVE",
"431 812 OFFCURVE",
"340 754 CURVE SMOOTH",
"236 687 OFFCURVE",
"169 585 OFFCURVE",
"227 467 CURVE SMOOTH",
"232 457 OFFCURVE",
"237 450 OFFCURVE",
"252 452 CURVE",
"252 452 OFFCURVE",
"337 480 OFFCURVE",
"366 489 CURVE",
"364 498 LINE",
"341 492 OFFCURVE",
"321 486 OFFCURVE",
"301 505 CURVE SMOOTH",
"290 516 OFFCURVE",
"278 542 OFFCURVE",
"273 570 CURVE SMOOTH",
"260 645 OFFCURVE",
"295 701 OFFCURVE",
"349 738 CURVE SMOOTH",
"434 797 OFFCURVE",
"560 773 OFFCURVE",
"669 764 CURVE SMOOTH",
"722 760 OFFCURVE",
"893 725 OFFCURVE",
"970 729 CURVE",
"912 681 OFFCURVE",
"860 611 OFFCURVE",
"810 543 CURVE SMOOTH",
"762 479 OFFCURVE",
"728 428 OFFCURVE",
"695 377 CURVE",
"554 376 OFFCURVE",
"414 362 OFFCURVE",
"294 315 CURVE SMOOTH",
"33 212 OFFCURVE",
"-30 -62 OFFCURVE",
"196 -168 CURVE SMOOTH",
"244 -191 OFFCURVE",
"332 -209 OFFCURVE",
"366 -196 CURVE",
"366 -196 OFFCURVE",
"436 -161 OFFCURVE",
"477 -139 CURVE",
"471 -129 LINE",
"438 -144 OFFCURVE",
"409 -183 OFFCURVE",
"308 -146 CURVE SMOOTH",
"71 -61 OFFCURVE",
"120 196 OFFCURVE",
"337 301 CURVE SMOOTH",
"422 343 OFFCURVE",
"553 355 OFFCURVE",
"682 356 CURVE",
"652 310 OFFCURVE",
"622 262 OFFCURVE",
"582 203 CURVE SMOOTH",
"503 87 OFFCURVE",
"486 17 OFFCURVE",
"336 -8 CURVE",
"333 -17 LINE",
"492 -12 OFFCURVE",
"625 177 OFFCURVE",
"737 357 CURVE",
"759 356 OFFCURVE",
"781 356 OFFCURVE",
"803 355 CURVE",
"825 338 OFFCURVE",
"838 322 OFFCURVE",
"853 298 CURVE",
"927 346 LINE",
"923 351 LINE",
"938 351 OFFCURVE",
"951 350 OFFCURVE",
"964 350 CURVE",
"945 212 OFFCURVE",
"949 74 OFFCURVE",
"1005 -11 CURVE",
"1089 38 LINE",
"1097 99 OFFCURVE",
"1199 236 OFFCURVE",
"1241 267 CURVE"
);
},
{
closed = 1;
nodes = (
"352 11 LINE",
"259 3 OFFCURVE",
"230 60 OFFCURVE",
"277 133 CURVE",
"269 146 LINE",
"267 135 OFFCURVE",
"261 126 OFFCURVE",
"254 116 CURVE SMOOTH",
"247 105 OFFCURVE",
"238 94 OFFCURVE",
"229 82 CURVE SMOOTH",
"217 65 OFFCURVE",
"205 48 OFFCURVE",
"198 34 CURVE SMOOTH",
"191 18 OFFCURVE",
"197 12 OFFCURVE",
"212 8 CURVE SMOOTH",
"254 -4 OFFCURVE",
"287 -9 OFFCURVE",
"352 2 CURVE"
);
},
{
closed = 1;
nodes = (
"1208 961 OFFCURVE",
"1208 964 OFFCURVE",
"1204 961 CURVE SMOOTH",
"1201 958 OFFCURVE",
"1196 957 OFFCURVE",
"1189 956 CURVE SMOOTH",
"1175 954 OFFCURVE",
"1164 959 OFFCURVE",
"1148 959 CURVE SMOOTH",
"1126 960 OFFCURVE",
"1109 937 OFFCURVE",
"1095 909 CURVE SMOOTH",
"1089 897 OFFCURVE",
"1098 892 OFFCURVE",
"1117 894 CURVE SMOOTH",
"1134 896 OFFCURVE",
"1150 889 OFFCURVE",
"1165 897 CURVE SMOOTH",
"1176 902 OFFCURVE",
"1201 940 OFFCURVE",
"1206 956 CURVE SMOOTH"
);
},
{
closed = 1;
nodes = (
"1060 961 OFFCURVE",
"1059 964 OFFCURVE",
"1056 961 CURVE SMOOTH",
"1053 958 OFFCURVE",
"1048 957 OFFCURVE",
"1040 956 CURVE SMOOTH",
"1027 954 OFFCURVE",
"1016 959 OFFCURVE",
"999 959 CURVE SMOOTH",
"978 960 OFFCURVE",
"961 937 OFFCURVE",
"947 909 CURVE SMOOTH",
"941 897 OFFCURVE",
"950 892 OFFCURVE",
"969 894 CURVE SMOOTH",
"985 896 OFFCURVE",
"1002 889 OFFCURVE",
"1017 897 CURVE SMOOTH",
"1027 902 OFFCURVE",
"1052 940 OFFCURVE",
"1058 956 CURVE SMOOTH"
);
}
);
width = 1195;
}
);
note = Adieresis;
},
{
color = 11;
glyphname = Agrave.ss01;
lastChange = "2021-08-31 06:50:47 +0000";
layers = (
{
hints = (
{
horizontal = 1;
place = "{-200, 39}";
type = Stem;
},
{
horizontal = 1;
place = "{-4, 15}";
type = Stem;
},
{
horizontal = 1;
place = "{356, 21}";
type = Stem;
},
{
horizontal = 1;
place = "{498, -20}";
target = down;
type = TopGhost;
},
{
horizontal = 1;
place = "{776, 47}";
type = Stem;
},
{
place = "{58, 93}";
type = Stem;
},
{
place = "{206, 64}";
type = Stem;
},
{
place = "{954, 85}";
type = Stem;
},
{
horizontal = 1;
place = "{351, 16}";
type = Stem;
},
{
horizontal = 1;
place = "{-196, 35}";
type = Stem;
},
{
horizontal = 1;
place = "{452, 40}";
type = Stem;
},
{
horizontal = 1;
place = "{-17, 9}";
type = Stem;
},
{
place = "{334, 17}";
type = Stem;
},
{
place = "{195, 60}";
type = Stem;
},
{
place = "{269, 8}";
type = Stem;
}
);
layerId = "C36B7B90-196F-45C3-8412-B02CF16DA361";
paths = (
{
closed = 1;
nodes = (
"1234 275 LINE",
"1184 239 OFFCURVE",
"1114 151 OFFCURVE",
"1075 91 CURVE",
"990 234 OFFCURVE",
"1070 614 OFFCURVE",
"1151 789 CURVE",
"1074 738 LINE",
"1034 653 OFFCURVE",
"988 510 OFFCURVE",
"966 367 CURVE",
"948 368 OFFCURVE",
"929 369 OFFCURVE",
"911 370 CURVE",
"895 390 OFFCURVE",
"879 404 OFFCURVE",
"854 421 CURVE",
"784 375 LINE",
"772 376 OFFCURVE",
"761 376 OFFCURVE",
"749 376 CURVE",
"798 456 OFFCURVE",
"843 533 OFFCURVE",
"885 588 CURVE SMOOTH",
"933 652 OFFCURVE",
"967 704 OFFCURVE",
"1017 745 CURVE",
"1130 813 LINE",
"1124 823 LINE",
"1106 810 OFFCURVE",
"1072 797 OFFCURVE",
"1072 797 CURVE",
"1036 788 OFFCURVE",
"816 810 OFFCURVE",
"701 820 CURVE SMOOTH",
"575 832 OFFCURVE",
"431 812 OFFCURVE",
"340 754 CURVE SMOOTH",
"236 687 OFFCURVE",
"169 585 OFFCURVE",
"227 467 CURVE SMOOTH",
"232 457 OFFCURVE",
"237 450 OFFCURVE",
"252 452 CURVE",
"252 452 OFFCURVE",
"337 480 OFFCURVE",
"366 489 CURVE",
"364 498 LINE",
"341 492 OFFCURVE",
"321 486 OFFCURVE",
"301 505 CURVE SMOOTH",
"290 516 OFFCURVE",
"278 542 OFFCURVE",
"273 570 CURVE SMOOTH",
"260 645 OFFCURVE",
"295 701 OFFCURVE",
"349 738 CURVE SMOOTH",
"434 797 OFFCURVE",
"560 773 OFFCURVE",
"669 764 CURVE SMOOTH",
"722 760 OFFCURVE",
"893 725 OFFCURVE",
"970 729 CURVE",
"912 681 OFFCURVE",
"860 611 OFFCURVE",
"810 543 CURVE SMOOTH",
"762 479 OFFCURVE",
"728 428 OFFCURVE",
"695 377 CURVE",
"554 376 OFFCURVE",
"414 362 OFFCURVE",
"294 315 CURVE SMOOTH",
"33 212 OFFCURVE",
"-30 -62 OFFCURVE",
"196 -168 CURVE SMOOTH",
"244 -191 OFFCURVE",
"332 -209 OFFCURVE",
"366 -196 CURVE",
"366 -196 OFFCURVE",
"436 -161 OFFCURVE",
"477 -139 CURVE",
"471 -129 LINE",
"438 -144 OFFCURVE",
"409 -183 OFFCURVE",
"308 -146 CURVE SMOOTH",
"71 -61 OFFCURVE",
"120 196 OFFCURVE",
"337 301 CURVE SMOOTH",
"422 343 OFFCURVE",
"553 355 OFFCURVE",
"682 356 CURVE",
"652 310 OFFCURVE",
"622 262 OFFCURVE",
"582 203 CURVE SMOOTH",
"503 87 OFFCURVE",
"486 17 OFFCURVE",
"336 -8 CURVE",
"333 -17 LINE",
"492 -12 OFFCURVE",
"625 177 OFFCURVE",
"737 357 CURVE",
"759 356 OFFCURVE",
"781 356 OFFCURVE",
"803 355 CURVE",
"825 338 OFFCURVE",
"838 322 OFFCURVE",
"853 298 CURVE",
"927 346 LINE",
"923 351 LINE",
"938 351 OFFCURVE",
"951 350 OFFCURVE",
"964 350 CURVE",
"945 212 OFFCURVE",
"949 74 OFFCURVE",
"1005 -11 CURVE",
"1089 38 LINE",
"1097 99 OFFCURVE",
"1199 236 OFFCURVE",
"1241 267 CURVE"
);
},
{
closed = 1;
nodes = (
"352 11 LINE",
"259 3 OFFCURVE",
"230 60 OFFCURVE",
"277 133 CURVE",
"269 146 LINE",
"267 135 OFFCURVE",
"261 126 OFFCURVE",
"254 116 CURVE SMOOTH",
"247 105 OFFCURVE",
"238 94 OFFCURVE",
"229 82 CURVE SMOOTH",
"217 65 OFFCURVE",
"205 48 OFFCURVE",
"198 34 CURVE SMOOTH",
"191 18 OFFCURVE",
"197 12 OFFCURVE",
"212 8 CURVE SMOOTH",
"254 -4 OFFCURVE",
"287 -9 OFFCURVE",
"352 2 CURVE"
);
},
{
closed = 1;
nodes = (
"1096 904 OFFCURVE",
"1053 949 OFFCURVE",
"1035 953 CURVE SMOOTH",
"1003 961 OFFCURVE",
"965 943 OFFCURVE",
"972 937 CURVE SMOOTH",
"1011 906 OFFCURVE",
"1092 876 OFFCURVE",
"1135 874 CURVE SMOOTH",
"1148 874 OFFCURVE",
"1166 881 OFFCURVE",
"1146 888 CURVE SMOOTH"
);
}
);
width = 1195;
}
);
note = Agrave;
},
{
color = 11;
glyphname = Aring.ss01;
lastChange = "2021-08-31 06:50:47 +0000";
layers = (
{
hints = (
{
horizontal = 1;
place = "{-200, 39}";
type = Stem;
},
{
horizontal = 1;
place = "{-4, 15}";
type = Stem;
},
{
horizontal = 1;
place = "{356, 21}";
type = Stem;
},
{
horizontal = 1;
place = "{498, -20}";
target = down;
type = TopGhost;
},
{
horizontal = 1;
place = "{776, 47}";
type = Stem;
},
{
horizontal = 1;
place = "{920, 25}";
type = Stem;
},
{
place = "{58, 93}";
type = Stem;
},
{
place = "{206, 64}";
type = Stem;
},
{
place = "{954, 85}";
type = Stem;
},
{
place = "{1157, 29}";
type = Stem;
},
{
horizontal = 1;
place = "{351, 16}";
type = Stem;
},
{
horizontal = 1;
place = "{796, 25}";
type = Stem;
},
{
horizontal = 1;
place = "{-196, 35}";
type = Stem;
},
{
horizontal = 1;
place = "{452, 40}";
type = Stem;
},
{
horizontal = 1;
place = "{-17, 9}";
type = Stem;
},
{
place = "{334, 17}";
type = Stem;
},
{
place = "{195, 60}";
type = Stem;
},
{
place = "{1032, 29}";
type = Stem;
},
{
place = "{269, 8}";
type = Stem;
}
);
layerId = "C36B7B90-196F-45C3-8412-B02CF16DA361";
paths = (
{
closed = 1;
nodes = (
"1234 275 LINE",
"1184 239 OFFCURVE",
"1114 151 OFFCURVE",
"1075 91 CURVE",
"990 234 OFFCURVE",
"1070 614 OFFCURVE",
"1151 789 CURVE",
"1074 738 LINE",
"1034 653 OFFCURVE",
"988 510 OFFCURVE",
"966 367 CURVE",
"948 368 OFFCURVE",
"929 369 OFFCURVE",
"911 370 CURVE",
"895 390 OFFCURVE",
"879 404 OFFCURVE",
"854 421 CURVE",
"784 375 LINE",
"772 376 OFFCURVE",
"761 376 OFFCURVE",
"749 376 CURVE",
"798 456 OFFCURVE",
"843 533 OFFCURVE",
"885 588 CURVE SMOOTH",
"933 652 OFFCURVE",
"967 704 OFFCURVE",
"1017 745 CURVE",
"1130 813 LINE",
"1124 823 LINE",
"1106 810 OFFCURVE",
"1072 797 OFFCURVE",
"1072 797 CURVE",
"1036 788 OFFCURVE",
"816 810 OFFCURVE",
"701 820 CURVE SMOOTH",
"575 832 OFFCURVE",
"431 812 OFFCURVE",
"340 754 CURVE SMOOTH",
"236 687 OFFCURVE",
"169 585 OFFCURVE",
"227 467 CURVE SMOOTH",
"232 457 OFFCURVE",
"237 450 OFFCURVE",
"252 452 CURVE",
"252 452 OFFCURVE",
"337 480 OFFCURVE",
"366 489 CURVE",
"364 498 LINE",
"341 492 OFFCURVE",
"321 486 OFFCURVE",
"301 505 CURVE SMOOTH",
"290 516 OFFCURVE",
"278 542 OFFCURVE",
"273 570 CURVE SMOOTH",
"260 645 OFFCURVE",
"295 701 OFFCURVE",
"349 738 CURVE SMOOTH",
"434 797 OFFCURVE",
"560 773 OFFCURVE",
"669 764 CURVE SMOOTH",
"722 760 OFFCURVE",
"893 725 OFFCURVE",
"970 729 CURVE",
"912 681 OFFCURVE",
"860 611 OFFCURVE",
"810 543 CURVE SMOOTH",
"762 479 OFFCURVE",
"728 428 OFFCURVE",
"695 377 CURVE",
"554 376 OFFCURVE",
"414 362 OFFCURVE",
"294 315 CURVE SMOOTH",
"33 212 OFFCURVE",
"-30 -62 OFFCURVE",
"196 -168 CURVE SMOOTH",
"244 -191 OFFCURVE",
"332 -209 OFFCURVE",
"366 -196 CURVE",
"366 -196 OFFCURVE",
"436 -161 OFFCURVE",
"477 -139 CURVE",
"471 -129 LINE",
"438 -144 OFFCURVE",
"409 -183 OFFCURVE",
"308 -146 CURVE SMOOTH",
"71 -61 OFFCURVE",
"120 196 OFFCURVE",
"337 301 CURVE SMOOTH",
"422 343 OFFCURVE",
"553 355 OFFCURVE",
"682 356 CURVE",
"652 310 OFFCURVE",
"622 262 OFFCURVE",
"582 203 CURVE SMOOTH",
"503 87 OFFCURVE",
"486 17 OFFCURVE",
"336 -8 CURVE",
"333 -17 LINE",
"492 -12 OFFCURVE",
"625 177 OFFCURVE",
"737 357 CURVE",
"759 356 OFFCURVE",
"781 356 OFFCURVE",
"803 355 CURVE",
"825 338 OFFCURVE",
"838 322 OFFCURVE",
"853 298 CURVE",
"927 346 LINE",
"923 351 LINE",
"938 351 OFFCURVE",
"951 350 OFFCURVE",
"964 350 CURVE",
"945 212 OFFCURVE",
"949 74 OFFCURVE",
"1005 -11 CURVE",
"1089 38 LINE",
"1097 99 OFFCURVE",
"1199 236 OFFCURVE",
"1241 267 CURVE"
);
},
{
closed = 1;
nodes = (
"352 11 LINE",
"259 3 OFFCURVE",
"230 60 OFFCURVE",
"277 133 CURVE",
"269 146 LINE",
"267 135 OFFCURVE",
"261 126 OFFCURVE",
"254 116 CURVE SMOOTH",
"247 105 OFFCURVE",
"238 94 OFFCURVE",
"229 82 CURVE SMOOTH",
"217 65 OFFCURVE",
"205 48 OFFCURVE",
"198 34 CURVE SMOOTH",
"191 18 OFFCURVE",
"197 12 OFFCURVE",
"212 8 CURVE SMOOTH",
"254 -4 OFFCURVE",
"287 -9 OFFCURVE",
"352 2 CURVE"
);
},
{
closed = 1;
nodes = (
"1169 935 OFFCURVE",
"1145 945 OFFCURVE",
"1120 945 CURVE SMOOTH",
"1100 945 OFFCURVE",
"1081 936 OFFCURVE",
"1065 922 CURVE SMOOTH",
"1037 898 OFFCURVE",
"1024 857 OFFCURVE",
"1037 830 CURVE SMOOTH",
"1049 806 OFFCURVE",
"1073 796 OFFCURVE",
"1097 796 CURVE SMOOTH",
"1117 796 OFFCURVE",
"1137 805 OFFCURVE",
"1152 819 CURVE SMOOTH",
"1180 843 OFFCURVE",
"1194 883 OFFCURVE",
"1181 911 CURVE SMOOTH"
);
},
{
closed = 1;
nodes = (
"1167 883 OFFCURVE",
"1157 846 OFFCURVE",
"1140 832 CURVE SMOOTH",
"1124 818 OFFCURVE",
"1097 816 OFFCURVE",
"1077 834 CURVE SMOOTH",
"1050 858 OFFCURVE",
"1061 895 OFFCURVE",
"1077 909 CURVE SMOOTH",
"1094 923 OFFCURVE",
"1121 924 OFFCURVE",
"1141 907 CURVE SMOOTH"
);
}
);
width = 1195;
}
);
note = Aring;
},
{
color = 11;
glyphname = Atilde.ss01;
lastChange = "2021-08-31 06:50:47 +0000";
layers = (
{
hints = (
{
horizontal = 1;
place = "{-200, 39}";
type = Stem;
},
{
horizontal = 1;
place = "{-4, 15}";
type = Stem;
},
{
horizontal = 1;
place = "{356, 21}";
type = Stem;
},
{
horizontal = 1;
place = "{498, -20}";
target = down;
type = TopGhost;
},
{
horizontal = 1;
place = "{776, 47}";
type = Stem;
},
{
horizontal = 1;
place = "{893, 34}";
type = Stem;
},
{
place = "{58, 93}";
type = Stem;
},
{
place = "{206, 64}";
type = Stem;
},
{
place = "{954, 85}";
type = Stem;
},
{
horizontal = 1;
place = "{351, 16}";
type = Stem;
},
{
horizontal = 1;
place = "{-196, 35}";
type = Stem;
},
{
horizontal = 1;
place = "{452, 40}";
type = Stem;
},
{
horizontal = 1;
place = "{-17, 9}";
type = Stem;
},
{
place = "{334, 17}";
type = Stem;
},
{
place = "{195, 60}";
type = Stem;
},
{
place = "{269, 8}";
type = Stem;
},
{
horizontal = 1;
place = "{928, 36}";
type = Stem;
}
);
layerId = "C36B7B90-196F-45C3-8412-B02CF16DA361";
paths = (
{
closed = 1;
nodes = (
"1234 275 LINE",
"1184 239 OFFCURVE",
"1114 151 OFFCURVE",
"1075 91 CURVE",
"990 234 OFFCURVE",
"1070 614 OFFCURVE",
"1151 789 CURVE",
"1074 738 LINE",
"1034 653 OFFCURVE",
"988 510 OFFCURVE",
"966 367 CURVE",
"948 368 OFFCURVE",
"929 369 OFFCURVE",
"911 370 CURVE",
"895 390 OFFCURVE",
"879 404 OFFCURVE",
"854 421 CURVE",
"784 375 LINE",
"772 376 OFFCURVE",
"761 376 OFFCURVE",
"749 376 CURVE",
"798 456 OFFCURVE",
"843 533 OFFCURVE",
"885 588 CURVE SMOOTH",
"933 652 OFFCURVE",
"967 704 OFFCURVE",
"1017 745 CURVE",
"1130 813 LINE",
"1124 823 LINE",
"1106 810 OFFCURVE",
"1072 797 OFFCURVE",
"1072 797 CURVE",
"1036 788 OFFCURVE",
"816 810 OFFCURVE",
"701 820 CURVE SMOOTH",
"575 832 OFFCURVE",
"431 812 OFFCURVE",
"340 754 CURVE SMOOTH",
"236 687 OFFCURVE",
"169 585 OFFCURVE",
"227 467 CURVE SMOOTH",
"232 457 OFFCURVE",
"237 450 OFFCURVE",
"252 452 CURVE",
"252 452 OFFCURVE",
"337 480 OFFCURVE",
"366 489 CURVE",
"364 498 LINE",
"341 492 OFFCURVE",
"321 486 OFFCURVE",
"301 505 CURVE SMOOTH",
"290 516 OFFCURVE",
"278 542 OFFCURVE",
"273 570 CURVE SMOOTH",
"260 645 OFFCURVE",
"295 701 OFFCURVE",
"349 738 CURVE SMOOTH",
"434 797 OFFCURVE",
"560 773 OFFCURVE",
"669 764 CURVE SMOOTH",
"722 760 OFFCURVE",
"893 725 OFFCURVE",
"970 729 CURVE",
"912 681 OFFCURVE",
"860 611 OFFCURVE",
"810 543 CURVE SMOOTH",
"762 479 OFFCURVE",
"728 428 OFFCURVE",
"695 377 CURVE",
"554 376 OFFCURVE",
"414 362 OFFCURVE",
"294 315 CURVE SMOOTH",
"33 212 OFFCURVE",
"-30 -62 OFFCURVE",
"196 -168 CURVE SMOOTH",
"244 -191 OFFCURVE",
"332 -209 OFFCURVE",
"366 -196 CURVE",
"366 -196 OFFCURVE",
"436 -161 OFFCURVE",
"477 -139 CURVE",
"471 -129 LINE",
"438 -144 OFFCURVE",
"409 -183 OFFCURVE",
"308 -146 CURVE SMOOTH",
"71 -61 OFFCURVE",
"120 196 OFFCURVE",
"337 301 CURVE SMOOTH",
"422 343 OFFCURVE",
"553 355 OFFCURVE",
"682 356 CURVE",
"652 310 OFFCURVE",
"622 262 OFFCURVE",
"582 203 CURVE SMOOTH",
"503 87 OFFCURVE",
"486 17 OFFCURVE",
"336 -8 CURVE",
"333 -17 LINE",
"492 -12 OFFCURVE",
"625 177 OFFCURVE",
"737 357 CURVE",
"759 356 OFFCURVE",
"781 356 OFFCURVE",
"803 355 CURVE",
"825 338 OFFCURVE",
"838 322 OFFCURVE",
"853 298 CURVE",
"927 346 LINE",
"923 351 LINE",
"938 351 OFFCURVE",
"951 350 OFFCURVE",
"964 350 CURVE",
"945 212 OFFCURVE",
"949 74 OFFCURVE",
"1005 -11 CURVE",
"1089 38 LINE",
"1097 99 OFFCURVE",
"1199 236 OFFCURVE",
"1241 267 CURVE"
);
},
{
closed = 1;
nodes = (
"352 11 LINE",
"259 3 OFFCURVE",
"230 60 OFFCURVE",
"277 133 CURVE",
"269 146 LINE",
"267 135 OFFCURVE",
"261 126 OFFCURVE",
"254 116 CURVE SMOOTH",
"247 105 OFFCURVE",
"238 94 OFFCURVE",
"229 82 CURVE SMOOTH",
"217 65 OFFCURVE",
"205 48 OFFCURVE",
"198 34 CURVE SMOOTH",
"191 18 OFFCURVE",
"197 12 OFFCURVE",
"212 8 CURVE SMOOTH",
"254 -4 OFFCURVE",
"287 -9 OFFCURVE",
"352 2 CURVE"
);
},
{
closed = 1;
nodes = (
"1220 967 OFFCURVE",
"1203 965 OFFCURVE",
"1198 957 CURVE SMOOTH",
"1189 940 OFFCURVE",
"1176 927 OFFCURVE",
"1159 927 CURVE SMOOTH",
"1124 927 OFFCURVE",
"1099 964 OFFCURVE",
"1056 964 CURVE SMOOTH",
"1055 964 LINE SMOOTH",
"1012 964 OFFCURVE",
"983 915 OFFCURVE",
"976 894 CURVE SMOOTH",
"975 889 OFFCURVE",
"992 891 OFFCURVE",
"995 897 CURVE SMOOTH",
"1005 916 OFFCURVE",
"1022 928 OFFCURVE",
"1040 928 CURVE SMOOTH",
"1075 928 OFFCURVE",
"1102 893 OFFCURVE",
"1142 893 CURVE SMOOTH",
"1183 893 OFFCURVE",
"1208 935 OFFCURVE",
"1216 959 CURVE"
);
}
);
width = 1195;
}
);
note = Atilde;
},
{
color = 5;
glyphname = AE.ss01;
lastChange = "2021-08-31 06:58:33 +0000";
layers = (
{
hints = (
{
horizontal = 1;
place = "{-6, 33}";
type = Stem;
},
{
horizontal = 1;
place = "{254, 41}";
type = Stem;
},
{
horizontal = 1;
place = "{507, 34}";
type = Stem;
},
{
place = "{800, 13}";
type = Stem;
},
{
horizontal = 1;
place = "{347, 17}";
type = Stem;
},
{
horizontal = 1;
place = "{762, 56}";
type = Stem;
},
{
place = "{58, 93}";
type = Stem;
},
{
place = "{206, 65}";
type = Stem;
},
{
place = "{954, 85}";
type = Stem;
},
{
horizontal = 1;
place = "{3, 26}";
type = Stem;
},
{
horizontal = 1;
place = "{286, 23}";
type = Stem;
},
{
horizontal = 1;
place = "{561, 12}";
type = Stem;
},
{
place = "{1003, 14}";
type = Stem;
}
);
layerId = "C36B7B90-196F-45C3-8412-B02CF16DA361";
paths = (
{
closed = 1;
nodes = (
"1458 818 OFFCURVE",
"1460 828 OFFCURVE",
"1464 840 CURVE SMOOTH",
"1467 851 OFFCURVE",
"1472 865 OFFCURVE",
"1477 878 CURVE SMOOTH",
"1484 897 OFFCURVE",
"1491 916 OFFCURVE",
"1493 931 CURVE SMOOTH",
"1495 949 OFFCURVE",
"1487 952 OFFCURVE",
"1471 953 CURVE SMOOTH",
"1427 954 OFFCURVE",
"1393 951 OFFCURVE",
"1333 924 CURVE",
"1336 916 LINE",
"1424 946 OFFCURVE",
"1470 899 OFFCURVE",
"1447 818 CURVE",
"1459 807 LINE"
);
},
{
closed = 1;
nodes = (
"1588 777 OFFCURVE",
"1555 764 OFFCURVE",
"1555 764 CURVE",
"1521 756 OFFCURVE",
"1331 774 OFFCURVE",
"1211 785 CURVE",
"1255 865 OFFCURVE",
"1280 886 OFFCURVE",
"1369 906 CURVE",
"1367 914 LINE",
"1346 910 OFFCURVE",
"1280 894 OFFCURVE",
"1243 869 CURVE SMOOTH",
"1204 841 OFFCURVE",
"1171 818 OFFCURVE",
"1145 790 CURVE",
"1115 792 OFFCURVE",
"951 803 OFFCURVE",
"701 818 CURVE SMOOTH",
"575 826 OFFCURVE",
"431 809 OFFCURVE",
"340 751 CURVE SMOOTH",
"236 684 OFFCURVE",
"169 582 OFFCURVE",
"227 464 CURVE SMOOTH",
"232 454 OFFCURVE",
"237 447 OFFCURVE",
"252 450 CURVE",
"252 450 OFFCURVE",
"337 477 OFFCURVE",
"366 487 CURVE",
"364 495 LINE",
"341 489 OFFCURVE",
"321 483 OFFCURVE",
"301 502 CURVE SMOOTH",
"290 513 OFFCURVE",
"278 539 OFFCURVE",
"273 567 CURVE SMOOTH",
"260 642 OFFCURVE",
"295 698 OFFCURVE",
"349 735 CURVE SMOOTH",
"407 775 OFFCURVE",
"582 768 OFFCURVE",
"691 762 CURVE SMOOTH",
"798 756 OFFCURVE",
"962 744 OFFCURVE",
"981 743 CURVE",
"923 695 OFFCURVE",
"860 608 OFFCURVE",
"810 541 CURVE SMOOTH",
"762 476 OFFCURVE",
"728 425 OFFCURVE",
"695 374 CURVE",
"554 373 OFFCURVE",
"414 360 OFFCURVE",
"294 312 CURVE SMOOTH",
"33 210 OFFCURVE",
"-30 -65 OFFCURVE",
"196 -171 CURVE SMOOTH",
"244 -193 OFFCURVE",
"332 -212 OFFCURVE",
"366 -199 CURVE",
"366 -199 OFFCURVE",
"436 -163 OFFCURVE",
"477 -141 CURVE",
"471 -132 LINE",
"438 -147 OFFCURVE",
"409 -186 OFFCURVE",
"308 -149 CURVE SMOOTH",
"71 -64 OFFCURVE",
"120 194 OFFCURVE",
"337 299 CURVE SMOOTH",
"422 340 OFFCURVE",
"553 352 OFFCURVE",
"682 354 CURVE",
"652 307 OFFCURVE",
"622 259 OFFCURVE",
"582 200 CURVE SMOOTH",
"503 85 OFFCURVE",
"486 14 OFFCURVE",
"336 -10 CURVE",
"333 -19 LINE",
"492 -15 OFFCURVE",
"625 175 OFFCURVE",
"737 354 CURVE",
"759 354 OFFCURVE",
"781 353 OFFCURVE",
"803 353 CURVE",
"825 336 OFFCURVE",
"838 320 OFFCURVE",
"853 296 CURVE",
"927 343 LINE",
"923 349 LINE",
"933 348 OFFCURVE",
"955 348 OFFCURVE",
"971 348 CURVE",
"953 297 OFFCURVE",
"934 246 OFFCURVE",
"910 193 CURVE SMOOTH",
"884 134 OFFCURVE",
"862 106 OFFCURVE",
"817 74 CURVE",
"813 73 OFFCURVE",
"795 71 OFFCURVE",
"771 65 CURVE SMOOTH",
"722 51 OFFCURVE",
"649 -28 OFFCURVE",
"620 -50 CURVE",
"625 -59 LINE",
"711 0 OFFCURVE",
"806 -5 OFFCURVE",
"855 -5 CURVE SMOOTH",
"884 -5 OFFCURVE",
"1322 -21 OFFCURVE",
"1351 -3 CURVE SMOOTH",
"1395 25 OFFCURVE",
"1493 250 OFFCURVE",
"1506 277 CURVE",
"1498 284 LINE",
"1422 130 OFFCURVE",
"1363 68 OFFCURVE",
"1272 64 CURVE SMOOTH",
"1183 60 OFFCURVE",
"981 71 OFFCURVE",
"834 73 CURVE",
"861 94 OFFCURVE",
"897 119 OFFCURVE",
"908 119 CURVE SMOOTH",
"953 123 OFFCURVE",
"996 170 OFFCURVE",
"1010 213 CURVE SMOOTH",
"1056 355 LINE",
"1068 366 LINE SMOOTH",
"1101 396 OFFCURVE",
"1131 397 OFFCURVE",
"1179 393 CURVE SMOOTH",
"1222 389 OFFCURVE",
"1302 361 OFFCURVE",
"1338 386 CURVE SMOOTH",
"1450 463 LINE",
"1442 481 LINE",
"1407 452 OFFCURVE",
"1355 449 OFFCURVE",
"1254 458 CURVE SMOOTH",
"1200 463 OFFCURVE",
"1143 462 OFFCURVE",
"1106 428 CURVE SMOOTH",
"1087 411 OFFCURVE",
"1076 400 OFFCURVE",
"1068 392 CURVE",
"1109 520 OFFCURVE",
"1152 651 OFFCURVE",
"1184 728 CURVE",
"1271 715 OFFCURVE",
"1448 682 OFFCURVE",
"1484 703 CURVE SMOOTH",
"1612 780 LINE SMOOTH",
"1619 784 OFFCURVE",
"1606 789 OFFCURVE",
"1606 789 CURVE"
);
},
{
closed = 1;
nodes = (
"1043 570 OFFCURVE",
"1013 476 CURVE SMOOTH",
"1002 439 OFFCURVE",
"990 402 OFFCURVE",
"977 365 CURVE",
"956 365 OFFCURVE",
"925 366 OFFCURVE",
"911 367 CURVE",
"895 387 OFFCURVE",
"879 401 OFFCURVE",
"854 418 CURVE",
"784 373 LINE",
"772 373 OFFCURVE",
"761 373 OFFCURVE",
"749 374 CURVE",
"798 454 OFFCURVE",
"843 530 OFFCURVE",
"885 586 CURVE SMOOTH",
"929 645 OFFCURVE",
"967 700 OFFCURVE",
"1011 740 CURVE",
"1043 736 OFFCURVE",
"1074 735 OFFCURVE",
"1107 732 CURVE",
"1079 679 OFFCURVE"
);
},
{
closed = 1;
nodes = (
"267 133 OFFCURVE",
"262 124 OFFCURVE",
"254 113 CURVE SMOOTH",
"229 79 LINE SMOOTH",
"217 63 OFFCURVE",
"205 46 OFFCURVE",
"198 31 CURVE SMOOTH",
"191 15 OFFCURVE",
"197 10 OFFCURVE",
"212 5 CURVE SMOOTH",
"254 -7 OFFCURVE",
"287 -12 OFFCURVE",
"352 -1 CURVE",
"352 9 LINE",
"259 0 OFFCURVE",
"230 57 OFFCURVE",
"277 130 CURVE",
"269 144 LINE"
);
}
);
width = 1513;
}
);
note = AE;
},
{
color = 5;
glyphname = B.ss01;
lastChange = "2021-08-31 06:50:47 +0000";
layers = (
{
hints = (
{
horizontal = 1;
place = "{-5, 62}";
type = Stem;
},
{
place = "{138, 67}";
type = Stem;
},
{
place = "{830, 85}";
type = Stem;
}
);
layerId = "C36B7B90-196F-45C3-8412-B02CF16DA361";
paths = (
{
closed = 1;
nodes = (
"912 899 OFFCURVE",
"904 902 OFFCURVE",
"888 902 CURVE SMOOTH",
"844 904 OFFCURVE",
"810 901 OFFCURVE",
"750 874 CURVE",
"753 866 LINE",
"841 896 OFFCURVE",
"887 849 OFFCURVE",
"864 768 CURVE",
"876 757 LINE",
"875 768 OFFCURVE",
"877 778 OFFCURVE",
"881 790 CURVE SMOOTH",
"884 801 OFFCURVE",
"889 815 OFFCURVE",
"894 828 CURVE SMOOTH",
"901 847 OFFCURVE",
"908 866 OFFCURVE",
"910 881 CURVE SMOOTH"
);
},
{
closed = 1;
nodes = (
"872 305 OFFCURVE",
"825 347 OFFCURVE",
"786 374 CURVE SMOOTH",
"759 391 OFFCURVE",
"731 409 OFFCURVE",
"701 422 CURVE",
"767 450 OFFCURVE",
"780 461 OFFCURVE",
"831 512 CURVE SMOOTH",
"943 623 OFFCURVE",
"801 757 OFFCURVE",
"651 784 CURVE",
"690 868 OFFCURVE",
"721 886 OFFCURVE",
"811 906 CURVE",
"808 914 LINE",
"787 910 OFFCURVE",
"721 894 OFFCURVE",
"685 869 CURVE SMOOTH",
"645 841 OFFCURVE",
"613 818 OFFCURVE",
"586 790 CURVE",
"561 791 OFFCURVE",
"535 789 OFFCURVE",
"509 786 CURVE",
"540 889 OFFCURVE",
"556 966 OFFCURVE",
"552 995 CURVE SMOOTH",
"550 1005 OFFCURVE",
"535 1003 OFFCURVE",
"536 993 CURVE SMOOTH",
"540 972 OFFCURVE",
"519 893 OFFCURVE",
"484 783 CURVE",
"400 769 OFFCURVE",
"320 739 OFFCURVE",
"264 697 CURVE SMOOTH",
"165 623 OFFCURVE",
"99 517 OFFCURVE",
"165 404 CURVE SMOOTH",
"170 394 OFFCURVE",
"183 386 OFFCURVE",
"198 390 CURVE",
"198 390 OFFCURVE",
"280 424 OFFCURVE",
"309 435 CURVE",
"306 443 LINE",
"283 436 OFFCURVE",
"264 428 OFFCURVE",
"242 446 CURVE SMOOTH",
"231 456 OFFCURVE",
"217 481 OFFCURVE",
"210 509 CURVE SMOOTH",
"192 582 OFFCURVE",
"223 641 OFFCURVE",
"274 682 CURVE SMOOTH",
"325 723 OFFCURVE",
"398 745 OFFCURVE",
"473 748 CURVE",
"453 687 OFFCURVE",
"429 619 OFFCURVE",
"403 548 CURVE",
"340 511 LINE",
"355 495 OFFCURVE",
"365 482 OFFCURVE",
"374 468 CURVE",
"364 442 OFFCURVE",
"354 415 OFFCURVE",
"343 388 CURVE",
"286 355 LINE",
"299 341 OFFCURVE",
"308 329 OFFCURVE",
"316 317 CURVE",
"281 230 OFFCURVE",
"245 144 OFFCURVE",
"210 66 CURVE",
"168 69 OFFCURVE",
"136 70 OFFCURVE",
"122 67 CURVE SMOOTH",
"61 54 OFFCURVE",
"-9 -28 OFFCURVE",
"-38 -50 CURVE",
"-33 -59 LINE",
"44 -1 OFFCURVE",
"104 5 OFFCURVE",
"180 2 CURVE",
"144 -73 OFFCURVE",
"110 -137 OFFCURVE",
"80 -182 CURVE SMOOTH",
"74 -191 OFFCURVE",
"87 -199 OFFCURVE",
"93 -191 CURVE SMOOTH",
"126 -141 OFFCURVE",
"162 -75 OFFCURVE",
"199 1 CURVE",
"229 -1 OFFCURVE",
"260 -4 OFFCURVE",
"296 -5 CURVE SMOOTH",
"372 -8 OFFCURVE",
"489 -13 OFFCURVE",
"561 -12 CURVE SMOOTH",
"703 -9 OFFCURVE",
"991 81 OFFCURVE",
"896 261 CURVE SMOOTH"
);
},
{
closed = 1;
nodes = (
"540 727 OFFCURVE",
"530 707 OFFCURVE",
"522 684 CURVE SMOOTH",
"499 621 OFFCURVE",
"480 557 OFFCURVE",
"459 491 CURVE",
"457 495 OFFCURVE",
"454 499 OFFCURVE",
"452 504 CURVE",
"444 517 OFFCURVE",
"436 529 OFFCURVE",
"426 541 CURVE",
"453 615 OFFCURVE",
"477 685 OFFCURVE",
"497 748 CURVE",
"515 748 OFFCURVE",
"533 747 OFFCURVE",
"551 744 CURVE"
);
},
{
closed = 1;
nodes = (
"889 62 OFFCURVE",
"737 60 OFFCURVE",
"633 51 CURVE SMOOTH",
"581 47 OFFCURVE",
"468 53 OFFCURVE",
"360 57 CURVE SMOOTH",
"326 59 OFFCURVE",
"293 61 OFFCURVE",
"261 63 CURVE",
"290 85 OFFCURVE",
"336 118 OFFCURVE",
"349 119 CURVE SMOOTH",
"394 123 OFFCURVE",
"437 170 OFFCURVE",
"451 213 CURVE SMOOTH",
"515 410 OFFCURVE",
"550 535 OFFCURVE",
"627 727 CURVE",
"775 675 OFFCURVE",
"887 510 OFFCURVE",
"691 428 CURVE",
"695 424 LINE",
"680 429 OFFCURVE",
"664 434 OFFCURVE",
"648 435 CURVE",
"554 389 LINE",
"639 381 OFFCURVE",
"767 292 OFFCURVE",
"807 217 CURVE SMOOTH"
);
},
{
closed = 1;
nodes = (
"452 467 LINE",
"438 423 OFFCURVE",
"423 377 OFFCURVE",
"406 331 CURVE",
"404 336 OFFCURVE",
"401 342 OFFCURVE",
"397 347 CURVE",
"389 362 OFFCURVE",
"380 375 OFFCURVE",
"368 388 CURVE",
"375 406 OFFCURVE",
"382 423 OFFCURVE",
"389 441 CURVE",
"393 433 LINE"
);
},
{
closed = 1;
nodes = (
"399 312 LINE",
"385 273 OFFCURVE",
"369 234 OFFCURVE",
"352 193 CURVE SMOOTH",
"323 129 OFFCURVE",
"300 101 OFFCURVE",
"244 64 CURVE",
"230 65 LINE",
"264 137 OFFCURVE",
"298 214 OFFCURVE",
"330 293 CURVE",
"333 288 OFFCURVE",
"335 283 OFFCURVE",
"338 277 CURVE"
);
}
);
width = 933;
}
);
note = B;
},
{
color = 5;
glyphname = C.ss01;
lastChange = "2021-08-31 06:50:47 +0000";
layers = (
{
hints = (
{
horizontal = 1;
place = "{-15, 81}";
type = Stem;
},
{
place = "{-1081, 75}";
type = Stem;
},
{
place = "{-601, 42}";
type = Stem;
}
);
layerId = "C36B7B90-196F-45C3-8412-B02CF16DA361";
paths = (
{
closed = 1;
nodes = (
"464 596 OFFCURVE",
"481 667 OFFCURVE",
"502 757 CURVE",
"553 750 OFFCURVE",
"736 699 OFFCURVE",
"775 723 CURVE SMOOTH",
"850 769 LINE",
"890 792 LINE",
"887 798 LINE",
"882 795 OFFCURVE",
"853 779 OFFCURVE",
"847 778 CURVE SMOOTH",
"800 766 OFFCURVE",
"720 787 OFFCURVE",
"677 792 CURVE SMOOTH",
"651 795 OFFCURVE",
"534 821 OFFCURVE",
"515 817 CURVE",
"536 919 OFFCURVE",
"546 995 OFFCURVE",
"539 1025 CURVE SMOOTH",
"536 1035 OFFCURVE",
"524 1042 OFFCURVE",
"526 1032 CURVE SMOOTH",
"532 1011 OFFCURVE",
"517 926 OFFCURVE",
"490 810 CURVE",
"447 795 OFFCURVE",
"418 764 OFFCURVE",
"376 739 CURVE SMOOTH",
"248 661 OFFCURVE",
"283 454 OFFCURVE",
"204 362 CURVE",
"187 347 OFFCURVE",
"156 330 OFFCURVE",
"129 319 CURVE",
"132 303 LINE",
"174 328 OFFCURVE",
"214 352 OFFCURVE",
"256 376 CURVE SMOOTH",
"313 408 OFFCURVE",
"351 486 OFFCURVE",
"379 625 CURVE SMOOTH",
"402 734 OFFCURVE",
"442 758 OFFCURVE",
"478 759 CURVE",
"459 683 OFFCURVE",
"439 605 OFFCURVE",
"417 527 CURVE",
"368 500 LINE",
"381 486 OFFCURVE",
"390 474 OFFCURVE",
"398 462 CURVE",
"390 433 OFFCURVE",
"381 404 OFFCURVE",
"373 376 CURVE",
"313 344 LINE",
"329 321 OFFCURVE",
"340 305 OFFCURVE",
"347 295 CURVE",
"325 226 OFFCURVE",
"302 158 OFFCURVE",
"278 93 CURVE",
"221 128 OFFCURVE",
"172 173 OFFCURVE",
"137 230 CURVE SMOOTH",
"-7 463 OFFCURVE",
"156 711 OFFCURVE",
"352 747 CURVE SMOOTH",
"358 748 OFFCURVE",
"362 762 OFFCURVE",
"353 760 CURVE SMOOTH",
"279 744 OFFCURVE",
"205 700 OFFCURVE",
"157 664 CURVE SMOOTH",
"11 555 OFFCURVE",
"-33 318 OFFCURVE",
"67 156 CURVE SMOOTH",
"108 90 OFFCURVE",
"174 42 OFFCURVE",
"247 12 CURVE",
"222 -51 OFFCURVE",
"198 -104 OFFCURVE",
"175 -143 CURVE SMOOTH",
"170 -152 OFFCURVE",
"184 -160 OFFCURVE",
"189 -152 CURVE SMOOTH",
"213 -110 OFFCURVE",
"238 -56 OFFCURVE",
"264 5 CURVE",
"352 -28 OFFCURVE",
"450 -36 OFFCURVE",
"528 -18 CURVE SMOOTH",
"592 -4 OFFCURVE",
"643 11 OFFCURVE",
"689 39 CURVE SMOOTH",
"753 78 LINE SMOOTH",
"759 82 OFFCURVE",
"765 86 OFFCURVE",
"771 91 CURVE",
"766 98 LINE",
"730 74 LINE SMOOTH",
"614 -3 OFFCURVE",
"435 6 OFFCURVE",
"295 83 CURVE",
"323 155 OFFCURVE",
"346 214 OFFCURVE",
"365 267 CURVE",
"365 266 LINE",
"439 308 LINE",
"435 318 OFFCURVE",
"430 327 OFFCURVE",
"425 336 CURVE SMOOTH",
"416 351 OFFCURVE",
"413 360 OFFCURVE",
"402 374 CURVE",
"404 378 OFFCURVE",
"405 383 OFFCURVE",
"406 388 CURVE SMOOTH",
"410 402 OFFCURVE",
"415 415 OFFCURVE",
"419 429 CURVE",
"420 427 LINE",
"494 469 LINE",
"480 486 OFFCURVE",
"460 510 OFFCURVE",
"448 534 CURVE"
);
}
);
width = 733;
}
);
note = C;
},
{
color = 11;
glyphname = Ccedilla.ss01;
lastChange = "2021-08-31 06:50:47 +0000";
layers = (
{
hints = (
{
horizontal = 1;
place = "{-262, 16}";
type = Stem;
},
{
horizontal = 1;
place = "{-112, 31}";
type = Stem;
},
{
horizontal = 1;
place = "{-27, 48}";
type = Stem;
},
{
horizontal = 1;
place = "{500, -20}";
target = down;
type = TopGhost;
},
{
horizontal = 1;
place = "{717, 57}";
type = Stem;
},
{
place = "{13, 69}";
type = Stem;
},
{
place = "{289, 51}";
type = Stem;
},
{
place = "{526, 13}";
type = Stem;
}
);
layerId = "C36B7B90-196F-45C3-8412-B02CF16DA361";
paths = (
{
closed = 1;
nodes = (
"464 596 OFFCURVE",
"481 667 OFFCURVE",
"502 757 CURVE",
"553 750 OFFCURVE",
"736 699 OFFCURVE",
"775 723 CURVE SMOOTH",
"850 769 LINE",
"890 792 LINE",
"886 798 LINE",
"882 795 OFFCURVE",
"853 779 OFFCURVE",
"847 777 CURVE SMOOTH",
"800 766 OFFCURVE",
"720 787 OFFCURVE",
"676 792 CURVE SMOOTH",
"651 795 OFFCURVE",
"534 821 OFFCURVE",
"515 817 CURVE",
"536 919 OFFCURVE",
"546 995 OFFCURVE",
"539 1025 CURVE SMOOTH",
"536 1035 OFFCURVE",
"524 1042 OFFCURVE",
"526 1032 CURVE SMOOTH",
"532 1011 OFFCURVE",
"517 926 OFFCURVE",
"490 810 CURVE",
"447 795 OFFCURVE",
"418 764 OFFCURVE",
"376 739 CURVE SMOOTH",
"248 661 OFFCURVE",
"283 454 OFFCURVE",
"204 362 CURVE",
"186 347 OFFCURVE",
"156 330 OFFCURVE",
"129 319 CURVE",
"132 303 LINE",
"174 328 OFFCURVE",
"214 352 OFFCURVE",
"256 376 CURVE SMOOTH",
"313 408 OFFCURVE",
"351 486 OFFCURVE",
"379 625 CURVE SMOOTH",
"401 734 OFFCURVE",
"442 758 OFFCURVE",
"478 759 CURVE",
"459 683 OFFCURVE",
"439 605 OFFCURVE",
"417 527 CURVE",
"368 500 LINE",
"381 486 OFFCURVE",
"390 474 OFFCURVE",
"398 462 CURVE",
"390 433 OFFCURVE",
"381 404 OFFCURVE",
"373 376 CURVE",
"313 344 LINE",
"329 321 OFFCURVE",
"340 305 OFFCURVE",
"347 295 CURVE",
"325 226 OFFCURVE",
"302 158 OFFCURVE",
"278 93 CURVE",
"221 128 OFFCURVE",
"172 173 OFFCURVE",
"137 230 CURVE SMOOTH",
"-7 463 OFFCURVE",
"156 711 OFFCURVE",
"352 747 CURVE SMOOTH",
"358 748 OFFCURVE",
"362 762 OFFCURVE",
"352 760 CURVE SMOOTH",
"279 743 OFFCURVE",
"205 700 OFFCURVE",
"157 664 CURVE SMOOTH",
"11 555 OFFCURVE",
"-33 318 OFFCURVE",
"67 156 CURVE SMOOTH",
"108 90 OFFCURVE",
"174 42 OFFCURVE",
"247 12 CURVE",
"222 -51 OFFCURVE",
"198 -104 OFFCURVE",
"175 -143 CURVE SMOOTH",
"170 -152 OFFCURVE",
"184 -160 OFFCURVE",
"189 -152 CURVE SMOOTH",
"213 -110 OFFCURVE",
"238 -56 OFFCURVE",
"264 5 CURVE",
"352 -28 OFFCURVE",
"450 -36 OFFCURVE",
"528 -18 CURVE SMOOTH",
"592 -4 OFFCURVE",
"643 10 OFFCURVE",
"689 39 CURVE SMOOTH",
"753 78 LINE SMOOTH",
"759 82 OFFCURVE",
"765 86 OFFCURVE",
"771 91 CURVE",
"766 98 LINE",
"730 74 LINE SMOOTH",
"614 -3 OFFCURVE",
"435 6 OFFCURVE",
"295 83 CURVE",
"323 155 OFFCURVE",
"346 214 OFFCURVE",
"365 267 CURVE",
"365 266 LINE",
"439 308 LINE",
"435 318 OFFCURVE",
"430 327 OFFCURVE",
"425 336 CURVE SMOOTH",
"416 351 OFFCURVE",
"413 360 OFFCURVE",
"402 374 CURVE",
"404 378 OFFCURVE",
"405 383 OFFCURVE",
"406 388 CURVE SMOOTH",
"410 402 OFFCURVE",
"414 415 OFFCURVE",
"419 429 CURVE",
"420 427 LINE",
"494 469 LINE",
"480 486 OFFCURVE",
"460 510 OFFCURVE",
"448 534 CURVE"
);
},
{
closed = 1;
nodes = (
"343 -114 OFFCURVE",
"321 -81 OFFCURVE",
"263 -81 CURVE SMOOTH",
"254 -81 OFFCURVE",
"246 -82 OFFCURVE",
"240 -83 CURVE",
"251 -68 OFFCURVE",
"280 -25 OFFCURVE",
"287 -14 CURVE",
"264 -14 LINE",
"244 -54 OFFCURVE",
"215 -81 OFFCURVE",
"183 -116 CURVE",
"181 -117 OFFCURVE",
"186 -123 OFFCURVE",
"190 -120 CURVE SMOOTH",
"199 -114 OFFCURVE",
"214 -112 OFFCURVE",
"225 -112 CURVE SMOOTH",
"267 -112 OFFCURVE",
"294 -138 OFFCURVE",
"289 -183 CURVE SMOOTH",
"284 -242 OFFCURVE",
"218 -268 OFFCURVE",
"183 -223 CURVE SMOOTH",
"178 -217 OFFCURVE",
"183 -185 OFFCURVE",
"189 -167 CURVE",
"181 -162 LINE",
"174 -182 OFFCURVE",
"150 -221 OFFCURVE",
"140 -230 CURVE SMOOTH",
"133 -237 OFFCURVE",
"149 -248 OFFCURVE",
"156 -252 CURVE",
"193 -279 OFFCURVE",
"330 -255 OFFCURVE",
"340 -151 CURVE SMOOTH"
);
}
);
width = 733;
}
);
note = Ccedilla;
},
{
color = 5;
glyphname = D.ss01;
lastChange = "2021-08-31 06:50:47 +0000";
layers = (
{
hints = (
{
horizontal = 1;
place = "{0, 12}";
type = Stem;
},
{
horizontal = 1;
place = "{477, 10}";
type = Stem;
},
{
place = "{-168, 82}";
type = Stem;
}
);
layerId = "C36B7B90-196F-45C3-8412-B02CF16DA361";
paths = (
{
closed = 1;
nodes = (
"924 899 OFFCURVE",
"916 902 OFFCURVE",
"900 902 CURVE SMOOTH",
"856 904 OFFCURVE",
"822 901 OFFCURVE",
"762 874 CURVE",
"765 866 LINE",
"852 896 OFFCURVE",
"899 849 OFFCURVE",
"876 768 CURVE",
"887 757 LINE",
"886 768 OFFCURVE",
"889 778 OFFCURVE",
"892 790 CURVE SMOOTH",
"896 801 OFFCURVE",
"901 815 OFFCURVE",
"906 828 CURVE SMOOTH",
"913 847 OFFCURVE",
"919 866 OFFCURVE",
"921 881 CURVE SMOOTH"
);
},
{
closed = 1;
nodes = (
"820 914 LINE",
"799 910 OFFCURVE",
"733 894 OFFCURVE",
"696 869 CURVE SMOOTH",
"657 841 OFFCURVE",
"624 818 OFFCURVE",
"598 790 CURVE",
"572 791 OFFCURVE",
"546 789 OFFCURVE",
"520 786 CURVE",
"551 889 OFFCURVE",
"568 966 OFFCURVE",
"563 995 CURVE SMOOTH",
"562 1005 OFFCURVE",
"546 1003 OFFCURVE",
"548 993 CURVE SMOOTH",
"551 972 OFFCURVE",
"531 893 OFFCURVE",
"496 783 CURVE",
"412 769 OFFCURVE",
"332 739 OFFCURVE",
"276 697 CURVE SMOOTH",
"177 623 OFFCURVE",
"117 516 OFFCURVE",
"183 403 CURVE SMOOTH",
"188 393 OFFCURVE",
"194 386 OFFCURVE",
"209 390 CURVE",
"209 390 OFFCURVE",
"292 424 OFFCURVE",
"321 435 CURVE",
"318 443 LINE",
"295 436 OFFCURVE",
"275 428 OFFCURVE",
"254 446 CURVE SMOOTH",
"242 456 OFFCURVE",
"229 481 OFFCURVE",
"222 509 CURVE SMOOTH",
"204 582 OFFCURVE",
"235 641 OFFCURVE",
"286 682 CURVE SMOOTH",
"336 722 OFFCURVE",
"409 743 OFFCURVE",
"484 747 CURVE",
"465 688 OFFCURVE",
"442 622 OFFCURVE",
"417 552 CURVE",
"415 554 LINE",
"341 511 LINE",
"358 492 OFFCURVE",
"370 477 OFFCURVE",
"379 460 CURVE SMOOTH",
"381 456 LINE",
"374 436 OFFCURVE",
"366 417 OFFCURVE",
"358 397 CURVE",
"286 355 LINE",
"303 336 OFFCURVE",
"314 322 OFFCURVE",
"323 306 CURVE",
"290 223 OFFCURVE",
"255 141 OFFCURVE",
"221 66 CURVE",
"180 69 OFFCURVE",
"148 70 OFFCURVE",
"134 67 CURVE SMOOTH",
"73 54 OFFCURVE",
"3 -28 OFFCURVE",
"-26 -50 CURVE",
"-22 -59 LINE",
"56 -1 OFFCURVE",
"116 5 OFFCURVE",
"191 2 CURVE",
"156 -73 OFFCURVE",
"122 -137 OFFCURVE",
"92 -182 CURVE SMOOTH",
"86 -191 OFFCURVE",
"99 -199 OFFCURVE",
"105 -191 CURVE SMOOTH",
"137 -141 OFFCURVE",
"174 -75 OFFCURVE",
"211 1 CURVE",
"240 -1 OFFCURVE",
"272 -4 OFFCURVE",
"308 -5 CURVE SMOOTH",
"363 -7 OFFCURVE",
"600 -5 OFFCURVE",
"654 3 CURVE SMOOTH",
"1234 96 OFFCURVE",
"1095 721 OFFCURVE",
"663 785 CURVE",
"701 868 OFFCURVE",
"733 886 OFFCURVE",
"822 906 CURVE"
);
},
{
closed = 1;
nodes = (
"552 728 OFFCURVE",
"542 708 OFFCURVE",
"534 684 CURVE SMOOTH",
"509 617 OFFCURVE",
"489 548 OFFCURVE",
"466 476 CURVE",
"462 486 OFFCURVE",
"457 495 OFFCURVE",
"452 504 CURVE SMOOTH",
"446 514 OFFCURVE",
"441 522 OFFCURVE",
"434 531 CURVE",
"463 608 OFFCURVE",
"488 682 OFFCURVE",
"509 748 CURVE",
"527 749 OFFCURVE",
"546 748 OFFCURVE",
"564 746 CURVE"
);
},
{
closed = 1;
nodes = (
"639 43 OFFCURVE",
"479 53 OFFCURVE",
"372 57 CURVE SMOOTH",
"338 59 OFFCURVE",
"304 61 OFFCURVE",
"273 63 CURVE",
"301 85 OFFCURVE",
"347 118 OFFCURVE",
"361 119 CURVE SMOOTH",
"406 123 OFFCURVE",
"449 170 OFFCURVE",
"463 213 CURVE SMOOTH",
"527 412 OFFCURVE",
"563 538 OFFCURVE",
"641 734 CURVE",
"1040 638 OFFCURVE",
"1065 77 OFFCURVE",
"690 47 CURVE SMOOTH"
);
},
{
closed = 1;
nodes = (
"466 475 LINE",
"438 385 OFFCURVE",
"407 292 OFFCURVE",
"363 193 CURVE SMOOTH",
"335 129 OFFCURVE",
"311 101 OFFCURVE",
"256 64 CURVE",
"242 65 LINE",
"274 133 OFFCURVE",
"306 206 OFFCURVE",
"337 280 CURVE",
"338 277 LINE",
"412 319 LINE",
"407 329 OFFCURVE",
"403 338 OFFCURVE",
"397 347 CURVE SMOOTH",
"391 359 OFFCURVE",
"384 369 OFFCURVE",
"376 379 CURVE",
"384 398 OFFCURVE",
"392 417 OFFCURVE",
"399 437 CURVE"
);
}
);
width = 1046;
}
);
note = D;
},
{
color = 5;
glyphname = Eth.ss01;
lastChange = "2021-08-31 06:50:47 +0000";
layers = (
{
background = {
hints = (
{
horizontal = 1;
place = "{0, 16}";
type = Stem;
},
{
horizontal = 1;
place = "{617, 13}";
type = Stem;
},
{
place = "{648, 106}";
type = Stem;
},
{
horizontal = 1;
place = "{96.558, 30.726}";
type = Stem;
},
{
place = "{205.919, 136.562}";
type = Stem;
}
);
paths = (
{
closed = 1;
nodes = (
"608 672 OFFCURVE",
"469 616 OFFCURVE",
"341 616 CURVE SMOOTH",
"335 616 OFFCURVE",
"328 616 OFFCURVE",
"320 616 CURVE SMOOTH",
"258 615 OFFCURVE",
"191 619 OFFCURVE",
"118 620 CURVE SMOOTH",
"116 620 OFFCURVE",
"100 619 OFFCURVE",
"100 619 CURVE",
"90 603 LINE",
"90 603 OFFCURVE",
"108 603 OFFCURVE",
"113 603 CURVE SMOOTH",
"140 603 OFFCURVE",
"194 602 OFFCURVE",
"211 599 CURVE SMOOTH",
"252 592 OFFCURVE",
"241 529 OFFCURVE",
"238 498 CURVE SMOOTH",
"233 441 OFFCURVE",
"204 269 OFFCURVE",
"161 129 CURVE SMOOTH",
"123 4 OFFCURVE",
"130 14 OFFCURVE",
"-11 16 CURVE",
"-14 17 OFFCURVE",
"-24 17 OFFCURVE",
"-24 17 CURVE",
"-35 0 LINE",
"-35 0 OFFCURVE",
"-21 0 OFFCURVE",
"-16 0 CURVE SMOOTH",
"47 0 OFFCURVE",
"117 2 OFFCURVE",
"145 3 CURVE SMOOTH",
"166 3 OFFCURVE",
"182 3 OFFCURVE",
"190 2 CURVE",
"370 -2 OFFCURVE",
"444 -48 OFFCURVE",
"587 83 CURVE SMOOTH",
"663 153 LINE SMOOTH",
"744 228 OFFCURVE",
"819 384 OFFCURVE",
"705 540 CURVE SMOOTH"
);
},
{
closed = 1;
nodes = (
"493 49 OFFCURVE",
"327 4 OFFCURVE",
"268 50 CURVE",
"262 75 OFFCURVE",
"265 130 OFFCURVE",
"278 203 CURVE SMOOTH",
"287 258 OFFCURVE",
"313 442 OFFCURVE",
"355 536 CURVE SMOOTH",
"389 614 OFFCURVE",
"463 611 OFFCURVE",
"524 575 CURVE SMOOTH",
"694 475 OFFCURVE",
"704 220 OFFCURVE",
"537 85 CURVE SMOOTH"
);
},
{
closed = 1;
nodes = (
"114 238 LINE SMOOTH",
"109 238 OFFCURVE",
"92 204 OFFCURVE",
"97 204 CURVE SMOOTH",
"341 204 LINE SMOOTH",
"347 204 OFFCURVE",
"367 238 OFFCURVE",
"357 238 CURVE SMOOTH"
);
}
);
};
hints = (
{
horizontal = 1;
place = "{0, 12}";
type = Stem;
},
{
horizontal = 1;
place = "{477, 10}";
type = Stem;
},
{
place = "{-168, 82}";
type = Stem;
},
{
horizontal = 1;
place = "{268.456, 51.013}";
type = Stem;
}
);
layerId = "C36B7B90-196F-45C3-8412-B02CF16DA361";
paths = (
{
closed = 1;
nodes = (
"56 -1 OFFCURVE",
"116 5 OFFCURVE",
"191 2 CURVE SMOOTH",
"240 -1 OFFCURVE",
"276 -4 OFFCURVE",
"308 -5 CURVE SMOOTH",
"363 -7 OFFCURVE",
"600 -5 OFFCURVE",
"654 3 CURVE SMOOTH",
"1234 96 OFFCURVE",
"1095 721 OFFCURVE",
"663 785 CURVE",
"701 868 OFFCURVE",
"733 886 OFFCURVE",
"822 906 CURVE",
"820 914 LINE",
"799 910 OFFCURVE",
"733 894 OFFCURVE",
"696 869 CURVE SMOOTH",
"657 841 OFFCURVE",
"624 818 OFFCURVE",
"598 790 CURVE",
"572 791 OFFCURVE",
"546 789 OFFCURVE",
"520 786 CURVE SMOOTH",
"419 773 OFFCURVE",
"340 745 OFFCURVE",
"276 697 CURVE SMOOTH",
"177 623 OFFCURVE",
"117 516 OFFCURVE",
"183 403 CURVE SMOOTH",
"188 393 OFFCURVE",
"194 386 OFFCURVE",
"209 390 CURVE",
"209 390 OFFCURVE",
"292 424 OFFCURVE",
"321 435 CURVE",
"318 443 LINE",
"295 436 OFFCURVE",
"275 428 OFFCURVE",
"254 446 CURVE SMOOTH",
"242 456 OFFCURVE",
"229 481 OFFCURVE",
"222 509 CURVE SMOOTH",
"204 582 OFFCURVE",
"235 641 OFFCURVE",
"286 682 CURVE SMOOTH",
"336 722 OFFCURVE",
"409 743 OFFCURVE",
"484 747 CURVE SMOOTH",
"518 749 OFFCURVE",
"539 749 OFFCURVE",
"564 746 CURVE",
"552 728 OFFCURVE",
"542 708 OFFCURVE",
"534 684 CURVE SMOOTH",
"509 617 OFFCURVE",
"489 548 OFFCURVE",
"466 476 CURVE",
"465 475 LINE",
"466 475 LINE",
"438 385 OFFCURVE",
"407 292 OFFCURVE",
"363 193 CURVE SMOOTH",
"335 129 OFFCURVE",
"311 101 OFFCURVE",
"256 64 CURVE",
"215 67 OFFCURVE",
"151 71 OFFCURVE",
"134 67 CURVE SMOOTH",
"73 54 OFFCURVE",
"3 -28 OFFCURVE",
"-26 -50 CURVE",
"-22 -59 LINE"
);
},
{
closed = 1;
nodes = (
"639 43 OFFCURVE",
"479 51 OFFCURVE",
"372 57 CURVE SMOOTH",
"273 63 LINE",
"301 85 OFFCURVE",
"347 118 OFFCURVE",
"361 119 CURVE SMOOTH",
"406 123 OFFCURVE",
"449 170 OFFCURVE",
"463 213 CURVE SMOOTH",
"527 412 OFFCURVE",
"563 538 OFFCURVE",
"641 734 CURVE",
"1040 638 OFFCURVE",
"1065 77 OFFCURVE",
"690 47 CURVE SMOOTH"
);
},
{
closed = 1;
nodes = (
"886 768 OFFCURVE",
"889 778 OFFCURVE",
"892 790 CURVE",
"906 828 LINE SMOOTH",
"913 847 OFFCURVE",
"919 866 OFFCURVE",
"921 881 CURVE SMOOTH",
"924 899 OFFCURVE",
"916 902 OFFCURVE",
"900 902 CURVE SMOOTH",
"856 904 OFFCURVE",
"822 901 OFFCURVE",
"762 874 CURVE",
"765 866 LINE",
"852 896 OFFCURVE",
"899 849 OFFCURVE",
"876 768 CURVE",
"887 757 LINE"
);
},
{
closed = 1;
nodes = (
"311 315 LINE SMOOTH",
"302 315 OFFCURVE",
"273 268 OFFCURVE",
"283 268 CURVE SMOOTH",
"560 268 LINE SMOOTH",
"571 268 OFFCURVE",
"605 315 OFFCURVE",
"589 315 CURVE SMOOTH"
);
}
);
width = 1046;
}
);
},
{
color = 5;
glyphname = E.ss01;
lastChange = "2021-08-31 06:50:47 +0000";
layers = (
{
hints = (
{
horizontal = 1;
place = "{3, 26}";
type = Stem;
},
{
horizontal = 1;
place = "{286, 23}";
type = Stem;
},
{
horizontal = 1;
place = "{561, 12}";
type = Stem;
},
{
place = "{-192, 14}";
type = Stem;
}
);
layerId = "C36B7B90-196F-45C3-8412-B02CF16DA361";
paths = (
{
closed = 1;
nodes = (
"934 949 OFFCURVE",
"926 952 OFFCURVE",
"910 953 CURVE SMOOTH",
"866 954 OFFCURVE",
"832 951 OFFCURVE",
"772 924 CURVE",
"775 916 LINE",
"863 946 OFFCURVE",
"909 899 OFFCURVE",
"886 818 CURVE",
"898 807 LINE",
"897 818 OFFCURVE",
"899 828 OFFCURVE",
"903 840 CURVE SMOOTH",
"906 851 OFFCURVE",
"911 865 OFFCURVE",
"916 878 CURVE SMOOTH",
"923 897 OFFCURVE",
"930 916 OFFCURVE",
"932 931 CURVE SMOOTH"
);
},
{
closed = 1;
nodes = (
"1051 780 LINE SMOOTH",
"1058 784 OFFCURVE",
"1045 789 OFFCURVE",
"1045 789 CURVE",
"1027 777 OFFCURVE",
"994 764 OFFCURVE",
"994 764 CURVE",
"960 756 OFFCURVE",
"770 774 OFFCURVE",
"650 785 CURVE",
"694 865 OFFCURVE",
"719 886 OFFCURVE",
"808 906 CURVE",
"806 914 LINE",
"785 910 OFFCURVE",
"719 894 OFFCURVE",
"682 869 CURVE SMOOTH",
"643 841 OFFCURVE",
"610 818 OFFCURVE",
"584 790 CURVE",
"558 791 OFFCURVE",
"533 790 OFFCURVE",
"507 789 CURVE",
"538 890 OFFCURVE",
"554 966 OFFCURVE",
"549 995 CURVE SMOOTH",
"548 1005 OFFCURVE",
"532 1003 OFFCURVE",
"534 993 CURVE SMOOTH",
"537 973 OFFCURVE",
"517 895 OFFCURVE",
"483 787 CURVE",
"400 779 OFFCURVE",
"320 758 OFFCURVE",
"261 721 CURVE SMOOTH",
"158 654 OFFCURVE",
"91 551 OFFCURVE",
"148 434 CURVE SMOOTH",
"153 424 OFFCURVE",
"158 417 OFFCURVE",
"174 419 CURVE",
"174 419 OFFCURVE",
"258 447 OFFCURVE",
"288 456 CURVE",
"285 465 LINE",
"262 459 OFFCURVE",
"242 453 OFFCURVE",
"222 472 CURVE SMOOTH",
"211 483 OFFCURVE",
"199 509 OFFCURVE",
"195 537 CURVE SMOOTH",
"181 612 OFFCURVE",
"217 668 OFFCURVE",
"270 705 CURVE SMOOTH",
"324 743 OFFCURVE",
"396 747 OFFCURVE",
"469 742 CURVE",
"450 684 OFFCURVE",
"427 620 OFFCURVE",
"403 552 CURVE",
"401 554 LINE",
"327 511 LINE",
"344 492 OFFCURVE",
"356 477 OFFCURVE",
"365 460 CURVE SMOOTH",
"367 456 LINE",
"360 437 OFFCURVE",
"352 417 OFFCURVE",
"345 397 CURVE",
"272 355 LINE",
"289 336 OFFCURVE",
"300 322 OFFCURVE",
"309 306 CURVE",
"277 225 OFFCURVE",
"243 146 OFFCURVE",
"211 74 CURVE",
"171 73 OFFCURVE",
"139 71 OFFCURVE",
"120 67 CURVE SMOOTH",
"59 54 OFFCURVE",
"-11 -28 OFFCURVE",
"-40 -50 CURVE",
"-35 -59 LINE",
"42 -1 OFFCURVE",
"102 5 OFFCURVE",
"178 2 CURVE",
"142 -73 OFFCURVE",
"108 -137 OFFCURVE",
"78 -182 CURVE SMOOTH",
"72 -191 OFFCURVE",
"85 -200 OFFCURVE",
"91 -191 CURVE SMOOTH",
"124 -141 OFFCURVE",
"160 -75 OFFCURVE",
"197 1 CURVE",
"226 -1 OFFCURVE",
"258 -4 OFFCURVE",
"294 -5 CURVE SMOOTH",
"323 -6 OFFCURVE",
"761 -21 OFFCURVE",
"790 -3 CURVE SMOOTH",
"834 25 OFFCURVE",
"932 250 OFFCURVE",
"945 277 CURVE",
"937 284 LINE",
"861 130 OFFCURVE",
"802 68 OFFCURVE",
"711 64 CURVE SMOOTH",
"622 60 OFFCURVE",
"420 71 OFFCURVE",
"273 73 CURVE",
"300 94 OFFCURVE",
"336 119 OFFCURVE",
"347 119 CURVE SMOOTH",
"392 123 OFFCURVE",
"435 170 OFFCURVE",
"449 213 CURVE SMOOTH",
"463 256 OFFCURVE",
"479 305 OFFCURVE",
"495 355 CURVE",
"507 366 LINE SMOOTH",
"540 396 OFFCURVE",
"570 397 OFFCURVE",
"618 393 CURVE SMOOTH",
"661 389 OFFCURVE",
"741 361 OFFCURVE",
"777 386 CURVE SMOOTH",
"889 463 LINE",
"881 481 LINE",
"846 452 OFFCURVE",
"794 449 OFFCURVE",
"693 458 CURVE SMOOTH",
"639 463 OFFCURVE",
"582 462 OFFCURVE",
"545 428 CURVE SMOOTH",
"526 411 OFFCURVE",
"515 400 OFFCURVE",
"507 392 CURVE",
"548 520 OFFCURVE",
"591 651 OFFCURVE",
"623 728 CURVE",
"710 715 OFFCURVE",
"887 682 OFFCURVE",
"923 703 CURVE SMOOTH"
);
},
{
closed = 1;
nodes = (
"535 720 OFFCURVE",
"527 703 OFFCURVE",
"520 684 CURVE SMOOTH",
"495 617 OFFCURVE",
"475 548 OFFCURVE",
"452 476 CURVE",
"448 486 OFFCURVE",
"443 495 OFFCURVE",
"438 504 CURVE SMOOTH",
"433 514 OFFCURVE",
"427 522 OFFCURVE",
"420 531 CURVE",
"448 605 OFFCURVE",
"472 677 OFFCURVE",
"493 741 CURVE",
"510 739 OFFCURVE",
"527 738 OFFCURVE",
"543 736 CURVE"
);
},
{
closed = 1;
nodes = (
"452 475 LINE",
"424 385 OFFCURVE",
"393 292 OFFCURVE",
"349 193 CURVE SMOOTH",
"323 134 OFFCURVE",
"301 106 OFFCURVE",
"256 74 CURVE",
"232 74 LINE",
"262 139 OFFCURVE",
"293 209 OFFCURVE",
"323 280 CURVE",
"324 277 LINE",
"398 319 LINE",
"394 329 OFFCURVE",
"389 338 OFFCURVE",
"384 347 CURVE SMOOTH",
"377 359 OFFCURVE",
"370 369 OFFCURVE",
"363 379 CURVE",
"370 398 OFFCURVE",
"378 417 OFFCURVE",
"385 437 CURVE"
);
}
);
width = 952;
}
);
note = E;
},
{
color = 11;
glyphname = Eacute.ss01;
lastChange = "2021-08-31 06:50:47 +0000";
layers = (
{
hints = (
{
horizontal = 1;
place = "{-192, 21}";
target = up;
type = BottomGhost;
},
{
horizontal = 1;
place = "{-9, 85}";
type = Stem;
},
{
horizontal = 1;
place = "{484, -20}";
target = down;
type = TopGhost;
},
{
horizontal = 1;
place = "{741, 51}";
type = Stem;
},
{
horizontal = 1;
place = "{928, 27}";
type = Stem;
},
{
place = "{128, 64}";
type = Stem;
},
{
place = "{534, 16}";
type = Stem;
},
{
place = "{892, 40}";
type = Stem;
},
{
horizontal = 1;
place = "{698, 89}";
type = Stem;
},
{
horizontal = 1;
place = "{422, 39}";
type = Stem;
},
{
horizontal = 1;
place = "{745, 45}";
type = Stem;
},
{
horizontal = 1;
place = "{379, 78}";
type = Stem;
},
{
place = "{886, 12}";
type = Stem;
}
);
layerId = "C36B7B90-196F-45C3-8412-B02CF16DA361";
paths = (
{
closed = 1;
nodes = (
"934 951 OFFCURVE",
"926 955 OFFCURVE",
"910 955 CURVE SMOOTH",
"866 957 OFFCURVE",
"832 953 OFFCURVE",
"773 927 CURVE",
"776 918 LINE",
"863 949 OFFCURVE",
"909 902 OFFCURVE",
"886 821 CURVE",
"898 810 LINE",
"897 821 OFFCURVE",
"899 831 OFFCURVE",
"903 842 CURVE SMOOTH",
"907 854 OFFCURVE",
"912 867 OFFCURVE",
"917 881 CURVE SMOOTH",
"923 900 OFFCURVE",
"930 919 OFFCURVE",
"932 934 CURVE SMOOTH"
);
},
{
closed = 1;
nodes = (
"1052 782 LINE SMOOTH",
"1059 786 OFFCURVE",
"1046 792 OFFCURVE",
"1046 792 CURVE",
"1027 780 OFFCURVE",
"994 767 OFFCURVE",
"994 767 CURVE",
"961 759 OFFCURVE",
"770 776 OFFCURVE",
"650 787 CURVE",
"694 868 OFFCURVE",
"719 889 OFFCURVE",
"809 909 CURVE",
"806 917 LINE",
"785 913 OFFCURVE",
"719 897 OFFCURVE",
"683 871 CURVE SMOOTH",
"643 844 OFFCURVE",
"611 820 OFFCURVE",
"584 792 CURVE",
"559 793 OFFCURVE",
"533 793 OFFCURVE",
"508 792 CURVE",
"538 893 OFFCURVE",
"554 969 OFFCURVE",
"550 998 CURVE SMOOTH",
"548 1008 OFFCURVE",
"533 1006 OFFCURVE",
"534 996 CURVE SMOOTH",
"538 975 OFFCURVE",
"518 897 OFFCURVE",
"483 790 CURVE",
"400 782 OFFCURVE",
"320 761 OFFCURVE",
"262 723 CURVE SMOOTH",
"158 657 OFFCURVE",
"91 554 OFFCURVE",
"149 436 CURVE SMOOTH",
"153 426 OFFCURVE",
"159 419 OFFCURVE",
"174 422 CURVE",
"174 422 OFFCURVE",
"258 449 OFFCURVE",
"288 459 CURVE",
"286 467 LINE",
"263 461 OFFCURVE",
"242 455 OFFCURVE",
"222 475 CURVE SMOOTH",
"211 485 OFFCURVE",
"200 512 OFFCURVE",
"195 539 CURVE SMOOTH",
"182 614 OFFCURVE",
"217 670 OFFCURVE",
"271 708 CURVE SMOOTH",
"325 745 OFFCURVE",
"396 749 OFFCURVE",
"469 745 CURVE",
"450 687 OFFCURVE",
"428 622 OFFCURVE",
"403 555 CURVE",
"401 557 LINE",
"327 514 LINE",
"345 494 OFFCURVE",
"356 480 OFFCURVE",
"366 463 CURVE SMOOTH",
"368 459 LINE",
"360 439 OFFCURVE",
"353 419 OFFCURVE",
"345 399 CURVE",
"272 357 LINE",
"289 339 OFFCURVE",
"300 325 OFFCURVE",
"309 309 CURVE",
"277 228 OFFCURVE",
"244 149 OFFCURVE",
"211 76 CURVE",
"171 76 OFFCURVE",
"139 74 OFFCURVE",
"120 70 CURVE SMOOTH",
"59 57 OFFCURVE",
"-11 -26 OFFCURVE",
"-40 -47 CURVE",
"-35 -56 LINE",
"42 2 OFFCURVE",
"102 8 OFFCURVE",
"178 4 CURVE",
"142 -70 OFFCURVE",
"108 -134 OFFCURVE",
"78 -180 CURVE SMOOTH",
"73 -188 OFFCURVE",
"85 -197 OFFCURVE",
"91 -188 CURVE SMOOTH",
"124 -139 OFFCURVE",
"160 -72 OFFCURVE",
"198 3 CURVE",
"227 2 OFFCURVE",
"259 -1 OFFCURVE",
"295 -2 CURVE SMOOTH",
"324 -3 OFFCURVE",
"761 -18 OFFCURVE",
"790 0 CURVE SMOOTH",
"834 28 OFFCURVE",
"933 253 OFFCURVE",
"945 280 CURVE",
"937 287 LINE",
"861 133 OFFCURVE",
"802 71 OFFCURVE",
"711 66 CURVE SMOOTH",
"622 62 OFFCURVE",
"420 74 OFFCURVE",
"273 76 CURVE",
"301 97 OFFCURVE",
"336 121 OFFCURVE",
"347 122 CURVE SMOOTH",
"392 125 OFFCURVE",
"435 172 OFFCURVE",
"449 216 CURVE SMOOTH",
"463 259 OFFCURVE",
"479 307 OFFCURVE",
"495 358 CURVE",
"508 369 LINE SMOOTH",
"541 399 OFFCURVE",
"571 400 OFFCURVE",
"618 396 CURVE SMOOTH",
"661 392 OFFCURVE",
"742 364 OFFCURVE",
"778 389 CURVE SMOOTH",
"889 466 LINE",
"882 484 LINE",
"846 455 OFFCURVE",
"795 452 OFFCURVE",
"694 461 CURVE SMOOTH",
"640 466 OFFCURVE",
"582 465 OFFCURVE",
"545 430 CURVE SMOOTH",
"527 413 OFFCURVE",
"515 403 OFFCURVE",
"507 395 CURVE",
"548 522 OFFCURVE",
"591 654 OFFCURVE",
"623 730 CURVE",
"710 718 OFFCURVE",
"887 684 OFFCURVE",
"923 705 CURVE SMOOTH"
);
},
{
closed = 1;
nodes = (
"535 723 OFFCURVE",
"527 706 OFFCURVE",
"520 686 CURVE SMOOTH",
"496 619 OFFCURVE",
"475 551 OFFCURVE",
"453 479 CURVE",
"448 489 OFFCURVE",
"444 497 OFFCURVE",
"438 507 CURVE SMOOTH",
"433 516 OFFCURVE",
"427 525 OFFCURVE",
"421 533 CURVE",
"448 608 OFFCURVE",
"473 679 OFFCURVE",
"493 743 CURVE",
"510 742 OFFCURVE",
"527 740 OFFCURVE",
"544 739 CURVE"
);
},
{
closed = 1;
nodes = (
"452 478 LINE",
"424 388 OFFCURVE",
"393 294 OFFCURVE",
"350 196 CURVE SMOOTH",
"324 137 OFFCURVE",
"302 109 OFFCURVE",
"256 76 CURVE",
"232 76 LINE",
"263 141 OFFCURVE",
"293 211 OFFCURVE",
"323 283 CURVE",
"325 279 LINE",
"398 322 LINE",
"394 332 OFFCURVE",
"389 340 OFFCURVE",
"384 350 CURVE SMOOTH",
"377 361 OFFCURVE",
"371 371 OFFCURVE",
"363 381 CURVE",
"371 401 OFFCURVE",
"378 420 OFFCURVE",
"386 440 CURVE"
);
},
{
closed = 1;
nodes = (
"983 1054 OFFCURVE",
"945 1072 OFFCURVE",
"913 1065 CURVE SMOOTH",
"894 1060 OFFCURVE",
"851 1015 OFFCURVE",
"802 999 CURVE SMOOTH",
"781 993 OFFCURVE",
"800 985 OFFCURVE",
"812 986 CURVE SMOOTH",
"855 987 OFFCURVE",
"937 1017 OFFCURVE",
"976 1048 CURVE SMOOTH"
);
}
);
width = 952;
}
);
note = Eacute;
},
{
color = 11;
glyphname = Ecircumflex.ss01;
lastChange = "2021-08-31 06:50:47 +0000";
layers = (
{
hints = (
{
horizontal = 1;
place = "{-192, 21}";
target = up;
type = BottomGhost;
},
{
horizontal = 1;
place = "{-9, 85}";
type = Stem;
},
{
horizontal = 1;
place = "{484, -20}";
target = down;
type = TopGhost;
},
{
horizontal = 1;
place = "{743, 49}";
type = Stem;
},
{
horizontal = 1;
place = "{928, 27}";
type = Stem;
},
{
place = "{127, 65}";
type = Stem;
},
{
place = "{534, 15}";
type = Stem;
},
{
place = "{892, 40}";
type = Stem;
},
{
horizontal = 1;
place = "{698, 89}";
type = Stem;
},
{
horizontal = 1;
place = "{422, 39}";
type = Stem;
},
{
horizontal = 1;
place = "{379, 78}";
type = Stem;
},
{
place = "{886, 12}";
type = Stem;
}
);
layerId = "C36B7B90-196F-45C3-8412-B02CF16DA361";
paths = (
{
closed = 1;
nodes = (
"934 951 OFFCURVE",
"926 955 OFFCURVE",
"910 955 CURVE SMOOTH",
"866 957 OFFCURVE",
"832 953 OFFCURVE",
"772 927 CURVE",
"775 918 LINE",
"863 949 OFFCURVE",
"909 902 OFFCURVE",
"886 821 CURVE",
"898 810 LINE",
"897 821 OFFCURVE",
"899 831 OFFCURVE",
"903 842 CURVE SMOOTH",
"906 854 OFFCURVE",
"911 867 OFFCURVE",
"916 881 CURVE SMOOTH",
"923 900 OFFCURVE",
"930 919 OFFCURVE",
"932 934 CURVE SMOOTH"
);
},
{
closed = 1;
nodes = (
"1051 782 LINE SMOOTH",
"1058 786 OFFCURVE",
"1045 792 OFFCURVE",
"1045 792 CURVE",
"1027 780 OFFCURVE",
"994 767 OFFCURVE",
"994 767 CURVE",
"960 759 OFFCURVE",
"770 776 OFFCURVE",
"650 787 CURVE",
"694 868 OFFCURVE",
"719 889 OFFCURVE",
"808 909 CURVE",
"806 917 LINE",
"785 913 OFFCURVE",
"719 897 OFFCURVE",
"682 871 CURVE SMOOTH",
"643 844 OFFCURVE",
"610 820 OFFCURVE",
"584 792 CURVE",
"558 793 OFFCURVE",
"533 793 OFFCURVE",
"507 792 CURVE",
"538 893 OFFCURVE",
"554 969 OFFCURVE",
"549 998 CURVE SMOOTH",
"548 1008 OFFCURVE",
"532 1006 OFFCURVE",
"534 996 CURVE SMOOTH",
"537 975 OFFCURVE",
"517 897 OFFCURVE",
"483 790 CURVE",
"400 782 OFFCURVE",
"320 761 OFFCURVE",
"261 723 CURVE SMOOTH",
"158 657 OFFCURVE",
"91 554 OFFCURVE",
"148 436 CURVE SMOOTH",
"153 426 OFFCURVE",
"158 419 OFFCURVE",
"174 422 CURVE",
"174 422 OFFCURVE",
"258 449 OFFCURVE",
"288 459 CURVE",
"285 467 LINE",
"262 461 OFFCURVE",
"242 455 OFFCURVE",
"222 475 CURVE SMOOTH",
"211 485 OFFCURVE",
"199 512 OFFCURVE",
"195 539 CURVE SMOOTH",
"181 614 OFFCURVE",
"217 670 OFFCURVE",
"270 708 CURVE SMOOTH",
"324 745 OFFCURVE",
"396 749 OFFCURVE",
"469 745 CURVE",
"450 687 OFFCURVE",
"427 622 OFFCURVE",
"403 555 CURVE",
"401 557 LINE",
"327 514 LINE",
"344 494 OFFCURVE",
"356 480 OFFCURVE",
"365 463 CURVE SMOOTH",
"367 459 LINE",
"360 439 OFFCURVE",
"352 419 OFFCURVE",
"344 399 CURVE",
"272 357 LINE",
"289 339 OFFCURVE",
"300 325 OFFCURVE",
"309 309 CURVE",
"277 228 OFFCURVE",
"243 149 OFFCURVE",
"211 76 CURVE",
"171 76 OFFCURVE",
"139 74 OFFCURVE",
"120 70 CURVE SMOOTH",
"59 57 OFFCURVE",
"-11 -26 OFFCURVE",
"-40 -47 CURVE",
"-35 -56 LINE",
"42 2 OFFCURVE",
"102 8 OFFCURVE",
"177 4 CURVE",
"142 -70 OFFCURVE",
"108 -134 OFFCURVE",
"78 -180 CURVE SMOOTH",
"72 -188 OFFCURVE",
"85 -197 OFFCURVE",
"91 -188 CURVE SMOOTH",
"124 -139 OFFCURVE",
"160 -72 OFFCURVE",
"197 3 CURVE",
"226 2 OFFCURVE",
"258 -1 OFFCURVE",
"294 -2 CURVE SMOOTH",
"323 -3 OFFCURVE",
"760 -18 OFFCURVE",
"790 0 CURVE SMOOTH",
"834 28 OFFCURVE",
"932 253 OFFCURVE",
"945 280 CURVE",
"936 287 LINE",
"861 133 OFFCURVE",
"802 71 OFFCURVE",
"711 66 CURVE SMOOTH",
"622 62 OFFCURVE",
"420 74 OFFCURVE",
"273 76 CURVE",
"300 97 OFFCURVE",
"336 121 OFFCURVE",
"347 122 CURVE SMOOTH",
"392 125 OFFCURVE",
"435 172 OFFCURVE",
"449 216 CURVE SMOOTH",
"463 259 OFFCURVE",
"478 307 OFFCURVE",
"495 358 CURVE",
"507 369 LINE SMOOTH",
"540 399 OFFCURVE",
"570 400 OFFCURVE",
"618 396 CURVE SMOOTH",
"661 392 OFFCURVE",
"741 364 OFFCURVE",
"777 389 CURVE SMOOTH",
"889 466 LINE",
"881 484 LINE",
"846 455 OFFCURVE",
"794 452 OFFCURVE",
"693 461 CURVE SMOOTH",
"639 466 OFFCURVE",
"582 465 OFFCURVE",
"545 430 CURVE SMOOTH",
"526 413 OFFCURVE",
"515 403 OFFCURVE",
"507 395 CURVE",
"547 522 OFFCURVE",
"591 654 OFFCURVE",
"623 730 CURVE",
"710 718 OFFCURVE",
"887 684 OFFCURVE",
"923 705 CURVE SMOOTH"
);
},
{
closed = 1;
nodes = (
"535 723 OFFCURVE",
"527 706 OFFCURVE",
"520 686 CURVE SMOOTH",
"495 619 OFFCURVE",
"475 551 OFFCURVE",
"452 479 CURVE",
"448 489 OFFCURVE",
"443 497 OFFCURVE",
"438 507 CURVE SMOOTH",
"433 516 OFFCURVE",
"427 525 OFFCURVE",
"420 533 CURVE",
"448 608 OFFCURVE",
"472 679 OFFCURVE",
"493 743 CURVE",
"510 742 OFFCURVE",
"527 740 OFFCURVE",
"543 739 CURVE"
);
},
{
closed = 1;
nodes = (
"452 478 LINE",
"424 388 OFFCURVE",
"393 294 OFFCURVE",
"349 196 CURVE SMOOTH",
"323 137 OFFCURVE",
"301 109 OFFCURVE",
"256 76 CURVE",
"232 76 LINE",
"262 141 OFFCURVE",
"293 211 OFFCURVE",
"323 283 CURVE",
"324 279 LINE",
"398 322 LINE",
"394 332 OFFCURVE",
"389 340 OFFCURVE",
"384 350 CURVE SMOOTH",
"377 361 OFFCURVE",
"370 371 OFFCURVE",
"362 381 CURVE",
"370 401 OFFCURVE",
"378 420 OFFCURVE",
"385 440 CURVE"
);
},
{
closed = 1;
nodes = (
"932 1034 OFFCURVE",
"895 1073 OFFCURVE",
"878 1105 CURVE SMOOTH",
"874 1112 OFFCURVE",
"868 1109 OFFCURVE",
"863 1104 CURVE SMOOTH",
"830 1073 OFFCURVE",
"760 1013 OFFCURVE",
"718 985 CURVE SMOOTH",
"687 964 OFFCURVE",
"730 978 OFFCURVE",
"741 984 CURVE SMOOTH",
"755 991 OFFCURVE",
"814 1033 OFFCURVE",
"845 1062 CURVE",
"848 1064 OFFCURVE",
"851 1064 OFFCURVE",
"852 1062 CURVE",
"871 1037 OFFCURVE",
"901 1000 OFFCURVE",
"930 986 CURVE SMOOTH",
"938 982 OFFCURVE",
"987 998 OFFCURVE",
"971 1008 CURVE SMOOTH"
);
}
);
width = 952;
}
);
note = Ecircumflex;
},
{
color = 11;
glyphname = Edieresis.ss01;
lastChange = "2021-08-31 06:50:47 +0000";
layers = (
{
hints = (
{
horizontal = 1;
place = "{-192, 21}";
target = up;
type = BottomGhost;
},
{
horizontal = 1;
place = "{-9, 85}";
type = Stem;
},
{
horizontal = 1;
place = "{484, -20}";
target = down;
type = TopGhost;
},
{
horizontal = 1;
place = "{743, 49}";
type = Stem;
},
{
horizontal = 1;
place = "{928, 27}";
type = Stem;
},
{
horizontal = 1;
place = "{988, 65}";
type = Stem;
},
{
place = "{127, 65}";
type = Stem;
},
{
place = "{534, 15}";
type = Stem;
},
{
place = "{892, 40}";
type = Stem;
},
{
horizontal = 1;
place = "{698, 89}";
type = Stem;
},
{
horizontal = 1;
place = "{422, 39}";
type = Stem;
},
{
horizontal = 1;
place = "{379, 78}";
type = Stem;
},
{
place = "{886, 12}";
type = Stem;
}
);
layerId = "C36B7B90-196F-45C3-8412-B02CF16DA361";
paths = (
{
closed = 1;
nodes = (
"934 951 OFFCURVE",
"926 955 OFFCURVE",
"910 955 CURVE SMOOTH",
"866 957 OFFCURVE",
"832 953 OFFCURVE",
"772 927 CURVE",
"775 918 LINE",
"863 949 OFFCURVE",
"909 902 OFFCURVE",
"886 821 CURVE",
"898 810 LINE",
"897 821 OFFCURVE",
"899 831 OFFCURVE",
"903 842 CURVE SMOOTH",
"906 854 OFFCURVE",
"911 867 OFFCURVE",
"916 881 CURVE SMOOTH",
"923 900 OFFCURVE",
"930 919 OFFCURVE",
"932 934 CURVE SMOOTH"
);
},
{
closed = 1;
nodes = (
"1051 782 LINE SMOOTH",
"1058 786 OFFCURVE",
"1045 792 OFFCURVE",
"1045 792 CURVE",
"1027 780 OFFCURVE",
"994 767 OFFCURVE",
"994 767 CURVE",
"960 759 OFFCURVE",
"770 776 OFFCURVE",
"650 787 CURVE",
"694 868 OFFCURVE",
"719 889 OFFCURVE",
"808 909 CURVE",
"806 917 LINE",
"785 913 OFFCURVE",
"719 897 OFFCURVE",
"682 871 CURVE SMOOTH",
"643 844 OFFCURVE",
"610 820 OFFCURVE",
"584 792 CURVE",
"558 793 OFFCURVE",
"533 793 OFFCURVE",
"507 792 CURVE",
"538 893 OFFCURVE",
"554 969 OFFCURVE",
"549 998 CURVE SMOOTH",
"548 1008 OFFCURVE",
"532 1006 OFFCURVE",
"534 996 CURVE SMOOTH",
"537 975 OFFCURVE",
"517 897 OFFCURVE",
"483 790 CURVE",
"400 782 OFFCURVE",
"320 761 OFFCURVE",
"261 723 CURVE SMOOTH",
"158 657 OFFCURVE",
"91 554 OFFCURVE",
"148 436 CURVE SMOOTH",
"153 426 OFFCURVE",
"158 419 OFFCURVE",
"174 422 CURVE",
"174 422 OFFCURVE",
"258 449 OFFCURVE",
"288 459 CURVE",
"285 467 LINE",
"262 461 OFFCURVE",
"242 455 OFFCURVE",
"222 475 CURVE SMOOTH",
"211 485 OFFCURVE",
"199 512 OFFCURVE",
"195 539 CURVE SMOOTH",
"181 614 OFFCURVE",
"217 670 OFFCURVE",
"270 708 CURVE SMOOTH",
"324 745 OFFCURVE",
"396 749 OFFCURVE",
"469 745 CURVE",
"450 687 OFFCURVE",
"427 622 OFFCURVE",
"403 555 CURVE",
"401 557 LINE",
"327 514 LINE",
"344 494 OFFCURVE",
"356 480 OFFCURVE",
"365 463 CURVE SMOOTH",
"367 459 LINE",
"360 439 OFFCURVE",
"352 419 OFFCURVE",
"344 399 CURVE",
"272 357 LINE",
"289 339 OFFCURVE",
"300 325 OFFCURVE",
"309 309 CURVE",
"277 228 OFFCURVE",
"243 149 OFFCURVE",
"211 76 CURVE",
"171 76 OFFCURVE",
"139 74 OFFCURVE",
"120 70 CURVE SMOOTH",
"59 57 OFFCURVE",
"-11 -26 OFFCURVE",
"-40 -47 CURVE",
"-35 -56 LINE",
"42 2 OFFCURVE",
"102 8 OFFCURVE",
"177 4 CURVE",
"142 -70 OFFCURVE",
"108 -134 OFFCURVE",
"78 -180 CURVE SMOOTH",
"72 -188 OFFCURVE",
"85 -197 OFFCURVE",
"91 -188 CURVE SMOOTH",
"124 -139 OFFCURVE",
"160 -72 OFFCURVE",
"197 3 CURVE",
"226 2 OFFCURVE",
"258 -1 OFFCURVE",
"294 -2 CURVE SMOOTH",
"323 -3 OFFCURVE",
"760 -18 OFFCURVE",
"790 0 CURVE SMOOTH",
"834 28 OFFCURVE",
"932 253 OFFCURVE",
"945 280 CURVE",
"936 287 LINE",
"861 133 OFFCURVE",
"802 71 OFFCURVE",
"711 66 CURVE SMOOTH",
"622 62 OFFCURVE",
"420 74 OFFCURVE",
"273 76 CURVE",
"300 97 OFFCURVE",
"336 121 OFFCURVE",
"347 122 CURVE SMOOTH",
"392 125 OFFCURVE",
"435 172 OFFCURVE",
"449 216 CURVE SMOOTH",
"463 259 OFFCURVE",
"478 307 OFFCURVE",
"495 358 CURVE",
"507 369 LINE SMOOTH",
"540 399 OFFCURVE",
"570 400 OFFCURVE",
"618 396 CURVE SMOOTH",
"661 392 OFFCURVE",
"741 364 OFFCURVE",
"777 389 CURVE SMOOTH",
"889 466 LINE",
"881 484 LINE",
"846 455 OFFCURVE",
"794 452 OFFCURVE",
"693 461 CURVE SMOOTH",
"639 466 OFFCURVE",
"582 465 OFFCURVE",
"545 430 CURVE SMOOTH",
"526 413 OFFCURVE",
"515 403 OFFCURVE",
"507 395 CURVE",
"547 522 OFFCURVE",
"591 654 OFFCURVE",
"623 730 CURVE",
"710 718 OFFCURVE",
"887 684 OFFCURVE",
"923 705 CURVE SMOOTH"
);
},
{
closed = 1;
nodes = (
"535 723 OFFCURVE",
"527 706 OFFCURVE",
"520 686 CURVE SMOOTH",
"495 619 OFFCURVE",
"475 551 OFFCURVE",
"452 479 CURVE",
"448 489 OFFCURVE",
"443 497 OFFCURVE",
"438 507 CURVE SMOOTH",
"433 516 OFFCURVE",
"427 525 OFFCURVE",
"420 533 CURVE",
"448 608 OFFCURVE",
"472 679 OFFCURVE",
"493 743 CURVE",
"510 742 OFFCURVE",
"527 740 OFFCURVE",
"543 739 CURVE"
);
},
{
closed = 1;
nodes = (
"452 478 LINE",
"424 388 OFFCURVE",
"393 294 OFFCURVE",
"349 196 CURVE SMOOTH",
"323 137 OFFCURVE",
"301 109 OFFCURVE",
"256 76 CURVE",
"232 76 LINE",
"262 141 OFFCURVE",
"293 211 OFFCURVE",
"323 283 CURVE",
"324 279 LINE",
"398 322 LINE",
"394 332 OFFCURVE",
"389 340 OFFCURVE",
"384 350 CURVE SMOOTH",
"377 361 OFFCURVE",
"370 371 OFFCURVE",
"362 381 CURVE",
"370 401 OFFCURVE",
"378 420 OFFCURVE",
"385 440 CURVE"
);
},
{
closed = 1;
nodes = (
"992 1055 OFFCURVE",
"992 1058 OFFCURVE",
"988 1055 CURVE SMOOTH",
"985 1052 OFFCURVE",
"980 1051 OFFCURVE",
"973 1050 CURVE SMOOTH",
"960 1048 OFFCURVE",
"948 1053 OFFCURVE",
"932 1053 CURVE SMOOTH",
"910 1053 OFFCURVE",
"893 1031 OFFCURVE",
"879 1003 CURVE SMOOTH",
"874 990 OFFCURVE",
"882 986 OFFCURVE",
"901 988 CURVE SMOOTH",
"918 990 OFFCURVE",
"934 983 OFFCURVE",
"949 990 CURVE SMOOTH",
"960 996 OFFCURVE",
"985 1034 OFFCURVE",
"991 1049 CURVE"
);
},
{
closed = 1;
nodes = (
"844 1055 OFFCURVE",
"844 1058 OFFCURVE",
"840 1055 CURVE SMOOTH",
"837 1052 OFFCURVE",
"832 1051 OFFCURVE",
"825 1050 CURVE SMOOTH",
"811 1048 OFFCURVE",
"800 1053 OFFCURVE",
"783 1053 CURVE SMOOTH",
"762 1053 OFFCURVE",
"745 1031 OFFCURVE",
"731 1003 CURVE SMOOTH",
"725 990 OFFCURVE",
"734 986 OFFCURVE",
"753 988 CURVE SMOOTH",
"770 990 OFFCURVE",
"786 983 OFFCURVE",
"801 990 CURVE SMOOTH",
"812 996 OFFCURVE",
"836 1034 OFFCURVE",
"842 1049 CURVE SMOOTH"
);
}
);
width = 952;
}
);
note = Edieresis;
},
{
color = 11;
glyphname = Egrave.ss01;
lastChange = "2021-08-31 06:50:47 +0000";
layers = (
{
hints = (
{
horizontal = 1;
place = "{-192, 21}";
target = up;
type = BottomGhost;
},
{
horizontal = 1;
place = "{-9, 85}";
type = Stem;
},
{
horizontal = 1;
place = "{484, -20}";
target = down;
type = TopGhost;
},
{
horizontal = 1;
place = "{743, 49}";
type = Stem;
},
{
horizontal = 1;
place = "{928, 27}";
type = Stem;
},
{
place = "{127, 65}";
type = Stem;
},
{
place = "{534, 15}";
type = Stem;
},
{
place = "{892, 40}";
type = Stem;
},
{
horizontal = 1;
place = "{698, 89}";
type = Stem;
},
{
horizontal = 1;
place = "{422, 39}";
type = Stem;
},
{
horizontal = 1;
place = "{379, 78}";
type = Stem;
},
{
place = "{886, 12}";
type = Stem;
}
);
layerId = "C36B7B90-196F-45C3-8412-B02CF16DA361";
paths = (
{
closed = 1;
nodes = (
"934 951 OFFCURVE",
"926 955 OFFCURVE",
"910 955 CURVE SMOOTH",
"866 957 OFFCURVE",
"832 953 OFFCURVE",
"772 927 CURVE",
"775 918 LINE",
"863 949 OFFCURVE",
"909 902 OFFCURVE",
"886 821 CURVE",
"898 810 LINE",
"897 821 OFFCURVE",
"899 831 OFFCURVE",
"903 842 CURVE SMOOTH",
"906 854 OFFCURVE",
"911 867 OFFCURVE",
"916 881 CURVE SMOOTH",
"923 900 OFFCURVE",
"930 919 OFFCURVE",
"932 934 CURVE SMOOTH"
);
},
{
closed = 1;
nodes = (
"1051 782 LINE SMOOTH",
"1058 786 OFFCURVE",
"1045 792 OFFCURVE",
"1045 792 CURVE",
"1027 780 OFFCURVE",
"994 767 OFFCURVE",
"994 767 CURVE",
"960 759 OFFCURVE",
"770 776 OFFCURVE",
"650 787 CURVE",
"694 868 OFFCURVE",
"719 889 OFFCURVE",
"808 909 CURVE",
"806 917 LINE",
"785 913 OFFCURVE",
"719 897 OFFCURVE",
"682 871 CURVE SMOOTH",
"643 844 OFFCURVE",
"610 820 OFFCURVE",
"584 792 CURVE",
"558 793 OFFCURVE",
"533 793 OFFCURVE",
"507 792 CURVE",
"538 893 OFFCURVE",
"554 969 OFFCURVE",
"549 998 CURVE SMOOTH",
"548 1008 OFFCURVE",
"532 1006 OFFCURVE",
"534 996 CURVE SMOOTH",
"537 975 OFFCURVE",
"517 897 OFFCURVE",
"483 790 CURVE",
"400 782 OFFCURVE",
"320 761 OFFCURVE",
"261 723 CURVE SMOOTH",
"158 657 OFFCURVE",
"91 554 OFFCURVE",
"148 436 CURVE SMOOTH",
"153 426 OFFCURVE",
"158 419 OFFCURVE",
"174 422 CURVE",
"174 422 OFFCURVE",
"258 449 OFFCURVE",
"288 459 CURVE",
"285 467 LINE",
"262 461 OFFCURVE",
"242 455 OFFCURVE",
"222 475 CURVE SMOOTH",
"211 485 OFFCURVE",
"199 512 OFFCURVE",
"195 539 CURVE SMOOTH",
"181 614 OFFCURVE",
"217 670 OFFCURVE",
"270 708 CURVE SMOOTH",
"324 745 OFFCURVE",
"396 749 OFFCURVE",
"469 745 CURVE",
"450 687 OFFCURVE",
"427 622 OFFCURVE",
"403 555 CURVE",
"401 557 LINE",
"327 514 LINE",
"344 494 OFFCURVE",
"356 480 OFFCURVE",
"365 463 CURVE SMOOTH",
"367 459 LINE",
"360 439 OFFCURVE",
"352 419 OFFCURVE",
"344 399 CURVE",
"272 357 LINE",
"289 339 OFFCURVE",
"300 325 OFFCURVE",
"309 309 CURVE",
"277 228 OFFCURVE",
"243 149 OFFCURVE",
"211 76 CURVE",
"171 76 OFFCURVE",
"139 74 OFFCURVE",
"120 70 CURVE SMOOTH",
"59 57 OFFCURVE",
"-11 -26 OFFCURVE",
"-40 -47 CURVE",
"-35 -56 LINE",
"42 2 OFFCURVE",
"102 8 OFFCURVE",
"177 4 CURVE",
"142 -70 OFFCURVE",
"108 -134 OFFCURVE",
"78 -180 CURVE SMOOTH",
"72 -188 OFFCURVE",
"85 -197 OFFCURVE",
"91 -188 CURVE SMOOTH",
"124 -139 OFFCURVE",
"160 -72 OFFCURVE",
"197 3 CURVE",
"226 2 OFFCURVE",
"258 -1 OFFCURVE",
"294 -2 CURVE SMOOTH",
"323 -3 OFFCURVE",
"760 -18 OFFCURVE",
"790 0 CURVE SMOOTH",
"834 28 OFFCURVE",
"932 253 OFFCURVE",
"945 280 CURVE",
"936 287 LINE",
"861 133 OFFCURVE",
"802 71 OFFCURVE",
"711 66 CURVE SMOOTH",
"622 62 OFFCURVE",
"420 74 OFFCURVE",
"273 76 CURVE",
"300 97 OFFCURVE",
"336 121 OFFCURVE",
"347 122 CURVE SMOOTH",
"392 125 OFFCURVE",
"435 172 OFFCURVE",
"449 216 CURVE SMOOTH",
"463 259 OFFCURVE",
"478 307 OFFCURVE",
"495 358 CURVE",
"507 369 LINE SMOOTH",
"540 399 OFFCURVE",
"570 400 OFFCURVE",
"618 396 CURVE SMOOTH",
"661 392 OFFCURVE",
"741 364 OFFCURVE",
"777 389 CURVE SMOOTH",
"889 466 LINE",
"881 484 LINE",
"846 455 OFFCURVE",
"794 452 OFFCURVE",
"693 461 CURVE SMOOTH",
"639 466 OFFCURVE",
"582 465 OFFCURVE",
"545 430 CURVE SMOOTH",
"526 413 OFFCURVE",
"515 403 OFFCURVE",
"507 395 CURVE",
"547 522 OFFCURVE",
"591 654 OFFCURVE",
"623 730 CURVE",
"710 718 OFFCURVE",
"887 684 OFFCURVE",
"923 705 CURVE SMOOTH"
);
},
{
closed = 1;
nodes = (
"535 723 OFFCURVE",
"527 706 OFFCURVE",
"520 686 CURVE SMOOTH",
"495 619 OFFCURVE",
"475 551 OFFCURVE",
"452 479 CURVE",
"448 489 OFFCURVE",
"443 497 OFFCURVE",
"438 507 CURVE SMOOTH",
"433 516 OFFCURVE",
"427 525 OFFCURVE",
"420 533 CURVE",
"448 608 OFFCURVE",
"472 679 OFFCURVE",
"493 743 CURVE",
"510 742 OFFCURVE",
"527 740 OFFCURVE",
"543 739 CURVE"
);
},
{
closed = 1;
nodes = (
"452 478 LINE",
"424 388 OFFCURVE",
"393 294 OFFCURVE",
"349 196 CURVE SMOOTH",
"323 137 OFFCURVE",
"301 109 OFFCURVE",
"256 76 CURVE",
"232 76 LINE",
"262 141 OFFCURVE",
"293 211 OFFCURVE",
"323 283 CURVE",
"324 279 LINE",
"398 322 LINE",
"394 332 OFFCURVE",
"389 340 OFFCURVE",
"384 350 CURVE SMOOTH",
"377 361 OFFCURVE",
"370 371 OFFCURVE",
"362 381 CURVE",
"370 401 OFFCURVE",
"378 420 OFFCURVE",
"385 440 CURVE"
);
},
{
closed = 1;
nodes = (
"867 1024 OFFCURVE",
"824 1069 OFFCURVE",
"805 1073 CURVE SMOOTH",
"773 1081 OFFCURVE",
"735 1063 OFFCURVE",
"742 1057 CURVE SMOOTH",
"781 1026 OFFCURVE",
"862 996 OFFCURVE",
"906 995 CURVE SMOOTH",
"918 994 OFFCURVE",
"937 1002 OFFCURVE",
"916 1008 CURVE SMOOTH"
);
}
);
width = 952;
}
);
note = Egrave;
},
{
color = 5;
glyphname = F.ss01;
lastChange = "2021-08-31 06:50:47 +0000";
layers = (
{
hints = (
{
horizontal = 1;
place = "{2, 10}";
type = Stem;
},
{
horizontal = 1;
place = "{244, 19}";
type = Stem;
},
{
horizontal = 1;
place = "{477, 10}";
type = Stem;
},
{
place = "{-600, 12}";
type = Stem;
}
);
layerId = "C36B7B90-196F-45C3-8412-B02CF16DA361";
paths = (
{
closed = 1;
nodes = (
"969 749 LINE",
"947 742 OFFCURVE",
"884 725 OFFCURVE",
"845 704 CURVE SMOOTH",
"777 667 OFFCURVE",
"729 650 OFFCURVE",
"696 559 CURVE SMOOTH",
"688 537 OFFCURVE",
"671 477 OFFCURVE",
"647 400 CURVE",
"569 402 LINE",
"613 513 OFFCURVE",
"652 623 OFFCURVE",
"682 718 CURVE",
"745 710 OFFCURVE",
"803 706 OFFCURVE",
"821 717 CURVE SMOOTH",
"950 794 LINE SMOOTH",
"957 798 OFFCURVE",
"944 803 OFFCURVE",
"944 803 CURVE",
"926 791 OFFCURVE",
"892 778 OFFCURVE",
"892 778 CURVE",
"872 773 OFFCURVE",
"790 778 OFFCURVE",
"703 785 CURVE",
"732 883 OFFCURVE",
"748 957 OFFCURVE",
"743 986 CURVE SMOOTH",
"742 996 OFFCURVE",
"730 1003 OFFCURVE",
"732 993 CURVE SMOOTH",
"735 973 OFFCURVE",
"715 895 OFFCURVE",
"681 787 CURVE",
"623 792 OFFCURVE",
"564 797 OFFCURVE",
"521 801 CURVE SMOOTH",
"395 812 OFFCURVE",
"251 793 OFFCURVE",
"160 734 CURVE SMOOTH",
"56 668 OFFCURVE",
"-11 565 OFFCURVE",
"47 448 CURVE SMOOTH",
"51 438 OFFCURVE",
"57 430 OFFCURVE",
"72 433 CURVE",
"72 433 OFFCURVE",
"157 461 OFFCURVE",
"186 470 CURVE",
"184 479 LINE",
"161 473 OFFCURVE",
"140 467 OFFCURVE",
"120 486 CURVE SMOOTH",
"110 497 OFFCURVE",
"98 523 OFFCURVE",
"93 550 CURVE SMOOTH",
"80 625 OFFCURVE",
"115 682 OFFCURVE",
"169 719 CURVE SMOOTH",
"253 778 OFFCURVE",
"380 754 OFFCURVE",
"489 745 CURVE SMOOTH",
"519 743 OFFCURVE",
"590 730 OFFCURVE",
"659 721 CURVE",
"627 625 OFFCURVE",
"588 514 OFFCURVE",
"544 402 CURVE",
"485 403 OFFCURVE",
"433 405 OFFCURVE",
"429 405 CURVE SMOOTH",
"383 407 OFFCURVE",
"338 401 OFFCURVE",
"307 373 CURVE SMOOTH",
"253 323 OFFCURVE",
"265 324 OFFCURVE",
"236 291 CURVE",
"243 279 LINE",
"270 311 LINE SMOOTH",
"296 343 OFFCURVE",
"337 347 OFFCURVE",
"379 347 CURVE SMOOTH",
"405 348 OFFCURVE",
"461 345 OFFCURVE",
"521 342 CURVE",
"468 207 OFFCURVE",
"411 74 OFFCURVE",
"359 -33 CURVE",
"156 -28 OFFCURVE",
"-43 200 OFFCURVE",
"233 354 CURVE",
"227 363 LINE",
"166 324 OFFCURVE",
"74 291 OFFCURVE",
"49 226 CURVE SMOOTH",
"29 172 OFFCURVE",
"32 96 OFFCURVE",
"60 48 CURVE SMOOTH",
"103 -27 OFFCURVE",
"164 -52 OFFCURVE",
"253 -67 CURVE SMOOTH",
"274 -70 OFFCURVE",
"312 -74 OFFCURVE",
"338 -73 CURVE",
"316 -116 OFFCURVE",
"295 -153 OFFCURVE",
"276 -182 CURVE SMOOTH",
"270 -191 OFFCURVE",
"283 -200 OFFCURVE",
"288 -191 CURVE SMOOTH",
"311 -157 OFFCURVE",
"335 -116 OFFCURVE",
"359 -69 CURVE",
"386 -60 OFFCURVE",
"507 -9 OFFCURVE",
"531 9 CURVE",
"522 17 LINE",
"496 -4 OFFCURVE",
"440 -22 OFFCURVE",
"427 -25 CURVE SMOOTH",
"411 -29 OFFCURVE",
"395 -32 OFFCURVE",
"378 -32 CURVE",
"434 76 OFFCURVE",
"492 208 OFFCURVE",
"545 341 CURVE",
"573 340 OFFCURVE",
"601 338 OFFCURVE",
"626 337 CURVE",
"605 276 OFFCURVE",
"580 210 OFFCURVE",
"552 145 CURVE SMOOTH",
"521 75 OFFCURVE",
"496 49 OFFCURVE",
"431 7 CURVE",
"438 -3 LINE",
"438 -3 OFFCURVE",
"529 70 OFFCURVE",
"549 71 CURVE SMOOTH",
"594 75 OFFCURVE",
"638 121 OFFCURVE",
"651 165 CURVE SMOOTH",
"668 220 OFFCURVE",
"686 278 OFFCURVE",
"703 332 CURVE",
"722 331 LINE SMOOTH",
"765 328 OFFCURVE",
"801 336 OFFCURVE",
"835 364 CURVE SMOOTH",
"920 434 LINE",
"913 442 LINE",
"877 412 OFFCURVE",
"827 392 OFFCURVE",
"725 398 CURVE SMOOTH",
"723 398 LINE",
"757 504 OFFCURVE",
"785 588 OFFCURVE",
"794 605 CURVE SMOOTH",
"843 698 OFFCURVE",
"889 713 OFFCURVE",
"971 741 CURVE"
);
}
);
width = 903;
}
);
note = F;
},
{
color = 5;
glyphname = G.ss01;
lastChange = "2021-08-31 06:50:47 +0000";
layers = (
{
hints = (
{
horizontal = 1;
place = "{-12, 12}";
type = Stem;
},
{
horizontal = 1;
place = "{197, 9}";
type = Stem;
},
{
horizontal = 1;
place = "{445, 47}";
type = Stem;
},
{
place = "{-1023, 80}";
type = Stem;
},
{
place = "{-585, 38}";
type = Stem;
}
);
layerId = "C36B7B90-196F-45C3-8412-B02CF16DA361";
paths = (
{
closed = 1;
nodes = (
"970 475 LINE",
"945 464 OFFCURVE",
"906 443 OFFCURVE",
"880 439 CURVE SMOOTH",
"838 433 OFFCURVE",
"838 435 OFFCURVE",
"792 444 CURVE SMOOTH",
"740 454 OFFCURVE",
"668 473 OFFCURVE",
"622 441 CURVE SMOOTH",
"533 379 LINE",
"534 363 LINE",
"562 384 OFFCURVE",
"631 411 OFFCURVE",
"746 377 CURVE SMOOTH",
"794 364 OFFCURVE",
"834 398 OFFCURVE",
"834 398 CURVE",
"820 320 OFFCURVE",
"749 136 OFFCURVE",
"679 93 CURVE SMOOTH",
"616 54 LINE",
"619 46 LINE",
"631 52 OFFCURVE",
"642 59 OFFCURVE",
"653 65 CURVE SMOOTH",
"740 120 OFFCURVE",
"793 134 OFFCURVE",
"854 222 CURVE SMOOTH",
"879 260 OFFCURVE",
"902 316 OFFCURVE",
"914 363 CURVE SMOOTH",
"930 424 OFFCURVE",
"919 433 OFFCURVE",
"973 470 CURVE"
);
},
{
closed = 1;
nodes = (
"1011 808 LINE",
"1008 814 LINE",
"1003 812 OFFCURVE",
"972 795 OFFCURVE",
"967 794 CURVE SMOOTH",
"918 782 OFFCURVE",
"841 804 OFFCURVE",
"797 809 CURVE SMOOTH",
"704 819 OFFCURVE",
"608 780 OFFCURVE",
"540 743 CURVE",
"502 768 OFFCURVE",
"456 771 OFFCURVE",
"407 763 CURVE",
"449 893 OFFCURVE",
"473 994 OFFCURVE",
"468 1029 CURVE SMOOTH",
"466 1039 OFFCURVE",
"455 1047 OFFCURVE",
"456 1037 CURVE SMOOTH",
"460 1012 OFFCURVE",
"430 902 OFFCURVE",
"381 757 CURVE",
"310 739 OFFCURVE",
"238 698 OFFCURVE",
"189 664 CURVE SMOOTH",
"34 555 OFFCURVE",
"-30 344 OFFCURVE",
"56 182 CURVE SMOOTH",
"73 150 OFFCURVE",
"96 121 OFFCURVE",
"123 96 CURVE",
"79 -1 OFFCURVE",
"36 -84 OFFCURVE",
"0 -139 CURVE SMOOTH",
"-6 -147 OFFCURVE",
"7 -156 OFFCURVE",
"13 -147 CURVE SMOOTH",
"51 -89 OFFCURVE",
"94 -9 OFFCURVE",
"138 82 CURVE",
"238 -2 OFFCURVE",
"386 -43 OFFCURVE",
"499 -18 CURVE SMOOTH",
"565 -4 OFFCURVE",
"616 10 OFFCURVE",
"666 39 CURVE SMOOTH",
"733 78 LINE SMOOTH",
"739 82 OFFCURVE",
"745 86 OFFCURVE",
"752 91 CURVE",
"747 98 LINE",
"709 74 LINE SMOOTH",
"552 -25 OFFCURVE",
"304 19 OFFCURVE",
"176 164 CURVE",
"196 208 OFFCURVE",
"216 254 OFFCURVE",
"235 300 CURVE",
"235 296 LINE",
"280 321 OFFCURVE",
"322 345 OFFCURVE",
"366 369 CURVE SMOOTH",
"426 401 OFFCURVE",
"471 479 OFFCURVE",
"512 618 CURVE SMOOTH",
"548 743 OFFCURVE",
"556 765 OFFCURVE",
"704 748 CURVE SMOOTH",
"753 743 OFFCURVE",
"845 714 OFFCURVE",
"889 739 CURVE SMOOTH",
"969 785 LINE"
);
},
{
closed = 1;
nodes = (
"386 609 OFFCURVE",
"390 437 OFFCURVE",
"313 355 CURVE",
"296 341 OFFCURVE",
"267 326 OFFCURVE",
"241 315 CURVE",
"298 452 OFFCURVE",
"352 595 OFFCURVE",
"392 717 CURVE",
"421 717 OFFCURVE",
"450 712 OFFCURVE",
"479 701 CURVE"
);
},
{
closed = 1;
nodes = (
"311 553 OFFCURVE",
"236 354 OFFCURVE",
"161 182 CURVE",
"150 197 OFFCURVE",
"140 213 OFFCURVE",
"131 230 CURVE SMOOTH",
"4 470 OFFCURVE",
"172 700 OFFCURVE",
"367 716 CURVE"
);
}
);
width = 942;
}
);
note = G;
},
{
color = 5;
glyphname = H.ss01;
lastChange = "2021-08-31 06:50:47 +0000";
layers = (
{
hints = (
{
horizontal = 1;
place = "{3, 11}";
type = Stem;
},
{
horizontal = 1;
place = "{292, 37}";
type = Stem;
},
{
horizontal = 1;
place = "{562, 15}";
type = Stem;
}
);
layerId = "C36B7B90-196F-45C3-8412-B02CF16DA361";
paths = (
{
closed = 1;
nodes = (
"1462 900 OFFCURVE",
"1454 904 OFFCURVE",
"1438 904 CURVE SMOOTH",
"1394 906 OFFCURVE",
"1360 902 OFFCURVE",
"1301 876 CURVE",
"1304 867 LINE",
"1391 898 OFFCURVE",
"1437 851 OFFCURVE",
"1414 770 CURVE",
"1426 759 LINE",
"1425 770 OFFCURVE",
"1427 780 OFFCURVE",
"1431 791 CURVE SMOOTH",
"1435 803 OFFCURVE",
"1440 816 OFFCURVE",
"1445 830 CURVE SMOOTH",
"1451 848 OFFCURVE",
"1458 868 OFFCURVE",
"1460 883 CURVE SMOOTH"
);
},
{
closed = 1;
nodes = (
"1332 914 LINE",
"1158 885 OFFCURVE",
"1031 706 OFFCURVE",
"960 558 CURVE SMOOTH",
"941 519 OFFCURVE",
"924 477 OFFCURVE",
"907 434 CURVE",
"872 408 OFFCURVE",
"822 390 OFFCURVE",
"730 398 CURVE SMOOTH",
"726 398 OFFCURVE",
"660 400 OFFCURVE",
"592 401 CURVE",
"624 505 OFFCURVE",
"652 588 OFFCURVE",
"661 605 CURVE SMOOTH",
"711 698 OFFCURVE",
"756 713 OFFCURVE",
"838 741 CURVE",
"836 749 LINE",
"814 742 OFFCURVE",
"751 725 OFFCURVE",
"712 704 CURVE SMOOTH",
"644 667 OFFCURVE",
"596 650 OFFCURVE",
"563 559 CURVE SMOOTH",
"555 537 OFFCURVE",
"539 478 OFFCURVE",
"515 403 CURVE",
"438 405 LINE",
"481 517 OFFCURVE",
"521 627 OFFCURVE",
"551 722 CURVE",
"616 711 OFFCURVE",
"667 704 OFFCURVE",
"688 717 CURVE SMOOTH",
"817 794 LINE SMOOTH",
"824 798 OFFCURVE",
"811 803 OFFCURVE",
"811 803 CURVE",
"793 791 OFFCURVE",
"760 778 OFFCURVE",
"760 778 CURVE",
"731 771 OFFCURVE",
"657 778 OFFCURVE",
"571 786 CURVE",
"600 883 OFFCURVE",
"615 957 OFFCURVE",
"611 986 CURVE SMOOTH",
"609 996 OFFCURVE",
"597 1003 OFFCURVE",
"599 993 CURVE SMOOTH",
"602 973 OFFCURVE",
"582 895 OFFCURVE",
"548 788 CURVE",
"532 790 OFFCURVE",
"515 791 OFFCURVE",
"499 793 CURVE SMOOTH",
"373 804 OFFCURVE",
"229 784 OFFCURVE",
"138 726 CURVE SMOOTH",
"34 659 OFFCURVE",
"-33 557 OFFCURVE",
"25 439 CURVE SMOOTH",
"29 429 OFFCURVE",
"35 422 OFFCURVE",
"50 425 CURVE",
"50 425 OFFCURVE",
"135 452 OFFCURVE",
"164 462 CURVE",
"162 470 LINE",
"139 464 OFFCURVE",
"118 458 OFFCURVE",
"98 477 CURVE SMOOTH",
"88 488 OFFCURVE",
"76 514 OFFCURVE",
"71 542 CURVE SMOOTH",
"58 617 OFFCURVE",
"93 673 OFFCURVE",
"147 710 CURVE SMOOTH",
"239 774 OFFCURVE",
"403 746 OFFCURVE",
"528 725 CURVE",
"496 630 OFFCURVE",
"456 518 OFFCURVE",
"413 405 CURVE",
"375 404 OFFCURVE",
"338 397 OFFCURVE",
"312 373 CURVE SMOOTH",
"258 323 OFFCURVE",
"270 324 OFFCURVE",
"240 291 CURVE",
"247 279 LINE",
"275 311 LINE SMOOTH",
"302 342 OFFCURVE",
"342 347 OFFCURVE",
"384 347 CURVE SMOOTH",
"390 347 LINE",
"343 226 OFFCURVE",
"292 107 OFFCURVE",
"244 6 CURVE",
"188 17 OFFCURVE",
"175 66 OFFCURVE",
"214 126 CURVE",
"206 140 LINE",
"203 129 OFFCURVE",
"198 120 OFFCURVE",
"191 109 CURVE SMOOTH",
"184 99 OFFCURVE",
"175 87 OFFCURVE",
"166 75 CURVE SMOOTH",
"154 58 OFFCURVE",
"142 41 OFFCURVE",
"135 27 CURVE SMOOTH",
"128 11 OFFCURVE",
"134 5 OFFCURVE",
"149 1 CURVE SMOOTH",
"177 -7 OFFCURVE",
"203 -12 OFFCURVE",
"236 -12 CURVE",
"203 -81 OFFCURVE",
"171 -140 OFFCURVE",
"143 -182 CURVE SMOOTH",
"137 -191 OFFCURVE",
"150 -200 OFFCURVE",
"156 -191 CURVE SMOOTH",
"187 -143 OFFCURVE",
"221 -81 OFFCURVE",
"257 -10 CURVE",
"267 -9 OFFCURVE",
"279 -8 OFFCURVE",
"291 -6 CURVE",
"289 4 LINE",
"280 4 OFFCURVE",
"271 3 OFFCURVE",
"264 4 CURVE",
"314 107 OFFCURVE",
"367 227 OFFCURVE",
"415 347 CURVE",
"437 346 OFFCURVE",
"465 345 OFFCURVE",
"495 344 CURVE",
"474 281 OFFCURVE",
"448 212 OFFCURVE",
"419 145 CURVE SMOOTH",
"388 75 OFFCURVE",
"363 49 OFFCURVE",
"298 7 CURVE",
"301 -4 LINE",
"301 -4 OFFCURVE",
"397 70 OFFCURVE",
"417 71 CURVE SMOOTH",
"461 75 OFFCURVE",
"505 121 OFFCURVE",
"519 165 CURVE SMOOTH",
"536 223 OFFCURVE",
"555 283 OFFCURVE",
"572 340 CURVE",
"652 336 OFFCURVE",
"725 331 OFFCURVE",
"726 331 CURVE SMOOTH",
"770 327 OFFCURVE",
"805 336 OFFCURVE",
"839 364 CURVE SMOOTH",
"899 413 LINE",
"836 241 OFFCURVE",
"798 55 OFFCURVE",
"837 -14 CURVE",
"932 35 LINE",
"953 96 OFFCURVE",
"1085 234 OFFCURVE",
"1134 264 CURVE",
"1129 273 LINE",
"1071 236 OFFCURVE",
"974 148 OFFCURVE",
"922 88 CURVE",
"867 271 OFFCURVE",
"1112 867 OFFCURVE",
"1334 906 CURVE"
);
}
);
width = 1129;
}
);
note = H;
},
{
color = 5;
glyphname = I.ss01;
lastChange = "2021-08-31 06:50:47 +0000";
layers = (
{
hints = (
{
horizontal = 1;
place = "{2, 10}";
type = Stem;
},
{
horizontal = 1;
place = "{478, 10}";
type = Stem;
}
);
layerId = "C36B7B90-196F-45C3-8412-B02CF16DA361";
paths = (
{
closed = 1;
nodes = (
"786 840 LINE",
"765 836 OFFCURVE",
"699 820 OFFCURVE",
"662 794 CURVE SMOOTH",
"583 739 OFFCURVE",
"532 700 OFFCURVE",
"500 609 CURVE SMOOTH",
"445 458 OFFCURVE",
"434 368 OFFCURVE",
"356 191 CURVE SMOOTH",
"328 128 OFFCURVE",
"305 100 OFFCURVE",
"253 65 CURVE",
"235 68 OFFCURVE",
"217 70 OFFCURVE",
"199 71 CURVE",
"232 141 OFFCURVE",
"264 216 OFFCURVE",
"296 293 CURVE",
"298 288 OFFCURVE",
"301 283 OFFCURVE",
"304 277 CURVE",
"378 319 LINE",
"373 329 OFFCURVE",
"369 338 OFFCURVE",
"363 347 CURVE SMOOTH",
"355 362 OFFCURVE",
"346 375 OFFCURVE",
"334 388 CURVE",
"341 406 OFFCURVE",
"348 423 OFFCURVE",
"355 441 CURVE",
"358 433 LINE",
"432 476 LINE",
"428 486 OFFCURVE",
"423 494 OFFCURVE",
"418 504 CURVE SMOOTH",
"410 517 OFFCURVE",
"402 529 OFFCURVE",
"392 541 CURVE",
"421 620 OFFCURVE",
"447 695 OFFCURVE",
"467 761 CURVE",
"514 759 OFFCURVE",
"560 761 OFFCURVE",
"603 779 CURVE SMOOTH",
"633 791 OFFCURVE",
"713 848 OFFCURVE",
"713 848 CURVE",
"708 855 LINE",
"675 833 OFFCURVE",
"600 825 OFFCURVE",
"546 830 CURVE SMOOTH",
"526 831 OFFCURVE",
"507 833 OFFCURVE",
"488 834 CURVE",
"510 912 OFFCURVE",
"521 970 OFFCURVE",
"517 995 CURVE SMOOTH",
"516 1005 OFFCURVE",
"500 1003 OFFCURVE",
"502 993 CURVE SMOOTH",
"505 976 OFFCURVE",
"491 918 OFFCURVE",
"466 835 CURVE",
"360 840 OFFCURVE",
"289 828 OFFCURVE",
"179 765 CURVE SMOOTH",
"71 702 OFFCURVE",
"-18 594 OFFCURVE",
"45 465 CURVE SMOOTH",
"50 455 OFFCURVE",
"56 447 OFFCURVE",
"71 450 CURVE",
"71 450 OFFCURVE",
"155 478 OFFCURVE",
"185 487 CURVE",
"183 496 LINE",
"160 490 OFFCURVE",
"139 484 OFFCURVE",
"119 503 CURVE SMOOTH",
"108 514 OFFCURVE",
"97 540 OFFCURVE",
"92 567 CURVE SMOOTH",
"79 642 OFFCURVE",
"117 695 OFFCURVE",
"168 737 CURVE SMOOTH",
"239 796 OFFCURVE",
"341 771 OFFCURVE",
"443 763 CURVE",
"422 698 OFFCURVE",
"397 625 OFFCURVE",
"369 548 CURVE",
"306 511 LINE",
"321 495 OFFCURVE",
"331 482 OFFCURVE",
"340 468 CURVE",
"330 442 OFFCURVE",
"320 415 OFFCURVE",
"309 388 CURVE",
"252 355 LINE",
"264 341 OFFCURVE",
"274 329 OFFCURVE",
"282 317 CURVE",
"248 232 OFFCURVE",
"213 149 OFFCURVE",
"178 72 CURVE",
"143 74 OFFCURVE",
"109 70 OFFCURVE",
"81 57 CURVE SMOOTH",
"43 39 OFFCURVE",
"-12 -32 OFFCURVE",
"-34 -48 CURVE",
"-26 -60 LINE",
"14 -14 OFFCURVE",
"76 -1 OFFCURVE",
"144 -2 CURVE",
"109 -75 OFFCURVE",
"75 -138 OFFCURVE",
"46 -182 CURVE SMOOTH",
"40 -191 OFFCURVE",
"53 -200 OFFCURVE",
"59 -191 CURVE SMOOTH",
"91 -142 OFFCURVE",
"127 -77 OFFCURVE",
"163 -3 CURVE",
"301 -10 OFFCURVE",
"456 -68 OFFCURVE",
"505 -32 CURVE SMOOTH",
"640 69 LINE",
"626 77 LINE",
"512 11 OFFCURVE",
"435 38 OFFCURVE",
"304 57 CURVE SMOOTH",
"293 59 OFFCURVE",
"280 61 OFFCURVE",
"268 63 CURVE",
"296 84 OFFCURVE",
"340 116 OFFCURVE",
"353 117 CURVE SMOOTH",
"398 120 OFFCURVE",
"441 167 OFFCURVE",
"455 211 CURVE SMOOTH",
"521 413 OFFCURVE",
"530 468 OFFCURVE",
"611 668 CURVE SMOOTH",
"659 789 OFFCURVE",
"685 808 OFFCURVE",
"788 832 CURVE"
);
}
);
width = 521;
}
);
note = I;
},
{
color = 11;
glyphname = Iacute.ss01;
lastChange = "2021-08-31 06:50:47 +0000";
layers = (
{
hints = (
{
horizontal = 1;
place = "{-192, 21}";
target = up;
type = BottomGhost;
},
{
horizontal = 1;
place = "{-41, 79}";
type = Stem;
},
{
horizontal = 1;
place = "{498, -20}";
target = down;
type = TopGhost;
},
{
horizontal = 1;
place = "{777, 61}";
type = Stem;
},
{
place = "{24, 65}";
type = Stem;
},
{
place = "{502, 15}";
type = Stem;
},
{
horizontal = 1;
place = "{0, 75}";
type = Stem;
},
{
horizontal = 1;
place = "{835, 7}";
type = Stem;
},
{
horizontal = 1;
place = "{764, 68}";
type = Stem;
},
{
horizontal = 1;
place = "{453, 39}";
type = Stem;
},
{
horizontal = 1;
place = "{492, -20}";
target = down;
type = TopGhost;
}
);
layerId = "C36B7B90-196F-45C3-8412-B02CF16DA361";
paths = (
{
closed = 1;
nodes = (
"786 842 LINE",
"765 839 OFFCURVE",
"699 823 OFFCURVE",
"662 797 CURVE SMOOTH",
"583 742 OFFCURVE",
"532 703 OFFCURVE",
"500 612 CURVE SMOOTH",
"445 461 OFFCURVE",
"434 371 OFFCURVE",
"355 194 CURVE SMOOTH",
"328 131 OFFCURVE",
"305 103 OFFCURVE",
"253 68 CURVE",
"235 70 OFFCURVE",
"217 73 OFFCURVE",
"199 74 CURVE",
"232 144 OFFCURVE",
"264 219 OFFCURVE",
"296 296 CURVE",
"298 291 OFFCURVE",
"301 286 OFFCURVE",
"304 279 CURVE",
"378 322 LINE",
"373 332 OFFCURVE",
"369 340 OFFCURVE",
"363 350 CURVE SMOOTH",
"354 365 OFFCURVE",
"346 377 OFFCURVE",
"334 391 CURVE",
"341 408 OFFCURVE",
"348 426 OFFCURVE",
"355 443 CURVE",
"358 436 LINE",
"432 478 LINE",
"428 488 OFFCURVE",
"423 497 OFFCURVE",
"418 507 CURVE SMOOTH",
"410 520 OFFCURVE",
"402 531 OFFCURVE",
"392 543 CURVE",
"421 622 OFFCURVE",
"447 698 OFFCURVE",
"467 764 CURVE",
"514 761 OFFCURVE",
"560 764 OFFCURVE",
"603 781 CURVE SMOOTH",
"633 793 OFFCURVE",
"713 851 OFFCURVE",
"713 851 CURVE",
"708 858 LINE",
"675 836 OFFCURVE",
"600 828 OFFCURVE",
"546 832 CURVE SMOOTH",
"526 834 OFFCURVE",
"506 836 OFFCURVE",
"488 837 CURVE",
"510 915 OFFCURVE",
"521 973 OFFCURVE",
"517 998 CURVE SMOOTH",
"516 1008 OFFCURVE",
"500 1006 OFFCURVE",
"502 996 CURVE SMOOTH",
"505 978 OFFCURVE",
"491 920 OFFCURVE",
"466 838 CURVE",
"360 843 OFFCURVE",
"289 831 OFFCURVE",
"179 767 CURVE SMOOTH",
"71 705 OFFCURVE",
"-18 597 OFFCURVE",
"45 467 CURVE SMOOTH",
"50 457 OFFCURVE",
"56 450 OFFCURVE",
"71 453 CURVE",
"71 453 OFFCURVE",
"155 480 OFFCURVE",
"185 490 CURVE",
"183 498 LINE",
"160 492 OFFCURVE",
"139 486 OFFCURVE",
"119 506 CURVE SMOOTH",
"108 516 OFFCURVE",
"97 542 OFFCURVE",
"92 570 CURVE SMOOTH",
"79 645 OFFCURVE",
"117 698 OFFCURVE",
"168 739 CURVE SMOOTH",
"239 798 OFFCURVE",
"341 774 OFFCURVE",
"443 765 CURVE",
"422 701 OFFCURVE",
"397 628 OFFCURVE",
"369 550 CURVE",
"306 514 LINE",
"321 498 OFFCURVE",
"331 485 OFFCURVE",
"340 471 CURVE",
"330 444 OFFCURVE",
"320 418 OFFCURVE",
"309 391 CURVE",
"252 357 LINE",
"264 343 OFFCURVE",
"274 332 OFFCURVE",
"282 320 CURVE",
"248 235 OFFCURVE",
"213 151 OFFCURVE",
"178 75 CURVE",
"143 76 OFFCURVE",
"109 73 OFFCURVE",
"81 60 CURVE SMOOTH",
"43 42 OFFCURVE",
"-12 -29 OFFCURVE",
"-34 -45 CURVE",
"-26 -57 LINE",
"14 -12 OFFCURVE",
"76 2 OFFCURVE",
"144 0 CURVE",
"109 -73 OFFCURVE",
"75 -135 OFFCURVE",
"46 -180 CURVE SMOOTH",
"40 -188 OFFCURVE",
"53 -197 OFFCURVE",
"59 -188 CURVE SMOOTH",
"91 -139 OFFCURVE",
"127 -74 OFFCURVE",
"163 0 CURVE",
"301 -7 OFFCURVE",
"456 -65 OFFCURVE",
"505 -29 CURVE SMOOTH",
"640 72 LINE",
"626 79 LINE",
"512 14 OFFCURVE",
"435 40 OFFCURVE",
"304 60 CURVE SMOOTH",
"293 62 OFFCURVE",
"280 64 OFFCURVE",
"268 65 CURVE",
"296 87 OFFCURVE",
"340 119 OFFCURVE",
"353 120 CURVE SMOOTH",
"398 123 OFFCURVE",
"441 170 OFFCURVE",
"455 213 CURVE SMOOTH",
"520 415 OFFCURVE",
"530 470 OFFCURVE",
"611 671 CURVE SMOOTH",
"659 792 OFFCURVE",
"685 811 OFFCURVE",
"788 835 CURVE"
);
},
{
closed = 1;
nodes = (
"832 987 OFFCURVE",
"794 1005 OFFCURVE",
"762 997 CURVE SMOOTH",
"744 993 OFFCURVE",
"701 948 OFFCURVE",
"651 932 CURVE SMOOTH",
"630 926 OFFCURVE",
"649 918 OFFCURVE",
"662 919 CURVE SMOOTH",
"705 920 OFFCURVE",
"786 950 OFFCURVE",
"825 981 CURVE SMOOTH"
);
}
);
width = 521;
}
);
note = Iacute;
},
{
color = 11;
glyphname = Icircumflex.ss01;
lastChange = "2021-08-31 06:50:47 +0000";
layers = (
{
hints = (
{
horizontal = 1;
place = "{-192, 21}";
target = up;
type = BottomGhost;
},
{
horizontal = 1;
place = "{-41, 79}";
type = Stem;
},
{
horizontal = 1;
place = "{498, -20}";
target = down;
type = TopGhost;
},
{
horizontal = 1;
place = "{777, 61}";
type = Stem;
},
{
place = "{24, 65}";
type = Stem;
},
{
place = "{502, 15}";
type = Stem;
},
{
horizontal = 1;
place = "{0, 75}";
type = Stem;
},
{
horizontal = 1;
place = "{835, 7}";
type = Stem;
},
{
horizontal = 1;
place = "{764, 68}";
type = Stem;
},
{
horizontal = 1;
place = "{453, 39}";
type = Stem;
},
{
horizontal = 1;
place = "{492, -20}";
target = down;
type = TopGhost;
}
);
layerId = "C36B7B90-196F-45C3-8412-B02CF16DA361";
paths = (
{
closed = 1;
nodes = (
"786 842 LINE",
"765 839 OFFCURVE",
"699 823 OFFCURVE",
"662 797 CURVE SMOOTH",
"583 742 OFFCURVE",
"532 703 OFFCURVE",
"500 612 CURVE SMOOTH",
"445 461 OFFCURVE",
"434 371 OFFCURVE",
"355 194 CURVE SMOOTH",
"328 131 OFFCURVE",
"305 103 OFFCURVE",
"253 68 CURVE",
"235 70 OFFCURVE",
"217 73 OFFCURVE",
"199 74 CURVE",
"232 144 OFFCURVE",
"264 219 OFFCURVE",
"296 296 CURVE",
"298 291 OFFCURVE",
"301 286 OFFCURVE",
"304 279 CURVE",
"378 322 LINE",
"373 332 OFFCURVE",
"369 340 OFFCURVE",
"363 350 CURVE SMOOTH",
"354 365 OFFCURVE",
"346 377 OFFCURVE",
"334 391 CURVE",
"341 408 OFFCURVE",
"348 426 OFFCURVE",
"355 443 CURVE",
"358 436 LINE",
"432 478 LINE",
"428 488 OFFCURVE",
"423 497 OFFCURVE",
"418 507 CURVE SMOOTH",
"410 520 OFFCURVE",
"402 531 OFFCURVE",
"392 543 CURVE",
"421 622 OFFCURVE",
"447 698 OFFCURVE",
"467 764 CURVE",
"514 761 OFFCURVE",
"560 764 OFFCURVE",
"603 781 CURVE SMOOTH",
"633 793 OFFCURVE",
"713 851 OFFCURVE",
"713 851 CURVE",
"708 858 LINE",
"675 836 OFFCURVE",
"600 828 OFFCURVE",
"546 832 CURVE SMOOTH",
"526 834 OFFCURVE",
"506 836 OFFCURVE",
"488 837 CURVE",
"510 915 OFFCURVE",
"521 973 OFFCURVE",
"517 998 CURVE SMOOTH",
"516 1008 OFFCURVE",
"500 1006 OFFCURVE",
"502 996 CURVE SMOOTH",
"505 978 OFFCURVE",
"491 920 OFFCURVE",
"466 838 CURVE",
"360 843 OFFCURVE",
"289 831 OFFCURVE",
"179 767 CURVE SMOOTH",
"71 705 OFFCURVE",
"-18 597 OFFCURVE",
"45 467 CURVE SMOOTH",
"50 457 OFFCURVE",
"56 450 OFFCURVE",
"71 453 CURVE",
"71 453 OFFCURVE",
"155 480 OFFCURVE",
"185 490 CURVE",
"183 498 LINE",
"160 492 OFFCURVE",
"139 486 OFFCURVE",
"119 506 CURVE SMOOTH",
"108 516 OFFCURVE",
"97 542 OFFCURVE",
"92 570 CURVE SMOOTH",
"79 645 OFFCURVE",
"117 698 OFFCURVE",
"168 739 CURVE SMOOTH",
"239 798 OFFCURVE",
"341 774 OFFCURVE",
"443 765 CURVE",
"422 701 OFFCURVE",
"397 628 OFFCURVE",
"369 550 CURVE",
"306 514 LINE",
"321 498 OFFCURVE",
"331 485 OFFCURVE",
"340 471 CURVE",
"330 444 OFFCURVE",
"320 418 OFFCURVE",
"309 391 CURVE",
"252 357 LINE",
"264 343 OFFCURVE",
"274 332 OFFCURVE",
"282 320 CURVE",
"248 235 OFFCURVE",
"213 151 OFFCURVE",
"178 75 CURVE",
"143 76 OFFCURVE",
"109 73 OFFCURVE",
"81 60 CURVE SMOOTH",
"43 42 OFFCURVE",
"-12 -29 OFFCURVE",
"-34 -45 CURVE",
"-26 -57 LINE",
"14 -12 OFFCURVE",
"76 2 OFFCURVE",
"144 0 CURVE",
"109 -73 OFFCURVE",
"75 -135 OFFCURVE",
"46 -180 CURVE SMOOTH",
"40 -188 OFFCURVE",
"53 -197 OFFCURVE",
"59 -188 CURVE SMOOTH",
"91 -139 OFFCURVE",
"127 -74 OFFCURVE",
"163 0 CURVE",
"301 -7 OFFCURVE",
"456 -65 OFFCURVE",
"505 -29 CURVE SMOOTH",
"640 72 LINE",
"626 79 LINE",
"512 14 OFFCURVE",
"435 40 OFFCURVE",
"304 60 CURVE SMOOTH",
"293 62 OFFCURVE",
"280 64 OFFCURVE",
"268 65 CURVE",
"296 87 OFFCURVE",
"340 119 OFFCURVE",
"353 120 CURVE SMOOTH",
"398 123 OFFCURVE",
"441 170 OFFCURVE",
"455 213 CURVE SMOOTH",
"520 415 OFFCURVE",
"530 470 OFFCURVE",
"611 671 CURVE SMOOTH",
"659 792 OFFCURVE",
"685 811 OFFCURVE",
"788 835 CURVE"
);
},
{
closed = 1;
nodes = (
"771 947 OFFCURVE",
"735 986 OFFCURVE",
"717 1018 CURVE SMOOTH",
"713 1026 OFFCURVE",
"707 1023 OFFCURVE",
"702 1017 CURVE",
"669 986 OFFCURVE",
"599 926 OFFCURVE",
"558 898 CURVE SMOOTH",
"526 877 OFFCURVE",
"569 891 OFFCURVE",
"580 897 CURVE SMOOTH",
"594 904 OFFCURVE",
"653 946 OFFCURVE",
"685 975 CURVE SMOOTH",
"687 977 OFFCURVE",
"690 977 OFFCURVE",
"692 975 CURVE SMOOTH",
"710 950 OFFCURVE",
"740 914 OFFCURVE",
"769 899 CURVE SMOOTH",
"778 895 OFFCURVE",
"826 911 OFFCURVE",
"810 921 CURVE SMOOTH"
);
}
);
width = 521;
}
);
note = Icircumflex;
},
{
color = 11;
glyphname = Idieresis.ss01;
lastChange = "2021-08-31 06:50:47 +0000";
layers = (
{
hints = (
{
horizontal = 1;
place = "{-192, 21}";
target = up;
type = BottomGhost;
},
{
horizontal = 1;
place = "{-41, 79}";
type = Stem;
},
{
horizontal = 1;
place = "{498, -20}";
target = down;
type = TopGhost;
},
{
horizontal = 1;
place = "{777, 61}";
type = Stem;
},
{
place = "{24, 65}";
type = Stem;
},
{
place = "{502, 15}";
type = Stem;
},
{
horizontal = 1;
place = "{0, 75}";
type = Stem;
},
{
horizontal = 1;
place = "{835, 7}";
type = Stem;
},
{
horizontal = 1;
place = "{764, 68}";
type = Stem;
},
{
horizontal = 1;
place = "{453, 39}";
type = Stem;
},
{
horizontal = 1;
place = "{492, -20}";
target = down;
type = TopGhost;
},
{
horizontal = 1;
place = "{915, 65}";
type = Stem;
}
);
layerId = "C36B7B90-196F-45C3-8412-B02CF16DA361";
paths = (
{
closed = 1;
nodes = (
"786 842 LINE",
"765 839 OFFCURVE",
"699 823 OFFCURVE",
"662 797 CURVE SMOOTH",
"583 742 OFFCURVE",
"532 703 OFFCURVE",
"500 612 CURVE SMOOTH",
"445 461 OFFCURVE",
"434 371 OFFCURVE",
"355 194 CURVE SMOOTH",
"328 131 OFFCURVE",
"305 103 OFFCURVE",
"253 68 CURVE",
"235 70 OFFCURVE",
"217 73 OFFCURVE",
"199 74 CURVE",
"232 144 OFFCURVE",
"264 219 OFFCURVE",
"296 296 CURVE",
"298 291 OFFCURVE",
"301 286 OFFCURVE",
"304 279 CURVE",
"378 322 LINE",
"373 332 OFFCURVE",
"369 340 OFFCURVE",
"363 350 CURVE SMOOTH",
"354 365 OFFCURVE",
"346 377 OFFCURVE",
"334 391 CURVE",
"341 408 OFFCURVE",
"348 426 OFFCURVE",
"355 443 CURVE",
"358 436 LINE",
"432 478 LINE",
"428 488 OFFCURVE",
"423 497 OFFCURVE",
"418 507 CURVE SMOOTH",
"410 520 OFFCURVE",
"402 531 OFFCURVE",
"392 543 CURVE",
"421 622 OFFCURVE",
"447 698 OFFCURVE",
"467 764 CURVE",
"514 761 OFFCURVE",
"560 764 OFFCURVE",
"603 781 CURVE SMOOTH",
"633 793 OFFCURVE",
"713 851 OFFCURVE",
"713 851 CURVE",
"708 858 LINE",
"675 836 OFFCURVE",
"600 828 OFFCURVE",
"546 832 CURVE SMOOTH",
"526 834 OFFCURVE",
"506 836 OFFCURVE",
"488 837 CURVE",
"510 915 OFFCURVE",
"521 973 OFFCURVE",
"517 998 CURVE SMOOTH",
"516 1008 OFFCURVE",
"500 1006 OFFCURVE",
"502 996 CURVE SMOOTH",
"505 978 OFFCURVE",
"491 920 OFFCURVE",
"466 838 CURVE",
"360 843 OFFCURVE",
"289 831 OFFCURVE",
"179 767 CURVE SMOOTH",
"71 705 OFFCURVE",
"-18 597 OFFCURVE",
"45 467 CURVE SMOOTH",
"50 457 OFFCURVE",
"56 450 OFFCURVE",
"71 453 CURVE",
"71 453 OFFCURVE",
"155 480 OFFCURVE",
"185 490 CURVE",
"183 498 LINE",
"160 492 OFFCURVE",
"139 486 OFFCURVE",
"119 506 CURVE SMOOTH",
"108 516 OFFCURVE",
"97 542 OFFCURVE",
"92 570 CURVE SMOOTH",
"79 645 OFFCURVE",
"117 698 OFFCURVE",
"168 739 CURVE SMOOTH",
"239 798 OFFCURVE",
"341 774 OFFCURVE",
"443 765 CURVE",
"422 701 OFFCURVE",
"397 628 OFFCURVE",
"369 550 CURVE",
"306 514 LINE",
"321 498 OFFCURVE",
"331 485 OFFCURVE",
"340 471 CURVE",
"330 444 OFFCURVE",
"320 418 OFFCURVE",
"309 391 CURVE",
"252 357 LINE",
"264 343 OFFCURVE",
"274 332 OFFCURVE",
"282 320 CURVE",
"248 235 OFFCURVE",
"213 151 OFFCURVE",
"178 75 CURVE",
"143 76 OFFCURVE",
"109 73 OFFCURVE",
"81 60 CURVE SMOOTH",
"43 42 OFFCURVE",
"-12 -29 OFFCURVE",
"-34 -45 CURVE",
"-26 -57 LINE",
"14 -12 OFFCURVE",
"76 2 OFFCURVE",
"144 0 CURVE",
"109 -73 OFFCURVE",
"75 -135 OFFCURVE",
"46 -180 CURVE SMOOTH",
"40 -188 OFFCURVE",
"53 -197 OFFCURVE",
"59 -188 CURVE SMOOTH",
"91 -139 OFFCURVE",
"127 -74 OFFCURVE",
"163 0 CURVE",
"301 -7 OFFCURVE",
"456 -65 OFFCURVE",
"505 -29 CURVE SMOOTH",
"640 72 LINE",
"626 79 LINE",
"512 14 OFFCURVE",
"435 40 OFFCURVE",
"304 60 CURVE SMOOTH",
"293 62 OFFCURVE",
"280 64 OFFCURVE",
"268 65 CURVE",
"296 87 OFFCURVE",
"340 119 OFFCURVE",
"353 120 CURVE SMOOTH",
"398 123 OFFCURVE",
"441 170 OFFCURVE",
"455 213 CURVE SMOOTH",
"520 415 OFFCURVE",
"530 470 OFFCURVE",
"611 671 CURVE SMOOTH",
"659 792 OFFCURVE",
"685 811 OFFCURVE",
"788 835 CURVE"
);
},
{
closed = 1;
nodes = (
"828 981 OFFCURVE",
"827 985 OFFCURVE",
"823 981 CURVE SMOOTH",
"821 979 OFFCURVE",
"815 977 OFFCURVE",
"808 976 CURVE SMOOTH",
"795 974 OFFCURVE",
"783 979 OFFCURVE",
"767 980 CURVE SMOOTH",
"745 980 OFFCURVE",
"728 958 OFFCURVE",
"715 929 CURVE SMOOTH",
"709 917 OFFCURVE",
"718 913 OFFCURVE",
"736 915 CURVE SMOOTH",
"753 916 OFFCURVE",
"769 909 OFFCURVE",
"784 917 CURVE SMOOTH",
"795 922 OFFCURVE",
"820 960 OFFCURVE",
"826 976 CURVE SMOOTH"
);
},
{
closed = 1;
nodes = (
"679 981 OFFCURVE",
"679 985 OFFCURVE",
"675 981 CURVE SMOOTH",
"672 979 OFFCURVE",
"667 977 OFFCURVE",
"660 976 CURVE SMOOTH",
"647 974 OFFCURVE",
"635 979 OFFCURVE",
"619 980 CURVE SMOOTH",
"597 980 OFFCURVE",
"580 958 OFFCURVE",
"566 929 CURVE SMOOTH",
"561 917 OFFCURVE",
"569 913 OFFCURVE",
"588 915 CURVE SMOOTH",
"605 916 OFFCURVE",
"621 909 OFFCURVE",
"636 917 CURVE SMOOTH",
"647 922 OFFCURVE",
"672 960 OFFCURVE",
"677 976 CURVE SMOOTH"
);
}
);
width = 521;
}
);
note = Idieresis;
},
{
color = 11;
glyphname = Igrave.ss01;
lastChange = "2021-08-31 06:50:47 +0000";
layers = (
{
hints = (
{
horizontal = 1;
place = "{-192, 21}";
target = up;
type = BottomGhost;
},
{
horizontal = 1;
place = "{-41, 79}";
type = Stem;
},
{
horizontal = 1;
place = "{498, -20}";
target = down;
type = TopGhost;
},
{
horizontal = 1;
place = "{777, 61}";
type = Stem;
},
{
place = "{24, 65}";
type = Stem;
},
{
place = "{502, 15}";
type = Stem;
},
{
horizontal = 1;
place = "{0, 75}";
type = Stem;
},
{
horizontal = 1;
place = "{835, 7}";
type = Stem;
},
{
horizontal = 1;
place = "{764, 68}";
type = Stem;
},
{
horizontal = 1;
place = "{453, 39}";
type = Stem;
},
{
horizontal = 1;
place = "{492, -20}";
target = down;
type = TopGhost;
}
);
layerId = "C36B7B90-196F-45C3-8412-B02CF16DA361";
paths = (
{
closed = 1;
nodes = (
"786 842 LINE",
"765 839 OFFCURVE",
"699 823 OFFCURVE",
"662 797 CURVE SMOOTH",
"583 742 OFFCURVE",
"532 703 OFFCURVE",
"500 612 CURVE SMOOTH",
"445 461 OFFCURVE",
"434 371 OFFCURVE",
"355 194 CURVE SMOOTH",
"328 131 OFFCURVE",
"305 103 OFFCURVE",
"253 68 CURVE",
"235 70 OFFCURVE",
"217 73 OFFCURVE",
"199 74 CURVE",
"232 144 OFFCURVE",
"264 219 OFFCURVE",
"296 296 CURVE",
"298 291 OFFCURVE",
"301 286 OFFCURVE",
"304 279 CURVE",
"378 322 LINE",
"373 332 OFFCURVE",
"369 340 OFFCURVE",
"363 350 CURVE SMOOTH",
"354 365 OFFCURVE",
"346 377 OFFCURVE",
"334 391 CURVE",
"341 408 OFFCURVE",
"348 426 OFFCURVE",
"355 443 CURVE",
"358 436 LINE",
"432 478 LINE",
"428 488 OFFCURVE",
"423 497 OFFCURVE",
"418 507 CURVE SMOOTH",
"410 520 OFFCURVE",
"402 531 OFFCURVE",
"392 543 CURVE",
"421 622 OFFCURVE",
"447 698 OFFCURVE",
"467 764 CURVE",
"514 761 OFFCURVE",
"560 764 OFFCURVE",
"603 781 CURVE SMOOTH",
"633 793 OFFCURVE",
"713 851 OFFCURVE",
"713 851 CURVE",
"708 858 LINE",
"675 836 OFFCURVE",
"600 828 OFFCURVE",
"546 832 CURVE SMOOTH",
"526 834 OFFCURVE",
"506 836 OFFCURVE",
"488 837 CURVE",
"510 915 OFFCURVE",
"521 973 OFFCURVE",
"517 998 CURVE SMOOTH",
"516 1008 OFFCURVE",
"500 1006 OFFCURVE",
"502 996 CURVE SMOOTH",
"505 978 OFFCURVE",
"491 920 OFFCURVE",
"466 838 CURVE",
"360 843 OFFCURVE",
"289 831 OFFCURVE",
"179 767 CURVE SMOOTH",
"71 705 OFFCURVE",
"-18 597 OFFCURVE",
"45 467 CURVE SMOOTH",
"50 457 OFFCURVE",
"56 450 OFFCURVE",
"71 453 CURVE",
"71 453 OFFCURVE",
"155 480 OFFCURVE",
"185 490 CURVE",
"183 498 LINE",
"160 492 OFFCURVE",
"139 486 OFFCURVE",
"119 506 CURVE SMOOTH",
"108 516 OFFCURVE",
"97 542 OFFCURVE",
"92 570 CURVE SMOOTH",
"79 645 OFFCURVE",
"117 698 OFFCURVE",
"168 739 CURVE SMOOTH",
"239 798 OFFCURVE",
"341 774 OFFCURVE",
"443 765 CURVE",
"422 701 OFFCURVE",
"397 628 OFFCURVE",
"369 550 CURVE",
"306 514 LINE",
"321 498 OFFCURVE",
"331 485 OFFCURVE",
"340 471 CURVE",
"330 444 OFFCURVE",
"320 418 OFFCURVE",
"309 391 CURVE",
"252 357 LINE",
"264 343 OFFCURVE",
"274 332 OFFCURVE",
"282 320 CURVE",
"248 235 OFFCURVE",
"213 151 OFFCURVE",
"178 75 CURVE",
"143 76 OFFCURVE",
"109 73 OFFCURVE",
"81 60 CURVE SMOOTH",
"43 42 OFFCURVE",
"-12 -29 OFFCURVE",
"-34 -45 CURVE",
"-26 -57 LINE",
"14 -12 OFFCURVE",
"76 2 OFFCURVE",
"144 0 CURVE",
"109 -73 OFFCURVE",
"75 -135 OFFCURVE",
"46 -180 CURVE SMOOTH",
"40 -188 OFFCURVE",
"53 -197 OFFCURVE",
"59 -188 CURVE SMOOTH",
"91 -139 OFFCURVE",
"127 -74 OFFCURVE",
"163 0 CURVE",
"301 -7 OFFCURVE",
"456 -65 OFFCURVE",
"505 -29 CURVE SMOOTH",
"640 72 LINE",
"626 79 LINE",
"512 14 OFFCURVE",
"435 40 OFFCURVE",
"304 60 CURVE SMOOTH",
"293 62 OFFCURVE",
"280 64 OFFCURVE",
"268 65 CURVE",
"296 87 OFFCURVE",
"340 119 OFFCURVE",
"353 120 CURVE SMOOTH",
"398 123 OFFCURVE",
"441 170 OFFCURVE",
"455 213 CURVE SMOOTH",
"520 415 OFFCURVE",
"530 470 OFFCURVE",
"611 671 CURVE SMOOTH",
"659 792 OFFCURVE",
"685 811 OFFCURVE",
"788 835 CURVE"
);
},
{
closed = 1;
nodes = (
"713 936 OFFCURVE",
"670 981 OFFCURVE",
"651 985 CURVE SMOOTH",
"620 993 OFFCURVE",
"581 975 OFFCURVE",
"589 969 CURVE SMOOTH",
"628 938 OFFCURVE",
"709 908 OFFCURVE",
"752 906 CURVE SMOOTH",
"765 906 OFFCURVE",
"783 913 OFFCURVE",
"763 920 CURVE SMOOTH"
);
}
);
width = 521;
}
);
note = Igrave;
},
{
color = 5;
glyphname = J.ss01;
lastChange = "2021-08-31 06:50:47 +0000";
layers = (
{
hints = (
{
horizontal = 1;
place = "{-15, 32}";
type = Stem;
},
{
horizontal = 1;
place = "{560, 15}";
type = Stem;
}
);
layerId = "C36B7B90-196F-45C3-8412-B02CF16DA361";
paths = (
{
closed = 1;
nodes = (
"1005 820 LINE",
"984 813 OFFCURVE",
"921 796 OFFCURVE",
"882 775 CURVE SMOOTH",
"814 738 OFFCURVE",
"766 721 OFFCURVE",
"733 630 CURVE SMOOTH",
"717 587 OFFCURVE",
"629 285 OFFCURVE",
"553 97 CURVE SMOOTH",
"524 26 OFFCURVE",
"497 1 OFFCURVE",
"432 -41 CURVE",
"440 -51 LINE",
"440 -51 OFFCURVE",
"531 22 OFFCURVE",
"551 23 CURVE SMOOTH",
"595 27 OFFCURVE",
"639 73 OFFCURVE",
"653 117 CURVE SMOOTH",
"710 309 OFFCURVE",
"815 647 OFFCURVE",
"831 677 CURVE SMOOTH",
"880 770 OFFCURVE",
"926 784 OFFCURVE",
"1007 813 CURVE"
);
},
{
closed = 1;
nodes = (
"951 854 LINE",
"915 834 OFFCURVE",
"840 830 OFFCURVE",
"786 837 CURVE SMOOTH",
"759 841 OFFCURVE",
"738 845 OFFCURVE",
"722 848 CURVE",
"749 941 OFFCURVE",
"764 1010 OFFCURVE",
"759 1038 CURVE SMOOTH",
"758 1048 OFFCURVE",
"743 1046 OFFCURVE",
"744 1036 CURVE SMOOTH",
"747 1017 OFFCURVE",
"730 948 OFFCURVE",
"700 852 CURVE",
"652 861 OFFCURVE",
"658 855 OFFCURVE",
"559 803 CURVE SMOOTH",
"446 744 OFFCURVE",
"345 642 OFFCURVE",
"395 509 CURVE SMOOTH",
"399 499 OFFCURVE",
"404 492 OFFCURVE",
"419 494 CURVE",
"419 494 OFFCURVE",
"507 517 OFFCURVE",
"537 525 CURVE",
"535 534 LINE",
"512 529 OFFCURVE",
"491 524 OFFCURVE",
"473 544 CURVE SMOOTH",
"463 555 OFFCURVE",
"454 582 OFFCURVE",
"452 610 CURVE SMOOTH",
"446 686 OFFCURVE",
"490 736 OFFCURVE",
"544 775 CURVE SMOOTH",
"589 807 OFFCURVE",
"627 792 OFFCURVE",
"677 780 CURVE",
"658 722 OFFCURVE",
"636 658 OFFCURVE",
"611 590 CURVE",
"548 554 LINE",
"563 538 OFFCURVE",
"573 525 OFFCURVE",
"582 511 CURVE",
"572 484 OFFCURVE",
"562 457 OFFCURVE",
"551 431 CURVE",
"494 397 LINE",
"506 383 OFFCURVE",
"516 372 OFFCURVE",
"524 360 CURVE",
"465 213 OFFCURVE",
"390 28 OFFCURVE",
"334 -79 CURVE",
"141 -57 OFFCURVE",
"-30 158 OFFCURVE",
"234 306 CURVE",
"228 315 LINE",
"168 276 OFFCURVE",
"75 243 OFFCURVE",
"50 178 CURVE SMOOTH",
"30 124 OFFCURVE",
"33 48 OFFCURVE",
"61 0 CURVE SMOOTH",
"104 -75 OFFCURVE",
"166 -100 OFFCURVE",
"254 -115 CURVE SMOOTH",
"268 -117 OFFCURVE",
"290 -120 OFFCURVE",
"312 -121 CURVE",
"299 -144 OFFCURVE",
"287 -164 OFFCURVE",
"275 -182 CURVE SMOOTH",
"269 -190 OFFCURVE",
"282 -199 OFFCURVE",
"288 -190 CURVE SMOOTH",
"301 -170 OFFCURVE",
"315 -147 OFFCURVE",
"330 -121 CURVE",
"340 -121 OFFCURVE",
"349 -120 OFFCURVE",
"356 -118 CURVE SMOOTH",
"369 -115 OFFCURVE",
"507 -59 OFFCURVE",
"532 -39 CURVE",
"523 -31 LINE",
"497 -52 OFFCURVE",
"441 -70 OFFCURVE",
"428 -73 CURVE SMOOTH",
"404 -79 OFFCURVE",
"378 -82 OFFCURVE",
"352 -80 CURVE",
"408 24 OFFCURVE",
"482 198 OFFCURVE",
"538 336 CURVE",
"540 331 OFFCURVE",
"543 326 OFFCURVE",
"546 319 CURVE",
"620 362 LINE",
"615 372 OFFCURVE",
"611 380 OFFCURVE",
"605 390 CURVE SMOOTH",
"597 405 OFFCURVE",
"588 417 OFFCURVE",
"576 431 CURVE",
"583 448 OFFCURVE",
"590 466 OFFCURVE",
"597 483 CURVE",
"600 476 LINE",
"674 518 LINE",
"670 528 OFFCURVE",
"665 537 OFFCURVE",
"660 547 CURVE SMOOTH",
"652 560 OFFCURVE",
"644 571 OFFCURVE",
"634 583 CURVE",
"659 651 OFFCURVE",
"681 716 OFFCURVE",
"700 775 CURVE",
"737 767 OFFCURVE",
"781 764 OFFCURVE",
"838 783 CURVE SMOOTH",
"869 794 OFFCURVE",
"955 847 OFFCURVE",
"955 847 CURVE"
);
}
);
width = 767;
}
);
note = J;
},
